G04 #@! TF.FileFunction,Legend,Top*
%FSLAX46Y46*%
G04 Gerber Fmt 4.6, Leading zero omitted, Abs format (unit mm)*
G04 Created by KiCad (PCBNEW 4.0.6) date 03/12/17 16:14:44*
%MOMM*%
%LPD*%
G01*
G04 APERTURE LIST*
%ADD10C,0.100000*%
%ADD11C,0.120000*%
%ADD12C,0.150000*%
%ADD13C,2.600000*%
%ADD14R,1.650000X1.400000*%
%ADD15R,1.400000X1.650000*%
%ADD16R,1.150000X1.200000*%
%ADD17C,2.400000*%
%ADD18R,1.600000X1.300000*%
%ADD19R,1.000000X1.950000*%
%ADD20C,1.900000*%
%ADD21R,1.200000X1.200000*%
%ADD22R,2.100000X2.100000*%
%ADD23O,2.100000X2.100000*%
%ADD24C,3.600000*%
%ADD25R,2.940000X1.920000*%
%ADD26R,1.924000X1.924000*%
G04 APERTURE END LIST*
D10*
D11*
X91676000Y-85530000D02*
X91676000Y-86530000D01*
X93376000Y-86530000D02*
X93376000Y-85530000D01*
X87788000Y-86260000D02*
X87788000Y-85260000D01*
X86088000Y-85260000D02*
X86088000Y-86260000D01*
X96074000Y-80530000D02*
X97074000Y-80530000D01*
X97074000Y-78830000D02*
X96074000Y-78830000D01*
X57439000Y-70694000D02*
X57439000Y-71394000D01*
X56239000Y-71394000D02*
X56239000Y-70694000D01*
X56239000Y-74442000D02*
X56239000Y-73742000D01*
X57439000Y-73742000D02*
X57439000Y-74442000D01*
D12*
X60776000Y-88506000D02*
X60776000Y-84556000D01*
X63776000Y-89006000D02*
X63776000Y-88506000D01*
X63776000Y-88506000D02*
X60776000Y-88506000D01*
X60776000Y-80506000D02*
X60776000Y-84556000D01*
X63776000Y-80006000D02*
X63776000Y-80506000D01*
X63776000Y-80506000D02*
X60776000Y-80506000D01*
X49976000Y-84506000D02*
X49976000Y-79506000D01*
X49976000Y-79506000D02*
X63776000Y-79506000D01*
X63776000Y-79506000D02*
X63776000Y-80006000D01*
X63776000Y-89506000D02*
X63776000Y-89006000D01*
X60776000Y-89506000D02*
X63776000Y-89506000D01*
X49976000Y-84506000D02*
X49976000Y-89506000D01*
X49976000Y-89506000D02*
X60776000Y-89506000D01*
D11*
X96512000Y-74975000D02*
X95512000Y-74975000D01*
X95512000Y-73615000D02*
X96512000Y-73615000D01*
X83536972Y-78614740D02*
X84536972Y-78614740D01*
X84536972Y-79974740D02*
X83536972Y-79974740D01*
X83536972Y-79884739D02*
X84536972Y-79884739D01*
X84536972Y-81244739D02*
X83536972Y-81244739D01*
X83536973Y-81154738D02*
X84536973Y-81154738D01*
X84536973Y-82514738D02*
X83536973Y-82514738D01*
X83536973Y-82424740D02*
X84536973Y-82424740D01*
X84536973Y-83784740D02*
X83536973Y-83784740D01*
D12*
X99165000Y-82431000D02*
X99115000Y-82431000D01*
X99165000Y-86581000D02*
X99020000Y-86581000D01*
X94015000Y-86581000D02*
X94160000Y-86581000D01*
X94015000Y-82431000D02*
X94160000Y-82431000D01*
X99165000Y-82431000D02*
X99165000Y-86581000D01*
X94015000Y-82431000D02*
X94015000Y-86581000D01*
X99115000Y-82431000D02*
X99115000Y-81031000D01*
D11*
X85930000Y-76720000D02*
X86930000Y-76720000D01*
X86930000Y-75020000D02*
X85930000Y-75020000D01*
X94712000Y-75446000D02*
X94712000Y-76446000D01*
X94712000Y-76446000D02*
X96812000Y-76446000D01*
X94712000Y-75446000D02*
X96812000Y-75446000D01*
X79128000Y-85852000D02*
X79128000Y-93592000D01*
X79128000Y-93592000D02*
X81908000Y-93592000D01*
X81908000Y-93592000D02*
X81908000Y-85852000D01*
X81908000Y-85852000D02*
X79128000Y-85852000D01*
X79128000Y-84582000D02*
X79128000Y-83192000D01*
X79128000Y-83192000D02*
X80518000Y-83192000D01*
D12*
X66137725Y-87590102D02*
X64157826Y-85610203D01*
X71936001Y-93388378D02*
X69956102Y-91408479D01*
X73350215Y-94802591D02*
X72607752Y-95545053D01*
X72607752Y-95545053D02*
X71193539Y-94130840D01*
X71193539Y-94130840D02*
X71936001Y-93388378D01*
X62743613Y-84195989D02*
X62001151Y-84938452D01*
X62001151Y-84938452D02*
X63415364Y-86352665D01*
X63415364Y-86352665D02*
X64157826Y-85610203D01*
X66561989Y-90984215D02*
X68471178Y-92893403D01*
X68471178Y-92893403D02*
X69956102Y-91408479D01*
X66561989Y-90984215D02*
X64652801Y-89075026D01*
X64652801Y-89075026D02*
X66137725Y-87590102D01*
X66915543Y-80024059D02*
X62743613Y-84195989D01*
X73350215Y-94802591D02*
X77522145Y-90630661D01*
X77522145Y-90630661D02*
X72218844Y-85327360D01*
X72218844Y-85327360D02*
X66915543Y-80024059D01*
D11*
X85930000Y-65538000D02*
X86930000Y-65538000D01*
X86930000Y-66898000D02*
X85930000Y-66898000D01*
X85930000Y-67062000D02*
X86930000Y-67062000D01*
X86930000Y-68422000D02*
X85930000Y-68422000D01*
X85930000Y-70618000D02*
X86930000Y-70618000D01*
X86930000Y-71978000D02*
X85930000Y-71978000D01*
X85930000Y-72142000D02*
X86930000Y-72142000D01*
X86930000Y-73502000D02*
X85930000Y-73502000D01*
X85930000Y-73666000D02*
X86930000Y-73666000D01*
X86930000Y-75026000D02*
X85930000Y-75026000D01*
D12*
X75635000Y-50914500D02*
X78937000Y-50914500D01*
X78937000Y-50914500D02*
X78302000Y-47485500D01*
X76270000Y-47485500D02*
X78302000Y-47485500D01*
X75635000Y-50914500D02*
X76270000Y-47485500D01*
X78302000Y-54089500D02*
X78302000Y-50914500D01*
X68840500Y-54089500D02*
X68840500Y-66408500D01*
X81159500Y-66472000D02*
X81159500Y-54089500D01*
X81159500Y-66408500D02*
X68840500Y-66408500D01*
X81159500Y-54089500D02*
X68840500Y-54089500D01*
X76270000Y-54089500D02*
X76270000Y-50914500D01*
X73730000Y-54089500D02*
X73730000Y-50914500D01*
X71698000Y-54089500D02*
X71698000Y-50914500D01*
X71698000Y-47485500D02*
X73730000Y-47485500D01*
X71063000Y-50914500D02*
X74365000Y-50914500D01*
X74365000Y-50914500D02*
X73730000Y-47485500D01*
X71063000Y-50914500D02*
X71698000Y-47485500D01*
X92883143Y-88990666D02*
X92930762Y-89038285D01*
X92978381Y-89181142D01*
X92978381Y-89276380D01*
X92930762Y-89419238D01*
X92835524Y-89514476D01*
X92740286Y-89562095D01*
X92549810Y-89609714D01*
X92406952Y-89609714D01*
X92216476Y-89562095D01*
X92121238Y-89514476D01*
X92026000Y-89419238D01*
X91978381Y-89276380D01*
X91978381Y-89181142D01*
X92026000Y-89038285D01*
X92073619Y-88990666D01*
X92978381Y-88038285D02*
X92978381Y-88609714D01*
X92978381Y-88324000D02*
X91978381Y-88324000D01*
X92121238Y-88419238D01*
X92216476Y-88514476D01*
X92264095Y-88609714D01*
X87295143Y-88685666D02*
X87342762Y-88733285D01*
X87390381Y-88876142D01*
X87390381Y-88971380D01*
X87342762Y-89114238D01*
X87247524Y-89209476D01*
X87152286Y-89257095D01*
X86961810Y-89304714D01*
X86818952Y-89304714D01*
X86628476Y-89257095D01*
X86533238Y-89209476D01*
X86438000Y-89114238D01*
X86390381Y-88971380D01*
X86390381Y-88876142D01*
X86438000Y-88733285D01*
X86485619Y-88685666D01*
X86485619Y-88304714D02*
X86438000Y-88257095D01*
X86390381Y-88161857D01*
X86390381Y-87923761D01*
X86438000Y-87828523D01*
X86485619Y-87780904D01*
X86580857Y-87733285D01*
X86676095Y-87733285D01*
X86818952Y-87780904D01*
X87390381Y-88352333D01*
X87390381Y-87733285D01*
X93629334Y-80037143D02*
X93581715Y-80084762D01*
X93438858Y-80132381D01*
X93343620Y-80132381D01*
X93200762Y-80084762D01*
X93105524Y-79989524D01*
X93057905Y-79894286D01*
X93010286Y-79703810D01*
X93010286Y-79560952D01*
X93057905Y-79370476D01*
X93105524Y-79275238D01*
X93200762Y-79180000D01*
X93343620Y-79132381D01*
X93438858Y-79132381D01*
X93581715Y-79180000D01*
X93629334Y-79227619D01*
X93962667Y-79132381D02*
X94581715Y-79132381D01*
X94248381Y-79513333D01*
X94391239Y-79513333D01*
X94486477Y-79560952D01*
X94534096Y-79608571D01*
X94581715Y-79703810D01*
X94581715Y-79941905D01*
X94534096Y-80037143D01*
X94486477Y-80084762D01*
X94391239Y-80132381D01*
X94105524Y-80132381D01*
X94010286Y-80084762D01*
X93962667Y-80037143D01*
X57196143Y-68670666D02*
X57243762Y-68718285D01*
X57291381Y-68861142D01*
X57291381Y-68956380D01*
X57243762Y-69099238D01*
X57148524Y-69194476D01*
X57053286Y-69242095D01*
X56862810Y-69289714D01*
X56719952Y-69289714D01*
X56529476Y-69242095D01*
X56434238Y-69194476D01*
X56339000Y-69099238D01*
X56291381Y-68956380D01*
X56291381Y-68861142D01*
X56339000Y-68718285D01*
X56386619Y-68670666D01*
X56291381Y-67765904D02*
X56291381Y-68242095D01*
X56767571Y-68289714D01*
X56719952Y-68242095D01*
X56672333Y-68146857D01*
X56672333Y-67908761D01*
X56719952Y-67813523D01*
X56767571Y-67765904D01*
X56862810Y-67718285D01*
X57100905Y-67718285D01*
X57196143Y-67765904D01*
X57243762Y-67813523D01*
X57291381Y-67908761D01*
X57291381Y-68146857D01*
X57243762Y-68242095D01*
X57196143Y-68289714D01*
X57196143Y-76798666D02*
X57243762Y-76846285D01*
X57291381Y-76989142D01*
X57291381Y-77084380D01*
X57243762Y-77227238D01*
X57148524Y-77322476D01*
X57053286Y-77370095D01*
X56862810Y-77417714D01*
X56719952Y-77417714D01*
X56529476Y-77370095D01*
X56434238Y-77322476D01*
X56339000Y-77227238D01*
X56291381Y-77084380D01*
X56291381Y-76989142D01*
X56339000Y-76846285D01*
X56386619Y-76798666D01*
X56291381Y-75941523D02*
X56291381Y-76132000D01*
X56339000Y-76227238D01*
X56386619Y-76274857D01*
X56529476Y-76370095D01*
X56719952Y-76417714D01*
X57100905Y-76417714D01*
X57196143Y-76370095D01*
X57243762Y-76322476D01*
X57291381Y-76227238D01*
X57291381Y-76036761D01*
X57243762Y-75941523D01*
X57196143Y-75893904D01*
X57100905Y-75846285D01*
X56862810Y-75846285D01*
X56767571Y-75893904D01*
X56719952Y-75941523D01*
X56672333Y-76036761D01*
X56672333Y-76227238D01*
X56719952Y-76322476D01*
X56767571Y-76370095D01*
X56862810Y-76417714D01*
X50766905Y-90800381D02*
X50766905Y-89800381D01*
X51147858Y-89800381D01*
X51243096Y-89848000D01*
X51290715Y-89895619D01*
X51338334Y-89990857D01*
X51338334Y-90133714D01*
X51290715Y-90228952D01*
X51243096Y-90276571D01*
X51147858Y-90324190D01*
X50766905Y-90324190D01*
X51719286Y-89895619D02*
X51766905Y-89848000D01*
X51862143Y-89800381D01*
X52100239Y-89800381D01*
X52195477Y-89848000D01*
X52243096Y-89895619D01*
X52290715Y-89990857D01*
X52290715Y-90086095D01*
X52243096Y-90228952D01*
X51671667Y-90800381D01*
X52290715Y-90800381D01*
X53719905Y-90800381D02*
X53719905Y-89800381D01*
X54100858Y-89800381D01*
X54196096Y-89848000D01*
X54243715Y-89895619D01*
X54291334Y-89990857D01*
X54291334Y-90133714D01*
X54243715Y-90228952D01*
X54196096Y-90276571D01*
X54100858Y-90324190D01*
X53719905Y-90324190D01*
X54862762Y-90800381D02*
X54767524Y-90752762D01*
X54719905Y-90705143D01*
X54672286Y-90609905D01*
X54672286Y-90324190D01*
X54719905Y-90228952D01*
X54767524Y-90181333D01*
X54862762Y-90133714D01*
X55005620Y-90133714D01*
X55100858Y-90181333D01*
X55148477Y-90228952D01*
X55196096Y-90324190D01*
X55196096Y-90609905D01*
X55148477Y-90705143D01*
X55100858Y-90752762D01*
X55005620Y-90800381D01*
X54862762Y-90800381D01*
X55529429Y-90133714D02*
X55719905Y-90800381D01*
X55910382Y-90324190D01*
X56100858Y-90800381D01*
X56291334Y-90133714D01*
X57053239Y-90752762D02*
X56958001Y-90800381D01*
X56767524Y-90800381D01*
X56672286Y-90752762D01*
X56624667Y-90657524D01*
X56624667Y-90276571D01*
X56672286Y-90181333D01*
X56767524Y-90133714D01*
X56958001Y-90133714D01*
X57053239Y-90181333D01*
X57100858Y-90276571D01*
X57100858Y-90371810D01*
X56624667Y-90467048D01*
X57529429Y-90800381D02*
X57529429Y-90133714D01*
X57529429Y-90324190D02*
X57577048Y-90228952D01*
X57624667Y-90181333D01*
X57719905Y-90133714D01*
X57815144Y-90133714D01*
X58148477Y-90800381D02*
X58148477Y-89800381D01*
X58624667Y-90800381D02*
X58624667Y-89800381D01*
X59196096Y-90800381D01*
X59196096Y-89800381D01*
X98766334Y-74747381D02*
X98433000Y-74271190D01*
X98194905Y-74747381D02*
X98194905Y-73747381D01*
X98575858Y-73747381D01*
X98671096Y-73795000D01*
X98718715Y-73842619D01*
X98766334Y-73937857D01*
X98766334Y-74080714D01*
X98718715Y-74175952D01*
X98671096Y-74223571D01*
X98575858Y-74271190D01*
X98194905Y-74271190D01*
X99718715Y-74747381D02*
X99147286Y-74747381D01*
X99433000Y-74747381D02*
X99433000Y-73747381D01*
X99337762Y-73890238D01*
X99242524Y-73985476D01*
X99147286Y-74033095D01*
X87082334Y-79747121D02*
X86749000Y-79270930D01*
X86510905Y-79747121D02*
X86510905Y-78747121D01*
X86891858Y-78747121D01*
X86987096Y-78794740D01*
X87034715Y-78842359D01*
X87082334Y-78937597D01*
X87082334Y-79080454D01*
X87034715Y-79175692D01*
X86987096Y-79223311D01*
X86891858Y-79270930D01*
X86510905Y-79270930D01*
X87463286Y-78842359D02*
X87510905Y-78794740D01*
X87606143Y-78747121D01*
X87844239Y-78747121D01*
X87939477Y-78794740D01*
X87987096Y-78842359D01*
X88034715Y-78937597D01*
X88034715Y-79032835D01*
X87987096Y-79175692D01*
X87415667Y-79747121D01*
X88034715Y-79747121D01*
X87082334Y-81017120D02*
X86749000Y-80540929D01*
X86510905Y-81017120D02*
X86510905Y-80017120D01*
X86891858Y-80017120D01*
X86987096Y-80064739D01*
X87034715Y-80112358D01*
X87082334Y-80207596D01*
X87082334Y-80350453D01*
X87034715Y-80445691D01*
X86987096Y-80493310D01*
X86891858Y-80540929D01*
X86510905Y-80540929D01*
X87415667Y-80017120D02*
X88034715Y-80017120D01*
X87701381Y-80398072D01*
X87844239Y-80398072D01*
X87939477Y-80445691D01*
X87987096Y-80493310D01*
X88034715Y-80588549D01*
X88034715Y-80826644D01*
X87987096Y-80921882D01*
X87939477Y-80969501D01*
X87844239Y-81017120D01*
X87558524Y-81017120D01*
X87463286Y-80969501D01*
X87415667Y-80921882D01*
X87082334Y-82287119D02*
X86749000Y-81810928D01*
X86510905Y-82287119D02*
X86510905Y-81287119D01*
X86891858Y-81287119D01*
X86987096Y-81334738D01*
X87034715Y-81382357D01*
X87082334Y-81477595D01*
X87082334Y-81620452D01*
X87034715Y-81715690D01*
X86987096Y-81763309D01*
X86891858Y-81810928D01*
X86510905Y-81810928D01*
X87939477Y-81620452D02*
X87939477Y-82287119D01*
X87701381Y-81239500D02*
X87463286Y-81953786D01*
X88082334Y-81953786D01*
X87082334Y-83557121D02*
X86749000Y-83080930D01*
X86510905Y-83557121D02*
X86510905Y-82557121D01*
X86891858Y-82557121D01*
X86987096Y-82604740D01*
X87034715Y-82652359D01*
X87082334Y-82747597D01*
X87082334Y-82890454D01*
X87034715Y-82985692D01*
X86987096Y-83033311D01*
X86891858Y-83080930D01*
X86510905Y-83080930D01*
X87987096Y-82557121D02*
X87510905Y-82557121D01*
X87463286Y-83033311D01*
X87510905Y-82985692D01*
X87606143Y-82938073D01*
X87844239Y-82938073D01*
X87939477Y-82985692D01*
X87987096Y-83033311D01*
X88034715Y-83128550D01*
X88034715Y-83366645D01*
X87987096Y-83461883D01*
X87939477Y-83509502D01*
X87844239Y-83557121D01*
X87606143Y-83557121D01*
X87510905Y-83509502D01*
X87463286Y-83461883D01*
X92740381Y-83743905D02*
X93549905Y-83743905D01*
X93645143Y-83696286D01*
X93692762Y-83648667D01*
X93740381Y-83553429D01*
X93740381Y-83362952D01*
X93692762Y-83267714D01*
X93645143Y-83220095D01*
X93549905Y-83172476D01*
X92740381Y-83172476D01*
X93740381Y-82172476D02*
X93740381Y-82743905D01*
X93740381Y-82458191D02*
X92740381Y-82458191D01*
X92883238Y-82553429D01*
X92978476Y-82648667D01*
X93026095Y-82743905D01*
X89343143Y-76303143D02*
X89295524Y-76350762D01*
X89152667Y-76398381D01*
X89057429Y-76398381D01*
X88914571Y-76350762D01*
X88819333Y-76255524D01*
X88771714Y-76160286D01*
X88724095Y-75969810D01*
X88724095Y-75826952D01*
X88771714Y-75636476D01*
X88819333Y-75541238D01*
X88914571Y-75446000D01*
X89057429Y-75398381D01*
X89152667Y-75398381D01*
X89295524Y-75446000D01*
X89343143Y-75493619D01*
X90295524Y-76398381D02*
X89724095Y-76398381D01*
X90009809Y-76398381D02*
X90009809Y-75398381D01*
X89914571Y-75541238D01*
X89819333Y-75636476D01*
X89724095Y-75684095D01*
X90914571Y-75398381D02*
X91009810Y-75398381D01*
X91105048Y-75446000D01*
X91152667Y-75493619D01*
X91200286Y-75588857D01*
X91247905Y-75779333D01*
X91247905Y-76017429D01*
X91200286Y-76207905D01*
X91152667Y-76303143D01*
X91105048Y-76350762D01*
X91009810Y-76398381D01*
X90914571Y-76398381D01*
X90819333Y-76350762D01*
X90771714Y-76303143D01*
X90724095Y-76207905D01*
X90676476Y-76017429D01*
X90676476Y-75779333D01*
X90724095Y-75588857D01*
X90771714Y-75493619D01*
X90819333Y-75446000D01*
X90914571Y-75398381D01*
X98194905Y-76398381D02*
X98194905Y-75398381D01*
X98433000Y-75398381D01*
X98575858Y-75446000D01*
X98671096Y-75541238D01*
X98718715Y-75636476D01*
X98766334Y-75826952D01*
X98766334Y-75969810D01*
X98718715Y-76160286D01*
X98671096Y-76255524D01*
X98575858Y-76350762D01*
X98433000Y-76398381D01*
X98194905Y-76398381D01*
X99718715Y-76398381D02*
X99147286Y-76398381D01*
X99433000Y-76398381D02*
X99433000Y-75398381D01*
X99337762Y-75541238D01*
X99242524Y-75636476D01*
X99147286Y-75684095D01*
X79779905Y-82644381D02*
X79779905Y-81644381D01*
X80160858Y-81644381D01*
X80256096Y-81692000D01*
X80303715Y-81739619D01*
X80351334Y-81834857D01*
X80351334Y-81977714D01*
X80303715Y-82072952D01*
X80256096Y-82120571D01*
X80160858Y-82168190D01*
X79779905Y-82168190D01*
X80684667Y-81644381D02*
X81303715Y-81644381D01*
X80970381Y-82025333D01*
X81113239Y-82025333D01*
X81208477Y-82072952D01*
X81256096Y-82120571D01*
X81303715Y-82215810D01*
X81303715Y-82453905D01*
X81256096Y-82549143D01*
X81208477Y-82596762D01*
X81113239Y-82644381D01*
X80827524Y-82644381D01*
X80732286Y-82596762D01*
X80684667Y-82549143D01*
X67300206Y-79858970D02*
X68007313Y-79151863D01*
X68276688Y-79421237D01*
X68310359Y-79522253D01*
X68310359Y-79589596D01*
X68276688Y-79690611D01*
X68175672Y-79791626D01*
X68074657Y-79825298D01*
X68007314Y-79825298D01*
X67906299Y-79791626D01*
X67636924Y-79522252D01*
X68781764Y-80397718D02*
X68310359Y-80869123D01*
X68882778Y-79959985D02*
X68209343Y-80296703D01*
X68647076Y-80734436D01*
X69253874Y-81745294D02*
X69321218Y-81879981D01*
X69489577Y-82048341D01*
X69590592Y-82082012D01*
X69657936Y-82082012D01*
X69758951Y-82048341D01*
X69826294Y-81980997D01*
X69859966Y-81879982D01*
X69859966Y-81812639D01*
X69826295Y-81711623D01*
X69725279Y-81543263D01*
X69691607Y-81442248D01*
X69691607Y-81374905D01*
X69725279Y-81273890D01*
X69792623Y-81206546D01*
X69893638Y-81172874D01*
X69960981Y-81172874D01*
X70061996Y-81206546D01*
X70230356Y-81374905D01*
X70297699Y-81509592D01*
X70533401Y-81677951D02*
X70937462Y-82082012D01*
X70028325Y-82587088D02*
X70735431Y-81879981D01*
X70802776Y-83361539D02*
X70466058Y-83024821D01*
X71173164Y-82317714D01*
X71038478Y-83597241D02*
X71745584Y-82890134D01*
X71375195Y-83933958D02*
X72082302Y-83226851D01*
X71779256Y-84338019D01*
X72486363Y-83630913D01*
X72115973Y-84674737D02*
X72823080Y-83967630D01*
X72520035Y-85078798D02*
X72621050Y-84371690D01*
X73227141Y-84371691D02*
X72419019Y-84371691D01*
X89311334Y-66670381D02*
X88978000Y-66194190D01*
X88739905Y-66670381D02*
X88739905Y-65670381D01*
X89120858Y-65670381D01*
X89216096Y-65718000D01*
X89263715Y-65765619D01*
X89311334Y-65860857D01*
X89311334Y-66003714D01*
X89263715Y-66098952D01*
X89216096Y-66146571D01*
X89120858Y-66194190D01*
X88739905Y-66194190D01*
X90168477Y-65670381D02*
X89978000Y-65670381D01*
X89882762Y-65718000D01*
X89835143Y-65765619D01*
X89739905Y-65908476D01*
X89692286Y-66098952D01*
X89692286Y-66479905D01*
X89739905Y-66575143D01*
X89787524Y-66622762D01*
X89882762Y-66670381D01*
X90073239Y-66670381D01*
X90168477Y-66622762D01*
X90216096Y-66575143D01*
X90263715Y-66479905D01*
X90263715Y-66241810D01*
X90216096Y-66146571D01*
X90168477Y-66098952D01*
X90073239Y-66051333D01*
X89882762Y-66051333D01*
X89787524Y-66098952D01*
X89739905Y-66146571D01*
X89692286Y-66241810D01*
X89311334Y-68194381D02*
X88978000Y-67718190D01*
X88739905Y-68194381D02*
X88739905Y-67194381D01*
X89120858Y-67194381D01*
X89216096Y-67242000D01*
X89263715Y-67289619D01*
X89311334Y-67384857D01*
X89311334Y-67527714D01*
X89263715Y-67622952D01*
X89216096Y-67670571D01*
X89120858Y-67718190D01*
X88739905Y-67718190D01*
X89644667Y-67194381D02*
X90311334Y-67194381D01*
X89882762Y-68194381D01*
X89311334Y-71750381D02*
X88978000Y-71274190D01*
X88739905Y-71750381D02*
X88739905Y-70750381D01*
X89120858Y-70750381D01*
X89216096Y-70798000D01*
X89263715Y-70845619D01*
X89311334Y-70940857D01*
X89311334Y-71083714D01*
X89263715Y-71178952D01*
X89216096Y-71226571D01*
X89120858Y-71274190D01*
X88739905Y-71274190D01*
X89882762Y-71178952D02*
X89787524Y-71131333D01*
X89739905Y-71083714D01*
X89692286Y-70988476D01*
X89692286Y-70940857D01*
X89739905Y-70845619D01*
X89787524Y-70798000D01*
X89882762Y-70750381D01*
X90073239Y-70750381D01*
X90168477Y-70798000D01*
X90216096Y-70845619D01*
X90263715Y-70940857D01*
X90263715Y-70988476D01*
X90216096Y-71083714D01*
X90168477Y-71131333D01*
X90073239Y-71178952D01*
X89882762Y-71178952D01*
X89787524Y-71226571D01*
X89739905Y-71274190D01*
X89692286Y-71369429D01*
X89692286Y-71559905D01*
X89739905Y-71655143D01*
X89787524Y-71702762D01*
X89882762Y-71750381D01*
X90073239Y-71750381D01*
X90168477Y-71702762D01*
X90216096Y-71655143D01*
X90263715Y-71559905D01*
X90263715Y-71369429D01*
X90216096Y-71274190D01*
X90168477Y-71226571D01*
X90073239Y-71178952D01*
X89311334Y-73274381D02*
X88978000Y-72798190D01*
X88739905Y-73274381D02*
X88739905Y-72274381D01*
X89120858Y-72274381D01*
X89216096Y-72322000D01*
X89263715Y-72369619D01*
X89311334Y-72464857D01*
X89311334Y-72607714D01*
X89263715Y-72702952D01*
X89216096Y-72750571D01*
X89120858Y-72798190D01*
X88739905Y-72798190D01*
X89787524Y-73274381D02*
X89978000Y-73274381D01*
X90073239Y-73226762D01*
X90120858Y-73179143D01*
X90216096Y-73036286D01*
X90263715Y-72845810D01*
X90263715Y-72464857D01*
X90216096Y-72369619D01*
X90168477Y-72322000D01*
X90073239Y-72274381D01*
X89882762Y-72274381D01*
X89787524Y-72322000D01*
X89739905Y-72369619D01*
X89692286Y-72464857D01*
X89692286Y-72702952D01*
X89739905Y-72798190D01*
X89787524Y-72845810D01*
X89882762Y-72893429D01*
X90073239Y-72893429D01*
X90168477Y-72845810D01*
X90216096Y-72798190D01*
X90263715Y-72702952D01*
X89343143Y-74798381D02*
X89009809Y-74322190D01*
X88771714Y-74798381D02*
X88771714Y-73798381D01*
X89152667Y-73798381D01*
X89247905Y-73846000D01*
X89295524Y-73893619D01*
X89343143Y-73988857D01*
X89343143Y-74131714D01*
X89295524Y-74226952D01*
X89247905Y-74274571D01*
X89152667Y-74322190D01*
X88771714Y-74322190D01*
X90295524Y-74798381D02*
X89724095Y-74798381D01*
X90009809Y-74798381D02*
X90009809Y-73798381D01*
X89914571Y-73941238D01*
X89819333Y-74036476D01*
X89724095Y-74084095D01*
X90914571Y-73798381D02*
X91009810Y-73798381D01*
X91105048Y-73846000D01*
X91152667Y-73893619D01*
X91200286Y-73988857D01*
X91247905Y-74179333D01*
X91247905Y-74417429D01*
X91200286Y-74607905D01*
X91152667Y-74703143D01*
X91105048Y-74750762D01*
X91009810Y-74798381D01*
X90914571Y-74798381D01*
X90819333Y-74750762D01*
X90771714Y-74703143D01*
X90724095Y-74607905D01*
X90676476Y-74417429D01*
X90676476Y-74179333D01*
X90724095Y-73988857D01*
X90771714Y-73893619D01*
X90819333Y-73846000D01*
X90914571Y-73798381D01*
X74238095Y-59201381D02*
X74238095Y-60010905D01*
X74285714Y-60106143D01*
X74333333Y-60153762D01*
X74428571Y-60201381D01*
X74619048Y-60201381D01*
X74714286Y-60153762D01*
X74761905Y-60106143D01*
X74809524Y-60010905D01*
X74809524Y-59201381D01*
X75190476Y-59201381D02*
X75809524Y-59201381D01*
X75476190Y-59582333D01*
X75619048Y-59582333D01*
X75714286Y-59629952D01*
X75761905Y-59677571D01*
X75809524Y-59772810D01*
X75809524Y-60010905D01*
X75761905Y-60106143D01*
X75714286Y-60153762D01*
X75619048Y-60201381D01*
X75333333Y-60201381D01*
X75238095Y-60153762D01*
X75190476Y-60106143D01*
X83850381Y-89911333D02*
X84564667Y-89911333D01*
X84707524Y-89958953D01*
X84802762Y-90054191D01*
X84850381Y-90197048D01*
X84850381Y-90292286D01*
X84850381Y-89435143D02*
X83850381Y-89435143D01*
X83850381Y-89054190D01*
X83898000Y-88958952D01*
X83945619Y-88911333D01*
X84040857Y-88863714D01*
X84183714Y-88863714D01*
X84278952Y-88911333D01*
X84326571Y-88958952D01*
X84374190Y-89054190D01*
X84374190Y-89435143D01*
X84850381Y-87911333D02*
X84850381Y-88482762D01*
X84850381Y-88197048D02*
X83850381Y-88197048D01*
X83993238Y-88292286D01*
X84088476Y-88387524D01*
X84136095Y-88482762D01*
%LPC*%
D13*
X95000000Y-92000000D03*
D14*
X92526000Y-87030000D03*
X92526000Y-85030000D03*
X86938000Y-84760000D03*
X86938000Y-86760000D03*
D15*
X97574000Y-79680000D03*
X95574000Y-79680000D03*
D16*
X56839000Y-70294000D03*
X56839000Y-71794000D03*
X56839000Y-74842000D03*
X56839000Y-73342000D03*
D17*
X89224000Y-87046000D03*
X89224000Y-84506000D03*
X89224000Y-81966000D03*
X60776000Y-87046000D03*
X60776000Y-84506000D03*
X60776000Y-81966000D03*
D18*
X94912000Y-74295000D03*
X97112000Y-74295000D03*
X85136972Y-79294740D03*
X82936972Y-79294740D03*
X85136972Y-80564739D03*
X82936972Y-80564739D03*
X85136973Y-81834738D03*
X82936973Y-81834738D03*
X85136973Y-83104740D03*
X82936973Y-83104740D03*
D19*
X98495000Y-81806000D03*
X97225000Y-81806000D03*
X95955000Y-81806000D03*
X94685000Y-81806000D03*
X94685000Y-87206000D03*
X95955000Y-87206000D03*
X97225000Y-87206000D03*
X98495000Y-87206000D03*
D20*
X60395000Y-70128000D03*
X60395000Y-72568000D03*
X60395000Y-75008000D03*
D15*
X87430000Y-75870000D03*
X85430000Y-75870000D03*
D21*
X96812000Y-75946000D03*
X95212000Y-75946000D03*
D22*
X80518000Y-84582000D03*
D23*
X80518000Y-87122000D03*
X80518000Y-89662000D03*
X80518000Y-92202000D03*
D17*
X66364000Y-83998000D03*
X68160051Y-85794051D03*
X69956102Y-87590102D03*
X71752153Y-89386153D03*
X73548204Y-91182204D03*
D18*
X87530000Y-66218000D03*
X85330000Y-66218000D03*
X87530000Y-67742000D03*
X85330000Y-67742000D03*
X87530000Y-71298000D03*
X85330000Y-71298000D03*
X87530000Y-72822000D03*
X85330000Y-72822000D03*
X87530000Y-74346000D03*
X85330000Y-74346000D03*
D24*
X107000000Y-92000000D03*
D25*
X66620000Y-56439000D03*
X66618000Y-58979000D03*
X66618000Y-61519000D03*
X66618000Y-64059000D03*
X83378000Y-61519000D03*
X83380000Y-56439000D03*
X83378000Y-58979000D03*
X83378000Y-64059000D03*
D26*
X84398000Y-84836200D03*
X84398000Y-86715800D03*
D13*
X55000000Y-92000000D03*
M02*
