M48
;DRILL file {KiCad 4.0.6} date 03/12/17 16:14:53
;FORMAT={2:4/ absolute / inch / suppress trailing zeros}
FMAT,2
INCH,LZ
T1C0.016
T2C0.024
T3C0.031
T4C0.039
T5C0.051
%
G90
G05
M72
T1
X020025Y-026875
X020025Y-030875
X020025Y-034875
X020025Y-037025
X020028Y-02497
X021778Y-02857
X022378Y-03522
X022875Y-023525
X023228Y-03262
X02435Y-037025
X025178Y-03007
X025228Y-02842
X0253Y-036475
X025378Y-03177
X0254Y-022175
X026028Y-03037
X026078Y-02812
X026328Y-02587
X026428Y-02932
X026828Y-02587
X026878Y-03282
X027078Y-02382
X0271Y-022025
X027278Y-02857
X027628Y-03142
X027628Y-03327
X027628Y-02827
X027978Y-03352
X028028Y-02862
X028128Y-02697
X028278Y-03217
X0283Y-036475
X028328Y-03282
X028378Y-03117
X028478Y-02827
X028643Y-03202
X028878Y-02832
X028878Y-03387
X028978Y-02387
X029078Y-02697
X029328Y-03527
X029428Y-02737
X029428Y-03007
X0295Y-022025
X029578Y-03277
X030078Y-03062
X030128Y-02962
X030228Y-03007
X030328Y-03182
X030378Y-03427
X03105Y-03645
X031278Y-02757
X031378Y-02827
X031528Y-03082
X031578Y-02657
X031828Y-02957
X031975Y-022025
X031978Y-02382
X032375Y-03645
X033028Y-02607
X033028Y-02667
X033028Y-02747
X033028Y-02807
X033028Y-02867
X033028Y-02927
X0331Y-02707
X0333Y-03705
X033578Y-02477
X033675Y-0222
X033778Y-03472
X033878Y-03122
X033878Y-03172
X033878Y-03222
X033878Y-03272
X034428Y-03272
X034478Y-03122
X034928Y-03012
X0352Y-0261
X035778Y-03462
X035828Y-03302
X036125Y-0235
X03625Y-037025
X036878Y-03482
X036978Y-03007
X037078Y-03122
X037078Y-03367
X038978Y-02497
X039Y-037025
X039028Y-02687
X039028Y-03277
X039028Y-03372
X039028Y-03497
X039042Y-031561
T2
X027128Y-02332
X034458Y-02477
T3
X023778Y-027609
X023778Y-02857
X023778Y-029531
T4
X0317Y-0333
X0317Y-0343
X0317Y-0353
X0317Y-0363
T5
X023928Y-03227
X023928Y-03327
X023928Y-03427
X026128Y-03307
X026835Y-033777
X027542Y-034484
X028249Y-035191
X028956Y-035899
X035128Y-03227
X035128Y-03327
X035128Y-03427
T0
M30
