G04 #@! TF.FileFunction,Legend,Bot*
%FSLAX46Y46*%
G04 Gerber Fmt 4.6, Leading zero omitted, Abs format (unit mm)*
G04 Created by KiCad (PCBNEW 4.0.6) date 03/12/17 16:14:44*
%MOMM*%
%LPD*%
G01*
G04 APERTURE LIST*
%ADD10C,0.100000*%
%ADD11C,0.150000*%
%ADD12C,0.120000*%
%ADD13C,0.050000*%
%ADD14C,2.600000*%
%ADD15C,2.400000*%
%ADD16C,1.900000*%
%ADD17R,1.150000X1.200000*%
%ADD18R,1.650000X1.400000*%
%ADD19R,1.200000X1.150000*%
%ADD20R,1.200000X1.200000*%
%ADD21R,2.100000X2.100000*%
%ADD22O,2.100000X2.100000*%
%ADD23C,3.600000*%
%ADD24R,2.300000X1.700000*%
%ADD25R,1.600000X1.100000*%
%ADD26R,1.600000X1.400000*%
%ADD27R,1.200000X1.400000*%
%ADD28R,3.200000X1.400000*%
G04 APERTURE END LIST*
D10*
D11*
X89224000Y-88506000D02*
X89224000Y-84556000D01*
X86224000Y-89006000D02*
X86224000Y-88506000D01*
X86224000Y-88506000D02*
X89224000Y-88506000D01*
X89224000Y-80506000D02*
X89224000Y-84556000D01*
X86224000Y-80006000D02*
X86224000Y-80506000D01*
X86224000Y-80506000D02*
X89224000Y-80506000D01*
X100024000Y-84506000D02*
X100024000Y-79506000D01*
X100024000Y-79506000D02*
X86224000Y-79506000D01*
X86224000Y-79506000D02*
X86224000Y-80006000D01*
X86224000Y-89506000D02*
X86224000Y-89006000D01*
X89224000Y-89506000D02*
X86224000Y-89506000D01*
X100024000Y-84506000D02*
X100024000Y-89506000D01*
X100024000Y-89506000D02*
X89224000Y-89506000D01*
X64125445Y-76378000D02*
X64832552Y-75670893D01*
X71444000Y-83696555D02*
X72204140Y-82936415D01*
X78762555Y-76378000D02*
X78002415Y-77138140D01*
X71444000Y-69059445D02*
X70683860Y-69819585D01*
X64125445Y-76378000D02*
X64885585Y-77138140D01*
X71444000Y-69059445D02*
X72204140Y-69819585D01*
X78762555Y-76378000D02*
X78002415Y-75617860D01*
X71444000Y-83696555D02*
X70683860Y-82936415D01*
X64832552Y-75670893D02*
X64107767Y-74946109D01*
D12*
X62920000Y-69443000D02*
G75*
G03X57870000Y-69443000I-2525000J0D01*
G01*
X62920000Y-75693000D02*
G75*
G02X57870000Y-75693000I-2525000J0D01*
G01*
X57870000Y-69443000D02*
X57870000Y-75693000D01*
X62920000Y-69443000D02*
X62920000Y-75693000D01*
X78945620Y-74305701D02*
X78238513Y-73598594D01*
X79440594Y-72396513D02*
X80147701Y-73103620D01*
X71606000Y-59721000D02*
X71606000Y-60421000D01*
X72806000Y-60421000D02*
X72806000Y-59721000D01*
X69578000Y-60749000D02*
X69578000Y-59749000D01*
X71278000Y-59749000D02*
X71278000Y-60749000D01*
X67456000Y-67656000D02*
X68156000Y-67656000D01*
X68156000Y-66456000D02*
X67456000Y-66456000D01*
X85336972Y-78794740D02*
X85336972Y-79794740D01*
X85336972Y-79794740D02*
X83236972Y-79794740D01*
X85336972Y-78794740D02*
X83236972Y-78794740D01*
X85336972Y-80064739D02*
X85336972Y-81064739D01*
X85336972Y-81064739D02*
X83236972Y-81064739D01*
X85336972Y-80064739D02*
X83236972Y-80064739D01*
X85336973Y-81334738D02*
X85336973Y-82334738D01*
X85336973Y-82334738D02*
X83236973Y-82334738D01*
X85336973Y-81334738D02*
X83236973Y-81334738D01*
X85336973Y-82604740D02*
X85336973Y-83604740D01*
X85336973Y-83604740D02*
X83236973Y-83604740D01*
X85336973Y-82604740D02*
X83236973Y-82604740D01*
D13*
X99800500Y-70296500D02*
X99800500Y-69296500D01*
X99800500Y-72296500D02*
X99800500Y-71296500D01*
X99800500Y-67296500D02*
X99800500Y-68296500D01*
X99800500Y-66296500D02*
X99800500Y-65296500D01*
X99800500Y-74296500D02*
X99800500Y-73296500D01*
X98400500Y-65296500D02*
X99800500Y-65296500D01*
X99800500Y-76296500D02*
X99800500Y-75296500D01*
X99800500Y-76296500D02*
X98400500Y-76296500D01*
X97050500Y-74496500D02*
X97400500Y-74146500D01*
X97050500Y-74346500D02*
X97250500Y-74146500D01*
X97050500Y-74996500D02*
X97900500Y-74146500D01*
X97050500Y-74846500D02*
X97750500Y-74146500D01*
X97050500Y-76496500D02*
X98400500Y-75146500D01*
X97050500Y-76346500D02*
X98400500Y-74996500D01*
X98200500Y-76846500D02*
X98400500Y-76646500D01*
X98050500Y-76846500D02*
X98400500Y-76496500D01*
X97700500Y-76846500D02*
X98400500Y-76146500D01*
X97550500Y-76846500D02*
X98400500Y-75996500D01*
X97200500Y-76846500D02*
X98400500Y-75646500D01*
X97050500Y-76846500D02*
X98400500Y-75496500D01*
X87350500Y-66146500D02*
X87700500Y-65796500D01*
X87350500Y-65996500D02*
X87550500Y-65796500D01*
X87350500Y-66646500D02*
X88200500Y-65796500D01*
X87350500Y-66496500D02*
X88050500Y-65796500D01*
X87350500Y-67146500D02*
X88700500Y-65796500D01*
X87350500Y-66996500D02*
X88550500Y-65796500D01*
X87350500Y-74146500D02*
X88950500Y-72546500D01*
X87350500Y-73996500D02*
X88950500Y-72396500D01*
X88850500Y-74496500D02*
X88950500Y-74396500D01*
X88950500Y-74046500D02*
X88500500Y-74496500D01*
X88350500Y-74496500D02*
X88950500Y-73896500D01*
X88950500Y-73546500D02*
X88000500Y-74496500D01*
X87850500Y-74496500D02*
X88950500Y-73396500D01*
X87500500Y-74496500D02*
X88950500Y-73046500D01*
X87350500Y-74496500D02*
X88950500Y-72896500D01*
X96150500Y-65796500D02*
X96250500Y-65696500D01*
X90800500Y-64746500D02*
X90850500Y-64696500D01*
X85950500Y-64746500D02*
X86000500Y-64696500D01*
X85450500Y-64746500D02*
X86000500Y-64196500D01*
X84950500Y-64746500D02*
X85700500Y-63996500D01*
X84450500Y-64746500D02*
X85200500Y-63996500D01*
X83950500Y-64746500D02*
X84700500Y-63996500D01*
X83450500Y-64746500D02*
X84200500Y-63996500D01*
X82950500Y-64746500D02*
X83700500Y-63996500D01*
X82800500Y-64396500D02*
X83200500Y-63996500D01*
X83050500Y-63996500D02*
X82800500Y-64246500D01*
X85800500Y-64746500D02*
X86000500Y-64546500D01*
X85300500Y-64746500D02*
X86000500Y-64046500D01*
X84800500Y-64746500D02*
X85550500Y-63996500D01*
X84300500Y-64746500D02*
X85050500Y-63996500D01*
X83800500Y-64746500D02*
X84550500Y-63996500D01*
X83300500Y-64746500D02*
X84050500Y-63996500D01*
X82800500Y-64746500D02*
X83550500Y-63996500D01*
X98400500Y-64296500D02*
X98400500Y-78146500D01*
X82250500Y-64296500D02*
X98400500Y-64296500D01*
X82250500Y-78146500D02*
X98400500Y-78146500D01*
X82250500Y-64296500D02*
X82250500Y-78146500D01*
X98400500Y-74146500D02*
X97050500Y-74146500D01*
X97050500Y-76846500D02*
X98400500Y-76846500D01*
X97050500Y-74146500D02*
X97050500Y-76846500D01*
X88950500Y-74496500D02*
X88950500Y-65796500D01*
X87350500Y-74496500D02*
X88950500Y-74496500D01*
X87350500Y-65796500D02*
X87350500Y-74496500D01*
X88950500Y-65796500D02*
X87350500Y-65796500D01*
X96250500Y-65096500D02*
X88650500Y-65096500D01*
X96250500Y-65796500D02*
X96250500Y-65096500D01*
X88650500Y-65796500D02*
X96250500Y-65796500D01*
X88650500Y-65096500D02*
X88650500Y-65796500D01*
X87300500Y-63996500D02*
X87300500Y-64746500D01*
X90850500Y-63996500D02*
X87300500Y-63996500D01*
X90850500Y-64746500D02*
X90850500Y-63996500D01*
X87300500Y-64746500D02*
X90850500Y-64746500D01*
X86000500Y-63996500D02*
X82800500Y-63996500D01*
X86000500Y-64746500D02*
X86000500Y-63996500D01*
X82800500Y-64746500D02*
X86000500Y-64746500D01*
X82800500Y-64746500D02*
X82800500Y-63996500D01*
X89450500Y-64746500D02*
X90200500Y-63996500D01*
X89300500Y-64746500D02*
X90050500Y-63996500D01*
X88950500Y-64746500D02*
X89700500Y-63996500D01*
X88800500Y-64746500D02*
X89550500Y-63996500D01*
X88300500Y-64746500D02*
X89050500Y-63996500D01*
X88450500Y-64746500D02*
X89200500Y-63996500D01*
X87950500Y-64746500D02*
X88700500Y-63996500D01*
X87800500Y-64746500D02*
X88550500Y-63996500D01*
X87450500Y-64746500D02*
X88200500Y-63996500D01*
X87300500Y-64746500D02*
X88050500Y-63996500D01*
X87550500Y-63996500D02*
X87300500Y-64246500D01*
X87300500Y-64396500D02*
X87700500Y-63996500D01*
X89800500Y-64746500D02*
X90550500Y-63996500D01*
X89950500Y-64746500D02*
X90700500Y-63996500D01*
X90300500Y-64746500D02*
X90850500Y-64196500D01*
X90450500Y-64746500D02*
X90850500Y-64346500D01*
X90800500Y-65796500D02*
X91500500Y-65096500D01*
X90650500Y-65796500D02*
X91350500Y-65096500D01*
X90300500Y-65796500D02*
X91000500Y-65096500D01*
X90150500Y-65796500D02*
X90850500Y-65096500D01*
X89650500Y-65796500D02*
X90350500Y-65096500D01*
X89800500Y-65796500D02*
X90500500Y-65096500D01*
X89300500Y-65796500D02*
X90000500Y-65096500D01*
X89150500Y-65796500D02*
X89850500Y-65096500D01*
X88800500Y-65796500D02*
X89500500Y-65096500D01*
X88650500Y-65796500D02*
X89350500Y-65096500D01*
X88850500Y-65096500D02*
X88650500Y-65296500D01*
X88650500Y-65446500D02*
X89000500Y-65096500D01*
X91150500Y-65796500D02*
X91850500Y-65096500D01*
X91300500Y-65796500D02*
X92000500Y-65096500D01*
X91650500Y-65796500D02*
X92350500Y-65096500D01*
X91800500Y-65796500D02*
X92500500Y-65096500D01*
X92300500Y-65796500D02*
X93000500Y-65096500D01*
X92150500Y-65796500D02*
X92850500Y-65096500D01*
X92650500Y-65796500D02*
X93350500Y-65096500D01*
X92800500Y-65796500D02*
X93500500Y-65096500D01*
X93150500Y-65796500D02*
X93850500Y-65096500D01*
X93300500Y-65796500D02*
X94000500Y-65096500D01*
X93650500Y-65796500D02*
X94350500Y-65096500D01*
X93800500Y-65796500D02*
X94500500Y-65096500D01*
X94150500Y-65796500D02*
X94850500Y-65096500D01*
X94300500Y-65796500D02*
X95000500Y-65096500D01*
X94650500Y-65796500D02*
X95350500Y-65096500D01*
X94800500Y-65796500D02*
X95500500Y-65096500D01*
X95150500Y-65796500D02*
X95850500Y-65096500D01*
X95300500Y-65796500D02*
X96000500Y-65096500D01*
X95650500Y-65796500D02*
X96250500Y-65196500D01*
X95800500Y-65796500D02*
X96250500Y-65346500D01*
X87350500Y-73646500D02*
X88950500Y-72046500D01*
X87350500Y-73496500D02*
X88950500Y-71896500D01*
X87350500Y-73146500D02*
X88950500Y-71546500D01*
X87350500Y-72996500D02*
X88950500Y-71396500D01*
X87350500Y-72646500D02*
X88950500Y-71046500D01*
X87350500Y-72496500D02*
X88950500Y-70896500D01*
X87350500Y-72146500D02*
X88950500Y-70546500D01*
X87350500Y-71996500D02*
X88950500Y-70396500D01*
X87350500Y-71646500D02*
X88950500Y-70046500D01*
X87350500Y-71496500D02*
X88950500Y-69896500D01*
X87350500Y-71146500D02*
X88950500Y-69546500D01*
X87350500Y-70996500D02*
X88950500Y-69396500D01*
X87350500Y-70646500D02*
X88950500Y-69046500D01*
X87350500Y-70496500D02*
X88950500Y-68896500D01*
X87350500Y-70146500D02*
X88950500Y-68546500D01*
X87350500Y-69996500D02*
X88950500Y-68396500D01*
X87350500Y-69646500D02*
X88950500Y-68046500D01*
X87350500Y-69496500D02*
X88950500Y-67896500D01*
X87350500Y-69146500D02*
X88950500Y-67546500D01*
X87350500Y-68996500D02*
X88950500Y-67396500D01*
X87350500Y-68646500D02*
X88950500Y-67046500D01*
X87350500Y-68496500D02*
X88950500Y-66896500D01*
X87350500Y-68146500D02*
X88950500Y-66546500D01*
X87350500Y-67996500D02*
X88950500Y-66396500D01*
X87350500Y-67646500D02*
X88950500Y-66046500D01*
X87350500Y-67496500D02*
X88950500Y-65896500D01*
X97050500Y-75846500D02*
X98400500Y-74496500D01*
X97050500Y-75996500D02*
X98400500Y-74646500D01*
X97050500Y-75346500D02*
X98250500Y-74146500D01*
X97050500Y-75496500D02*
X98400500Y-74146500D01*
X103800500Y-72296500D02*
X103800500Y-71296500D01*
X103800500Y-74296500D02*
X103800500Y-73296500D01*
X103800500Y-70296500D02*
X103800500Y-69296500D01*
X103800500Y-67296500D02*
X103800500Y-68296500D01*
X103800500Y-66296500D02*
X103800500Y-65296500D01*
X102800500Y-65296500D02*
X103800500Y-65296500D01*
X103800500Y-76296500D02*
X103800500Y-75296500D01*
X103800500Y-76296500D02*
X102800500Y-76296500D01*
X99000500Y-74296500D02*
X99000500Y-73296500D01*
X99000500Y-72296500D02*
X99000500Y-71296500D01*
X99000500Y-70296500D02*
X99000500Y-69296500D01*
X99000500Y-67296500D02*
X99000500Y-68296500D01*
X99000500Y-66296500D02*
X99000500Y-65296500D01*
X99000500Y-76296500D02*
X99000500Y-75296500D01*
D11*
X99233095Y-90800381D02*
X99233095Y-89800381D01*
X98852142Y-89800381D01*
X98756904Y-89848000D01*
X98709285Y-89895619D01*
X98661666Y-89990857D01*
X98661666Y-90133714D01*
X98709285Y-90228952D01*
X98756904Y-90276571D01*
X98852142Y-90324190D01*
X99233095Y-90324190D01*
X97709285Y-90800381D02*
X98280714Y-90800381D01*
X97995000Y-90800381D02*
X97995000Y-89800381D01*
X98090238Y-89943238D01*
X98185476Y-90038476D01*
X98280714Y-90086095D01*
X96518286Y-90752762D02*
X96375429Y-90800381D01*
X96137333Y-90800381D01*
X96042095Y-90752762D01*
X95994476Y-90705143D01*
X95946857Y-90609905D01*
X95946857Y-90514667D01*
X95994476Y-90419429D01*
X96042095Y-90371810D01*
X96137333Y-90324190D01*
X96327810Y-90276571D01*
X96423048Y-90228952D01*
X96470667Y-90181333D01*
X96518286Y-90086095D01*
X96518286Y-89990857D01*
X96470667Y-89895619D01*
X96423048Y-89848000D01*
X96327810Y-89800381D01*
X96089714Y-89800381D01*
X95946857Y-89848000D01*
X95613524Y-90133714D02*
X95423048Y-90800381D01*
X95232571Y-90324190D01*
X95042095Y-90800381D01*
X94851619Y-90133714D01*
X94470667Y-90800381D02*
X94470667Y-90133714D01*
X94470667Y-89800381D02*
X94518286Y-89848000D01*
X94470667Y-89895619D01*
X94423048Y-89848000D01*
X94470667Y-89800381D01*
X94470667Y-89895619D01*
X94137334Y-90133714D02*
X93756382Y-90133714D01*
X93994477Y-89800381D02*
X93994477Y-90657524D01*
X93946858Y-90752762D01*
X93851620Y-90800381D01*
X93756382Y-90800381D01*
X92994476Y-90752762D02*
X93089714Y-90800381D01*
X93280191Y-90800381D01*
X93375429Y-90752762D01*
X93423048Y-90705143D01*
X93470667Y-90609905D01*
X93470667Y-90324190D01*
X93423048Y-90228952D01*
X93375429Y-90181333D01*
X93280191Y-90133714D01*
X93089714Y-90133714D01*
X92994476Y-90181333D01*
X92565905Y-90800381D02*
X92565905Y-89800381D01*
X92137333Y-90800381D02*
X92137333Y-90276571D01*
X92184952Y-90181333D01*
X92280190Y-90133714D01*
X92423048Y-90133714D01*
X92518286Y-90181333D01*
X92565905Y-90228952D01*
X67278804Y-81620692D02*
X66706384Y-82193112D01*
X66605369Y-82226784D01*
X66538026Y-82226784D01*
X66437011Y-82193112D01*
X66302323Y-82058424D01*
X66268651Y-81957409D01*
X66268651Y-81890066D01*
X66302323Y-81789051D01*
X66874743Y-81216631D01*
X66504354Y-80980929D02*
X66504354Y-80913585D01*
X66470682Y-80812570D01*
X66302323Y-80644211D01*
X66201308Y-80610539D01*
X66133964Y-80610539D01*
X66032949Y-80644211D01*
X65965606Y-80711554D01*
X65898262Y-80846241D01*
X65898262Y-81654364D01*
X65460529Y-81216631D01*
X80211057Y-78343363D02*
X80143714Y-78478050D01*
X79975354Y-78646409D01*
X79874339Y-78680081D01*
X79806996Y-78680081D01*
X79705981Y-78646409D01*
X79638637Y-78579066D01*
X79604965Y-78478050D01*
X79604965Y-78410707D01*
X79638636Y-78309691D01*
X79739652Y-78141332D01*
X79773324Y-78040317D01*
X79773324Y-77972973D01*
X79739652Y-77871958D01*
X79672309Y-77804615D01*
X79571294Y-77770943D01*
X79503950Y-77770943D01*
X79402935Y-77804615D01*
X79234576Y-77972974D01*
X79167232Y-78107661D01*
X78931530Y-78276019D02*
X78527469Y-78680081D01*
X79436607Y-79185157D02*
X78729500Y-78478050D01*
X78998874Y-79622890D02*
X78291767Y-78915783D01*
X78561141Y-79656562D01*
X77820362Y-79387188D01*
X78527469Y-80094294D01*
X77550988Y-79656561D02*
X77113255Y-80094294D01*
X77618332Y-80127965D01*
X77517316Y-80228981D01*
X77483644Y-80329996D01*
X77483644Y-80397340D01*
X77517317Y-80498356D01*
X77685675Y-80666714D01*
X77786690Y-80700386D01*
X77854034Y-80700386D01*
X77955049Y-80666714D01*
X78157080Y-80464683D01*
X78190752Y-80363668D01*
X78190752Y-80296325D01*
X76911225Y-80431012D02*
X76843882Y-80431012D01*
X76742867Y-80464683D01*
X76574507Y-80633043D01*
X76540836Y-80734058D01*
X76540836Y-80801401D01*
X76574507Y-80902416D01*
X76641851Y-80969760D01*
X76776538Y-81037103D01*
X77584660Y-81037103D01*
X77146927Y-81474836D01*
X76237789Y-81643195D02*
X76473492Y-81407492D01*
X76843882Y-81777882D02*
X76136775Y-81070775D01*
X75800057Y-81407493D01*
X75463339Y-82215615D02*
X75934744Y-82687019D01*
X75362325Y-81777882D02*
X76035760Y-82114600D01*
X75598027Y-82552333D01*
X75631698Y-82990065D02*
X74789904Y-82889050D01*
X75160294Y-82518660D02*
X75261309Y-83360455D01*
X75059279Y-83562485D02*
X74217484Y-83461470D01*
X74587874Y-83091080D02*
X74688889Y-83932874D01*
X74015454Y-84606310D02*
X73914439Y-84033889D01*
X74419515Y-84202248D02*
X73712408Y-83495141D01*
X73443034Y-83764516D01*
X73409362Y-83865531D01*
X73409362Y-83932874D01*
X73443034Y-84033890D01*
X73544049Y-84134905D01*
X73645064Y-84168576D01*
X73712408Y-84168576D01*
X73813423Y-84134905D01*
X74082797Y-83865530D01*
X73779752Y-84842012D02*
X72937957Y-84740996D01*
X73308347Y-84370607D02*
X73409362Y-85212401D01*
X56846190Y-72091809D02*
X57322381Y-72091809D01*
X56322381Y-71758476D02*
X56846190Y-72091809D01*
X56322381Y-72425143D01*
X57322381Y-73282286D02*
X57322381Y-72710857D01*
X57322381Y-72996571D02*
X56322381Y-72996571D01*
X56465238Y-72901333D01*
X56560476Y-72806095D01*
X56608095Y-72710857D01*
X77151312Y-71795389D02*
X77151312Y-71862732D01*
X77218656Y-71997419D01*
X77285999Y-72064763D01*
X77420687Y-72132107D01*
X77555374Y-72132107D01*
X77656389Y-72098435D01*
X77824747Y-71997420D01*
X77925763Y-71896404D01*
X78026778Y-71728045D01*
X78060450Y-71627030D01*
X78060450Y-71492343D01*
X77993106Y-71357656D01*
X77925763Y-71290312D01*
X77791076Y-71222969D01*
X77723732Y-71222969D01*
X76949282Y-70785236D02*
X76477877Y-71256641D01*
X77387015Y-70684222D02*
X77050297Y-71357657D01*
X76612564Y-70919924D01*
X72563143Y-57288334D02*
X72610762Y-57240715D01*
X72658381Y-57097858D01*
X72658381Y-57002620D01*
X72610762Y-56859762D01*
X72515524Y-56764524D01*
X72420286Y-56716905D01*
X72229810Y-56669286D01*
X72086952Y-56669286D01*
X71896476Y-56716905D01*
X71801238Y-56764524D01*
X71706000Y-56859762D01*
X71658381Y-57002620D01*
X71658381Y-57097858D01*
X71706000Y-57240715D01*
X71753619Y-57288334D01*
X71658381Y-57621667D02*
X71658381Y-58288334D01*
X72658381Y-57859762D01*
X70785143Y-57288334D02*
X70832762Y-57240715D01*
X70880381Y-57097858D01*
X70880381Y-57002620D01*
X70832762Y-56859762D01*
X70737524Y-56764524D01*
X70642286Y-56716905D01*
X70451810Y-56669286D01*
X70308952Y-56669286D01*
X70118476Y-56716905D01*
X70023238Y-56764524D01*
X69928000Y-56859762D01*
X69880381Y-57002620D01*
X69880381Y-57097858D01*
X69928000Y-57240715D01*
X69975619Y-57288334D01*
X70308952Y-57859762D02*
X70261333Y-57764524D01*
X70213714Y-57716905D01*
X70118476Y-57669286D01*
X70070857Y-57669286D01*
X69975619Y-57716905D01*
X69928000Y-57764524D01*
X69880381Y-57859762D01*
X69880381Y-58050239D01*
X69928000Y-58145477D01*
X69975619Y-58193096D01*
X70070857Y-58240715D01*
X70118476Y-58240715D01*
X70213714Y-58193096D01*
X70261333Y-58145477D01*
X70308952Y-58050239D01*
X70308952Y-57859762D01*
X70356571Y-57764524D01*
X70404190Y-57716905D01*
X70499429Y-57669286D01*
X70689905Y-57669286D01*
X70785143Y-57716905D01*
X70832762Y-57764524D01*
X70880381Y-57859762D01*
X70880381Y-58050239D01*
X70832762Y-58145477D01*
X70785143Y-58193096D01*
X70689905Y-58240715D01*
X70499429Y-58240715D01*
X70404190Y-58193096D01*
X70356571Y-58145477D01*
X70308952Y-58050239D01*
X65432666Y-67413143D02*
X65480285Y-67460762D01*
X65623142Y-67508381D01*
X65718380Y-67508381D01*
X65861238Y-67460762D01*
X65956476Y-67365524D01*
X66004095Y-67270286D01*
X66051714Y-67079810D01*
X66051714Y-66936952D01*
X66004095Y-66746476D01*
X65956476Y-66651238D01*
X65861238Y-66556000D01*
X65718380Y-66508381D01*
X65623142Y-66508381D01*
X65480285Y-66556000D01*
X65432666Y-66603619D01*
X64956476Y-67508381D02*
X64766000Y-67508381D01*
X64670761Y-67460762D01*
X64623142Y-67413143D01*
X64527904Y-67270286D01*
X64480285Y-67079810D01*
X64480285Y-66698857D01*
X64527904Y-66603619D01*
X64575523Y-66556000D01*
X64670761Y-66508381D01*
X64861238Y-66508381D01*
X64956476Y-66556000D01*
X65004095Y-66603619D01*
X65051714Y-66698857D01*
X65051714Y-66936952D01*
X65004095Y-67032190D01*
X64956476Y-67079810D01*
X64861238Y-67127429D01*
X64670761Y-67127429D01*
X64575523Y-67079810D01*
X64527904Y-67032190D01*
X64480285Y-66936952D01*
X82235067Y-79747121D02*
X82235067Y-78747121D01*
X81996972Y-78747121D01*
X81854114Y-78794740D01*
X81758876Y-78889978D01*
X81711257Y-78985216D01*
X81663638Y-79175692D01*
X81663638Y-79318550D01*
X81711257Y-79509026D01*
X81758876Y-79604264D01*
X81854114Y-79699502D01*
X81996972Y-79747121D01*
X82235067Y-79747121D01*
X81282686Y-78842359D02*
X81235067Y-78794740D01*
X81139829Y-78747121D01*
X80901733Y-78747121D01*
X80806495Y-78794740D01*
X80758876Y-78842359D01*
X80711257Y-78937597D01*
X80711257Y-79032835D01*
X80758876Y-79175692D01*
X81330305Y-79747121D01*
X80711257Y-79747121D01*
X82235067Y-81017120D02*
X82235067Y-80017120D01*
X81996972Y-80017120D01*
X81854114Y-80064739D01*
X81758876Y-80159977D01*
X81711257Y-80255215D01*
X81663638Y-80445691D01*
X81663638Y-80588549D01*
X81711257Y-80779025D01*
X81758876Y-80874263D01*
X81854114Y-80969501D01*
X81996972Y-81017120D01*
X82235067Y-81017120D01*
X81330305Y-80017120D02*
X80711257Y-80017120D01*
X81044591Y-80398072D01*
X80901733Y-80398072D01*
X80806495Y-80445691D01*
X80758876Y-80493310D01*
X80711257Y-80588549D01*
X80711257Y-80826644D01*
X80758876Y-80921882D01*
X80806495Y-80969501D01*
X80901733Y-81017120D01*
X81187448Y-81017120D01*
X81282686Y-80969501D01*
X81330305Y-80921882D01*
X82235068Y-82287119D02*
X82235068Y-81287119D01*
X81996973Y-81287119D01*
X81854115Y-81334738D01*
X81758877Y-81429976D01*
X81711258Y-81525214D01*
X81663639Y-81715690D01*
X81663639Y-81858548D01*
X81711258Y-82049024D01*
X81758877Y-82144262D01*
X81854115Y-82239500D01*
X81996973Y-82287119D01*
X82235068Y-82287119D01*
X80806496Y-81620452D02*
X80806496Y-82287119D01*
X81044592Y-81239500D02*
X81282687Y-81953786D01*
X80663639Y-81953786D01*
X82235068Y-83557121D02*
X82235068Y-82557121D01*
X81996973Y-82557121D01*
X81854115Y-82604740D01*
X81758877Y-82699978D01*
X81711258Y-82795216D01*
X81663639Y-82985692D01*
X81663639Y-83128550D01*
X81711258Y-83319026D01*
X81758877Y-83414264D01*
X81854115Y-83509502D01*
X81996973Y-83557121D01*
X82235068Y-83557121D01*
X80758877Y-82557121D02*
X81235068Y-82557121D01*
X81282687Y-83033311D01*
X81235068Y-82985692D01*
X81139830Y-82938073D01*
X80901734Y-82938073D01*
X80806496Y-82985692D01*
X80758877Y-83033311D01*
X80711258Y-83128550D01*
X80711258Y-83366645D01*
X80758877Y-83461883D01*
X80806496Y-83509502D01*
X80901734Y-83557121D01*
X81139830Y-83557121D01*
X81235068Y-83509502D01*
X81282687Y-83461883D01*
X97931285Y-63400143D02*
X97978904Y-63447762D01*
X98121761Y-63495381D01*
X98216999Y-63495381D01*
X98359857Y-63447762D01*
X98455095Y-63352524D01*
X98502714Y-63257286D01*
X98550333Y-63066810D01*
X98550333Y-62923952D01*
X98502714Y-62733476D01*
X98455095Y-62638238D01*
X98359857Y-62543000D01*
X98216999Y-62495381D01*
X98121761Y-62495381D01*
X97978904Y-62543000D01*
X97931285Y-62590619D01*
X97312238Y-62495381D02*
X97121761Y-62495381D01*
X97026523Y-62543000D01*
X96931285Y-62638238D01*
X96883666Y-62828714D01*
X96883666Y-63162048D01*
X96931285Y-63352524D01*
X97026523Y-63447762D01*
X97121761Y-63495381D01*
X97312238Y-63495381D01*
X97407476Y-63447762D01*
X97502714Y-63352524D01*
X97550333Y-63162048D01*
X97550333Y-62828714D01*
X97502714Y-62638238D01*
X97407476Y-62543000D01*
X97312238Y-62495381D01*
X96455095Y-63495381D02*
X96455095Y-62495381D01*
X95883666Y-63495381D01*
X95883666Y-62495381D01*
X94883666Y-63495381D02*
X95455095Y-63495381D01*
X95169381Y-63495381D02*
X95169381Y-62495381D01*
X95264619Y-62638238D01*
X95359857Y-62733476D01*
X95455095Y-62781095D01*
X94009953Y-63447762D02*
X93867096Y-63495381D01*
X93629000Y-63495381D01*
X93533762Y-63447762D01*
X93486143Y-63400143D01*
X93438524Y-63304905D01*
X93438524Y-63209667D01*
X93486143Y-63114429D01*
X93533762Y-63066810D01*
X93629000Y-63019190D01*
X93819477Y-62971571D01*
X93914715Y-62923952D01*
X93962334Y-62876333D01*
X94009953Y-62781095D01*
X94009953Y-62685857D01*
X93962334Y-62590619D01*
X93914715Y-62543000D01*
X93819477Y-62495381D01*
X93581381Y-62495381D01*
X93438524Y-62543000D01*
X93009953Y-63495381D02*
X93009953Y-62495381D01*
X92771858Y-62495381D01*
X92629000Y-62543000D01*
X92533762Y-62638238D01*
X92486143Y-62733476D01*
X92438524Y-62923952D01*
X92438524Y-63066810D01*
X92486143Y-63257286D01*
X92533762Y-63352524D01*
X92629000Y-63447762D01*
X92771858Y-63495381D01*
X93009953Y-63495381D01*
X92248048Y-63590619D02*
X91486143Y-63590619D01*
X90676619Y-63400143D02*
X90724238Y-63447762D01*
X90867095Y-63495381D01*
X90962333Y-63495381D01*
X91105191Y-63447762D01*
X91200429Y-63352524D01*
X91248048Y-63257286D01*
X91295667Y-63066810D01*
X91295667Y-62923952D01*
X91248048Y-62733476D01*
X91200429Y-62638238D01*
X91105191Y-62543000D01*
X90962333Y-62495381D01*
X90867095Y-62495381D01*
X90724238Y-62543000D01*
X90676619Y-62590619D01*
X89819476Y-63495381D02*
X89819476Y-62971571D01*
X89867095Y-62876333D01*
X89962333Y-62828714D01*
X90152810Y-62828714D01*
X90248048Y-62876333D01*
X89819476Y-63447762D02*
X89914714Y-63495381D01*
X90152810Y-63495381D01*
X90248048Y-63447762D01*
X90295667Y-63352524D01*
X90295667Y-63257286D01*
X90248048Y-63162048D01*
X90152810Y-63114429D01*
X89914714Y-63114429D01*
X89819476Y-63066810D01*
X89343286Y-63495381D02*
X89343286Y-62828714D01*
X89343286Y-63019190D02*
X89295667Y-62923952D01*
X89248048Y-62876333D01*
X89152810Y-62828714D01*
X89057571Y-62828714D01*
X88295666Y-63495381D02*
X88295666Y-62495381D01*
X88295666Y-63447762D02*
X88390904Y-63495381D01*
X88581381Y-63495381D01*
X88676619Y-63447762D01*
X88724238Y-63400143D01*
X88771857Y-63304905D01*
X88771857Y-63019190D01*
X88724238Y-62923952D01*
X88676619Y-62876333D01*
X88581381Y-62828714D01*
X88390904Y-62828714D01*
X88295666Y-62876333D01*
%LPC*%
D14*
X95000000Y-92000000D03*
D15*
X89224000Y-87046000D03*
X89224000Y-84506000D03*
X89224000Y-81966000D03*
X60776000Y-87046000D03*
X60776000Y-84506000D03*
X60776000Y-81966000D03*
D10*
G36*
X64037057Y-74733977D02*
X64496676Y-74274358D01*
X65486625Y-75264307D01*
X65027006Y-75723926D01*
X64037057Y-74733977D01*
X64037057Y-74733977D01*
G37*
G36*
X64390610Y-74380423D02*
X64850229Y-73920804D01*
X65840178Y-74910753D01*
X65380559Y-75370372D01*
X64390610Y-74380423D01*
X64390610Y-74380423D01*
G37*
G36*
X64744164Y-74026870D02*
X65203783Y-73567251D01*
X66193732Y-74557200D01*
X65734113Y-75016819D01*
X64744164Y-74026870D01*
X64744164Y-74026870D01*
G37*
G36*
X65097717Y-73673317D02*
X65557336Y-73213698D01*
X66547285Y-74203647D01*
X66087666Y-74663266D01*
X65097717Y-73673317D01*
X65097717Y-73673317D01*
G37*
G36*
X65451270Y-73319763D02*
X65910889Y-72860144D01*
X66900838Y-73850093D01*
X66441219Y-74309712D01*
X65451270Y-73319763D01*
X65451270Y-73319763D01*
G37*
G36*
X65804824Y-72966210D02*
X66264443Y-72506591D01*
X67254392Y-73496540D01*
X66794773Y-73956159D01*
X65804824Y-72966210D01*
X65804824Y-72966210D01*
G37*
G36*
X66158377Y-72612656D02*
X66617996Y-72153037D01*
X67607945Y-73142986D01*
X67148326Y-73602605D01*
X66158377Y-72612656D01*
X66158377Y-72612656D01*
G37*
G36*
X66511931Y-72259103D02*
X66971550Y-71799484D01*
X67961499Y-72789433D01*
X67501880Y-73249052D01*
X66511931Y-72259103D01*
X66511931Y-72259103D01*
G37*
G36*
X66865484Y-71905550D02*
X67325103Y-71445931D01*
X68315052Y-72435880D01*
X67855433Y-72895499D01*
X66865484Y-71905550D01*
X66865484Y-71905550D01*
G37*
G36*
X67219037Y-71551996D02*
X67678656Y-71092377D01*
X68668605Y-72082326D01*
X68208986Y-72541945D01*
X67219037Y-71551996D01*
X67219037Y-71551996D01*
G37*
G36*
X67572591Y-71198443D02*
X68032210Y-70738824D01*
X69022159Y-71728773D01*
X68562540Y-72188392D01*
X67572591Y-71198443D01*
X67572591Y-71198443D01*
G37*
G36*
X67926144Y-70844889D02*
X68385763Y-70385270D01*
X69375712Y-71375219D01*
X68916093Y-71834838D01*
X67926144Y-70844889D01*
X67926144Y-70844889D01*
G37*
G36*
X68279698Y-70491336D02*
X68739317Y-70031717D01*
X69729266Y-71021666D01*
X69269647Y-71481285D01*
X68279698Y-70491336D01*
X68279698Y-70491336D01*
G37*
G36*
X68633251Y-70137783D02*
X69092870Y-69678164D01*
X70082819Y-70668113D01*
X69623200Y-71127732D01*
X68633251Y-70137783D01*
X68633251Y-70137783D01*
G37*
G36*
X68986804Y-69784229D02*
X69446423Y-69324610D01*
X70436372Y-70314559D01*
X69976753Y-70774178D01*
X68986804Y-69784229D01*
X68986804Y-69784229D01*
G37*
G36*
X69340358Y-69430676D02*
X69799977Y-68971057D01*
X70789926Y-69961006D01*
X70330307Y-70420625D01*
X69340358Y-69430676D01*
X69340358Y-69430676D01*
G37*
G36*
X73088023Y-68971057D02*
X73547642Y-69430676D01*
X72557693Y-70420625D01*
X72098074Y-69961006D01*
X73088023Y-68971057D01*
X73088023Y-68971057D01*
G37*
G36*
X73441577Y-69324610D02*
X73901196Y-69784229D01*
X72911247Y-70774178D01*
X72451628Y-70314559D01*
X73441577Y-69324610D01*
X73441577Y-69324610D01*
G37*
G36*
X73795130Y-69678164D02*
X74254749Y-70137783D01*
X73264800Y-71127732D01*
X72805181Y-70668113D01*
X73795130Y-69678164D01*
X73795130Y-69678164D01*
G37*
G36*
X74148683Y-70031717D02*
X74608302Y-70491336D01*
X73618353Y-71481285D01*
X73158734Y-71021666D01*
X74148683Y-70031717D01*
X74148683Y-70031717D01*
G37*
G36*
X74502237Y-70385270D02*
X74961856Y-70844889D01*
X73971907Y-71834838D01*
X73512288Y-71375219D01*
X74502237Y-70385270D01*
X74502237Y-70385270D01*
G37*
G36*
X74855790Y-70738824D02*
X75315409Y-71198443D01*
X74325460Y-72188392D01*
X73865841Y-71728773D01*
X74855790Y-70738824D01*
X74855790Y-70738824D01*
G37*
G36*
X75209344Y-71092377D02*
X75668963Y-71551996D01*
X74679014Y-72541945D01*
X74219395Y-72082326D01*
X75209344Y-71092377D01*
X75209344Y-71092377D01*
G37*
G36*
X75562897Y-71445931D02*
X76022516Y-71905550D01*
X75032567Y-72895499D01*
X74572948Y-72435880D01*
X75562897Y-71445931D01*
X75562897Y-71445931D01*
G37*
G36*
X75916450Y-71799484D02*
X76376069Y-72259103D01*
X75386120Y-73249052D01*
X74926501Y-72789433D01*
X75916450Y-71799484D01*
X75916450Y-71799484D01*
G37*
G36*
X76270004Y-72153037D02*
X76729623Y-72612656D01*
X75739674Y-73602605D01*
X75280055Y-73142986D01*
X76270004Y-72153037D01*
X76270004Y-72153037D01*
G37*
G36*
X76623557Y-72506591D02*
X77083176Y-72966210D01*
X76093227Y-73956159D01*
X75633608Y-73496540D01*
X76623557Y-72506591D01*
X76623557Y-72506591D01*
G37*
G36*
X76977111Y-72860144D02*
X77436730Y-73319763D01*
X76446781Y-74309712D01*
X75987162Y-73850093D01*
X76977111Y-72860144D01*
X76977111Y-72860144D01*
G37*
G36*
X77330664Y-73213698D02*
X77790283Y-73673317D01*
X76800334Y-74663266D01*
X76340715Y-74203647D01*
X77330664Y-73213698D01*
X77330664Y-73213698D01*
G37*
G36*
X77684217Y-73567251D02*
X78143836Y-74026870D01*
X77153887Y-75016819D01*
X76694268Y-74557200D01*
X77684217Y-73567251D01*
X77684217Y-73567251D01*
G37*
G36*
X78037771Y-73920804D02*
X78497390Y-74380423D01*
X77507441Y-75370372D01*
X77047822Y-74910753D01*
X78037771Y-73920804D01*
X78037771Y-73920804D01*
G37*
G36*
X78391324Y-74274358D02*
X78850943Y-74733977D01*
X77860994Y-75723926D01*
X77401375Y-75264307D01*
X78391324Y-74274358D01*
X78391324Y-74274358D01*
G37*
G36*
X77401375Y-77491693D02*
X77860994Y-77032074D01*
X78850943Y-78022023D01*
X78391324Y-78481642D01*
X77401375Y-77491693D01*
X77401375Y-77491693D01*
G37*
G36*
X77047822Y-77845247D02*
X77507441Y-77385628D01*
X78497390Y-78375577D01*
X78037771Y-78835196D01*
X77047822Y-77845247D01*
X77047822Y-77845247D01*
G37*
G36*
X76694268Y-78198800D02*
X77153887Y-77739181D01*
X78143836Y-78729130D01*
X77684217Y-79188749D01*
X76694268Y-78198800D01*
X76694268Y-78198800D01*
G37*
G36*
X76340715Y-78552353D02*
X76800334Y-78092734D01*
X77790283Y-79082683D01*
X77330664Y-79542302D01*
X76340715Y-78552353D01*
X76340715Y-78552353D01*
G37*
G36*
X75987162Y-78905907D02*
X76446781Y-78446288D01*
X77436730Y-79436237D01*
X76977111Y-79895856D01*
X75987162Y-78905907D01*
X75987162Y-78905907D01*
G37*
G36*
X75633608Y-79259460D02*
X76093227Y-78799841D01*
X77083176Y-79789790D01*
X76623557Y-80249409D01*
X75633608Y-79259460D01*
X75633608Y-79259460D01*
G37*
G36*
X75280055Y-79613014D02*
X75739674Y-79153395D01*
X76729623Y-80143344D01*
X76270004Y-80602963D01*
X75280055Y-79613014D01*
X75280055Y-79613014D01*
G37*
G36*
X74926501Y-79966567D02*
X75386120Y-79506948D01*
X76376069Y-80496897D01*
X75916450Y-80956516D01*
X74926501Y-79966567D01*
X74926501Y-79966567D01*
G37*
G36*
X74572948Y-80320120D02*
X75032567Y-79860501D01*
X76022516Y-80850450D01*
X75562897Y-81310069D01*
X74572948Y-80320120D01*
X74572948Y-80320120D01*
G37*
G36*
X74219395Y-80673674D02*
X74679014Y-80214055D01*
X75668963Y-81204004D01*
X75209344Y-81663623D01*
X74219395Y-80673674D01*
X74219395Y-80673674D01*
G37*
G36*
X73865841Y-81027227D02*
X74325460Y-80567608D01*
X75315409Y-81557557D01*
X74855790Y-82017176D01*
X73865841Y-81027227D01*
X73865841Y-81027227D01*
G37*
G36*
X73512288Y-81380781D02*
X73971907Y-80921162D01*
X74961856Y-81911111D01*
X74502237Y-82370730D01*
X73512288Y-81380781D01*
X73512288Y-81380781D01*
G37*
G36*
X73158734Y-81734334D02*
X73618353Y-81274715D01*
X74608302Y-82264664D01*
X74148683Y-82724283D01*
X73158734Y-81734334D01*
X73158734Y-81734334D01*
G37*
G36*
X72805181Y-82087887D02*
X73264800Y-81628268D01*
X74254749Y-82618217D01*
X73795130Y-83077836D01*
X72805181Y-82087887D01*
X72805181Y-82087887D01*
G37*
G36*
X72451628Y-82441441D02*
X72911247Y-81981822D01*
X73901196Y-82971771D01*
X73441577Y-83431390D01*
X72451628Y-82441441D01*
X72451628Y-82441441D01*
G37*
G36*
X72098074Y-82794994D02*
X72557693Y-82335375D01*
X73547642Y-83325324D01*
X73088023Y-83784943D01*
X72098074Y-82794994D01*
X72098074Y-82794994D01*
G37*
G36*
X70330307Y-82335375D02*
X70789926Y-82794994D01*
X69799977Y-83784943D01*
X69340358Y-83325324D01*
X70330307Y-82335375D01*
X70330307Y-82335375D01*
G37*
G36*
X69976753Y-81981822D02*
X70436372Y-82441441D01*
X69446423Y-83431390D01*
X68986804Y-82971771D01*
X69976753Y-81981822D01*
X69976753Y-81981822D01*
G37*
G36*
X69623200Y-81628268D02*
X70082819Y-82087887D01*
X69092870Y-83077836D01*
X68633251Y-82618217D01*
X69623200Y-81628268D01*
X69623200Y-81628268D01*
G37*
G36*
X69269647Y-81274715D02*
X69729266Y-81734334D01*
X68739317Y-82724283D01*
X68279698Y-82264664D01*
X69269647Y-81274715D01*
X69269647Y-81274715D01*
G37*
G36*
X68916093Y-80921162D02*
X69375712Y-81380781D01*
X68385763Y-82370730D01*
X67926144Y-81911111D01*
X68916093Y-80921162D01*
X68916093Y-80921162D01*
G37*
G36*
X68562540Y-80567608D02*
X69022159Y-81027227D01*
X68032210Y-82017176D01*
X67572591Y-81557557D01*
X68562540Y-80567608D01*
X68562540Y-80567608D01*
G37*
G36*
X68208986Y-80214055D02*
X68668605Y-80673674D01*
X67678656Y-81663623D01*
X67219037Y-81204004D01*
X68208986Y-80214055D01*
X68208986Y-80214055D01*
G37*
G36*
X67855433Y-79860501D02*
X68315052Y-80320120D01*
X67325103Y-81310069D01*
X66865484Y-80850450D01*
X67855433Y-79860501D01*
X67855433Y-79860501D01*
G37*
G36*
X67501880Y-79506948D02*
X67961499Y-79966567D01*
X66971550Y-80956516D01*
X66511931Y-80496897D01*
X67501880Y-79506948D01*
X67501880Y-79506948D01*
G37*
G36*
X67148326Y-79153395D02*
X67607945Y-79613014D01*
X66617996Y-80602963D01*
X66158377Y-80143344D01*
X67148326Y-79153395D01*
X67148326Y-79153395D01*
G37*
G36*
X66794773Y-78799841D02*
X67254392Y-79259460D01*
X66264443Y-80249409D01*
X65804824Y-79789790D01*
X66794773Y-78799841D01*
X66794773Y-78799841D01*
G37*
G36*
X66441219Y-78446288D02*
X66900838Y-78905907D01*
X65910889Y-79895856D01*
X65451270Y-79436237D01*
X66441219Y-78446288D01*
X66441219Y-78446288D01*
G37*
G36*
X66087666Y-78092734D02*
X66547285Y-78552353D01*
X65557336Y-79542302D01*
X65097717Y-79082683D01*
X66087666Y-78092734D01*
X66087666Y-78092734D01*
G37*
G36*
X65734113Y-77739181D02*
X66193732Y-78198800D01*
X65203783Y-79188749D01*
X64744164Y-78729130D01*
X65734113Y-77739181D01*
X65734113Y-77739181D01*
G37*
G36*
X65380559Y-77385628D02*
X65840178Y-77845247D01*
X64850229Y-78835196D01*
X64390610Y-78375577D01*
X65380559Y-77385628D01*
X65380559Y-77385628D01*
G37*
G36*
X65027006Y-77032074D02*
X65486625Y-77491693D01*
X64496676Y-78481642D01*
X64037057Y-78022023D01*
X65027006Y-77032074D01*
X65027006Y-77032074D01*
G37*
D16*
X60395000Y-70128000D03*
X60395000Y-72568000D03*
X60395000Y-75008000D03*
D10*
G36*
X77407662Y-72732388D02*
X78574388Y-71565662D01*
X79564338Y-72555612D01*
X78397612Y-73722338D01*
X77407662Y-72732388D01*
X77407662Y-72732388D01*
G37*
G36*
X78821876Y-74146602D02*
X79988602Y-72979876D01*
X80978552Y-73969826D01*
X79811826Y-75136552D01*
X78821876Y-74146602D01*
X78821876Y-74146602D01*
G37*
D17*
X72206000Y-59321000D03*
X72206000Y-60821000D03*
D18*
X70428000Y-59249000D03*
X70428000Y-61249000D03*
D19*
X67056000Y-67056000D03*
X68556000Y-67056000D03*
D20*
X83236972Y-79294740D03*
X84836972Y-79294740D03*
X83236972Y-80564739D03*
X84836972Y-80564739D03*
X83236973Y-81834738D03*
X84836973Y-81834738D03*
X83236973Y-83104740D03*
X84836973Y-83104740D03*
D21*
X80518000Y-84582000D03*
D22*
X80518000Y-87122000D03*
X80518000Y-89662000D03*
X80518000Y-92202000D03*
D15*
X66364000Y-83998000D03*
X68160051Y-85794051D03*
X69956102Y-87590102D03*
X71752153Y-89386153D03*
X73548204Y-91182204D03*
D23*
X107000000Y-92000000D03*
D24*
X97450500Y-77896500D03*
D25*
X82350500Y-73996500D03*
X82350500Y-72896500D03*
X82350500Y-71796500D03*
X82350500Y-70696500D03*
X82350500Y-69596500D03*
X82350500Y-68496500D03*
X82350500Y-67396500D03*
X82350500Y-66296500D03*
X82350500Y-65346500D03*
D26*
X82350500Y-75546500D03*
X86650500Y-64396500D03*
D27*
X92850500Y-64396500D03*
D28*
X97000500Y-64396500D03*
D14*
X55000000Y-92000000D03*
M02*
