G04 #@! TF.FileFunction,Soldermask,Top*
%FSLAX46Y46*%
G04 Gerber Fmt 4.6, Leading zero omitted, Abs format (unit mm)*
G04 Created by KiCad (PCBNEW 4.0.6) date 03/12/17 16:14:44*
%MOMM*%
%LPD*%
G01*
G04 APERTURE LIST*
%ADD10C,0.100000*%
%ADD11C,2.600000*%
%ADD12R,1.650000X1.400000*%
%ADD13R,1.400000X1.650000*%
%ADD14R,1.150000X1.200000*%
%ADD15C,2.400000*%
%ADD16R,1.600000X1.300000*%
%ADD17R,1.000000X1.950000*%
%ADD18C,1.900000*%
%ADD19R,1.200000X1.200000*%
%ADD20R,2.100000X2.100000*%
%ADD21O,2.100000X2.100000*%
%ADD22C,3.600000*%
%ADD23R,2.940000X1.920000*%
%ADD24R,1.924000X1.924000*%
G04 APERTURE END LIST*
D10*
D11*
X95000000Y-92000000D03*
D12*
X92526000Y-87030000D03*
X92526000Y-85030000D03*
X86938000Y-84760000D03*
X86938000Y-86760000D03*
D13*
X97574000Y-79680000D03*
X95574000Y-79680000D03*
D14*
X56839000Y-70294000D03*
X56839000Y-71794000D03*
X56839000Y-74842000D03*
X56839000Y-73342000D03*
D15*
X89224000Y-87046000D03*
X89224000Y-84506000D03*
X89224000Y-81966000D03*
X60776000Y-87046000D03*
X60776000Y-84506000D03*
X60776000Y-81966000D03*
D16*
X94912000Y-74295000D03*
X97112000Y-74295000D03*
X85136972Y-79294740D03*
X82936972Y-79294740D03*
X85136972Y-80564739D03*
X82936972Y-80564739D03*
X85136973Y-81834738D03*
X82936973Y-81834738D03*
X85136973Y-83104740D03*
X82936973Y-83104740D03*
D17*
X98495000Y-81806000D03*
X97225000Y-81806000D03*
X95955000Y-81806000D03*
X94685000Y-81806000D03*
X94685000Y-87206000D03*
X95955000Y-87206000D03*
X97225000Y-87206000D03*
X98495000Y-87206000D03*
D18*
X60395000Y-70128000D03*
X60395000Y-72568000D03*
X60395000Y-75008000D03*
D13*
X87430000Y-75870000D03*
X85430000Y-75870000D03*
D19*
X96812000Y-75946000D03*
X95212000Y-75946000D03*
D20*
X80518000Y-84582000D03*
D21*
X80518000Y-87122000D03*
X80518000Y-89662000D03*
X80518000Y-92202000D03*
D15*
X66364000Y-83998000D03*
X68160051Y-85794051D03*
X69956102Y-87590102D03*
X71752153Y-89386153D03*
X73548204Y-91182204D03*
D16*
X87530000Y-66218000D03*
X85330000Y-66218000D03*
X87530000Y-67742000D03*
X85330000Y-67742000D03*
X87530000Y-71298000D03*
X85330000Y-71298000D03*
X87530000Y-72822000D03*
X85330000Y-72822000D03*
X87530000Y-74346000D03*
X85330000Y-74346000D03*
D22*
X107000000Y-92000000D03*
D23*
X66620000Y-56439000D03*
X66618000Y-58979000D03*
X66618000Y-61519000D03*
X66618000Y-64059000D03*
X83378000Y-61519000D03*
X83380000Y-56439000D03*
X83378000Y-58979000D03*
X83378000Y-64059000D03*
D24*
X84398000Y-84836200D03*
X84398000Y-86715800D03*
D11*
X55000000Y-92000000D03*
M02*
