G04 #@! TF.FileFunction,Copper,L1,Top,Signal*
%FSLAX46Y46*%
G04 Gerber Fmt 4.6, Leading zero omitted, Abs format (unit mm)*
G04 Created by KiCad (PCBNEW 4.0.6) date 03/12/17 16:14:44*
%MOMM*%
%LPD*%
G01*
G04 APERTURE LIST*
%ADD10C,0.100000*%
%ADD11R,1.250000X1.000000*%
%ADD12R,1.000000X1.250000*%
%ADD13R,0.750000X0.800000*%
%ADD14C,2.000000*%
%ADD15R,1.200000X0.900000*%
%ADD16R,0.600000X1.550000*%
%ADD17C,1.500000*%
%ADD18R,0.800000X0.800000*%
%ADD19R,1.700000X1.700000*%
%ADD20O,1.700000X1.700000*%
%ADD21R,2.540000X1.520000*%
%ADD22R,1.524000X1.524000*%
%ADD23C,0.600000*%
%ADD24C,0.800000*%
%ADD25C,0.250000*%
%ADD26C,0.400000*%
%ADD27C,1.000000*%
%ADD28C,0.300000*%
%ADD29C,0.800000*%
%ADD30C,0.600000*%
%ADD31C,0.500000*%
%ADD32C,0.254000*%
G04 APERTURE END LIST*
D10*
D11*
X92526000Y-87030000D03*
X92526000Y-85030000D03*
X86938000Y-84760000D03*
X86938000Y-86760000D03*
D12*
X97574000Y-79680000D03*
X95574000Y-79680000D03*
D13*
X56839000Y-70294000D03*
X56839000Y-71794000D03*
X56839000Y-74842000D03*
X56839000Y-73342000D03*
D14*
X89224000Y-87046000D03*
X89224000Y-84506000D03*
X89224000Y-81966000D03*
X60776000Y-87046000D03*
X60776000Y-84506000D03*
X60776000Y-81966000D03*
D15*
X94912000Y-74295000D03*
X97112000Y-74295000D03*
X85136972Y-79294740D03*
X82936972Y-79294740D03*
X85136972Y-80564739D03*
X82936972Y-80564739D03*
X85136973Y-81834738D03*
X82936973Y-81834738D03*
X85136973Y-83104740D03*
X82936973Y-83104740D03*
D16*
X98495000Y-81806000D03*
X97225000Y-81806000D03*
X95955000Y-81806000D03*
X94685000Y-81806000D03*
X94685000Y-87206000D03*
X95955000Y-87206000D03*
X97225000Y-87206000D03*
X98495000Y-87206000D03*
D17*
X60395000Y-70128000D03*
X60395000Y-72568000D03*
X60395000Y-75008000D03*
D12*
X87430000Y-75870000D03*
X85430000Y-75870000D03*
D18*
X96812000Y-75946000D03*
X95212000Y-75946000D03*
D19*
X80518000Y-84582000D03*
D20*
X80518000Y-87122000D03*
X80518000Y-89662000D03*
X80518000Y-92202000D03*
D14*
X66364000Y-83998000D03*
X68160051Y-85794051D03*
X69956102Y-87590102D03*
X71752153Y-89386153D03*
X73548204Y-91182204D03*
D15*
X87530000Y-66218000D03*
X85330000Y-66218000D03*
X87530000Y-67742000D03*
X85330000Y-67742000D03*
X87530000Y-71298000D03*
X85330000Y-71298000D03*
X87530000Y-72822000D03*
X85330000Y-72822000D03*
X87530000Y-74346000D03*
X85330000Y-74346000D03*
D21*
X66620000Y-56439000D03*
X66618000Y-58979000D03*
X66618000Y-61519000D03*
X66618000Y-64059000D03*
X83378000Y-61519000D03*
X83380000Y-56439000D03*
X83378000Y-58979000D03*
X83378000Y-64059000D03*
D22*
X84398000Y-84836200D03*
X84398000Y-86715800D03*
D23*
X82232500Y-92583006D03*
X61849000Y-94043500D03*
X50863500Y-94043500D03*
X50863500Y-88582500D03*
X50863500Y-78422500D03*
X50863500Y-68262500D03*
X92075000Y-94043500D03*
X99003000Y-63424000D03*
X99130000Y-83236000D03*
X99130000Y-85649000D03*
X99130000Y-88824000D03*
X99165643Y-80164818D03*
X99060000Y-94043506D03*
X84582000Y-94107000D03*
X71882000Y-92646500D03*
X78867000Y-92583000D03*
X64262000Y-92646500D03*
X81216500Y-55943500D03*
X68834000Y-55943500D03*
X91757500Y-59690000D03*
X85534500Y-56387998D03*
X58102504Y-59753500D03*
X74930000Y-55943500D03*
X64516004Y-56324500D03*
X89408000Y-66294000D03*
X90875000Y-87935000D03*
X63951000Y-76378000D03*
X67126000Y-74473000D03*
X70174000Y-79807000D03*
X76524000Y-75235000D03*
X73349000Y-71933000D03*
X74746000Y-76378000D03*
X71190000Y-72695000D03*
X72752149Y-81331000D03*
X76397000Y-77775000D03*
X72079000Y-79172000D03*
X85795000Y-88189000D03*
X70174000Y-84506000D03*
X68269000Y-83363000D03*
X64459000Y-80696000D03*
X56839000Y-89459000D03*
X58998000Y-82855000D03*
X55315000Y-72568000D03*
X66237000Y-71425000D03*
X80207000Y-67488000D03*
X73857000Y-68504000D03*
X68142000Y-65710000D03*
X68777000Y-60503000D03*
X73603000Y-60630000D03*
X81223000Y-60503000D03*
X85287000Y-62916000D03*
X88716000Y-76505000D03*
X93923000Y-76378000D03*
X94177000Y-79299000D03*
X91002000Y-83871000D03*
X93669000Y-88443000D03*
X94177000Y-85522000D03*
X87446000Y-83109000D03*
X87573000Y-79299000D03*
X80080000Y-78283000D03*
X77032000Y-80823000D03*
X75127000Y-83236000D03*
X74492000Y-89586000D03*
X71952000Y-83363000D03*
X73349000Y-86030000D03*
X64078000Y-72187000D03*
X99130000Y-68250000D03*
X50870000Y-63424000D03*
X80842000Y-75108000D03*
X71444000Y-68504000D03*
X69285000Y-72568000D03*
X79699000Y-71806000D03*
X84074000Y-68758000D03*
X76778000Y-76378000D03*
X70174002Y-71806000D03*
X72333000Y-71805998D03*
X71825022Y-81712000D03*
X66110000Y-77140000D03*
D24*
X87522200Y-62916000D03*
D23*
X83890000Y-69774000D03*
D24*
X68904000Y-59233000D03*
D23*
X66872000Y-65710000D03*
X83890000Y-74346000D03*
X74746000Y-69520000D03*
X83890000Y-72822000D03*
X83890000Y-71298000D03*
X79445000Y-70028000D03*
X83890000Y-67742000D03*
X83890000Y-66218000D03*
X86049000Y-79299000D03*
X86049000Y-80569000D03*
X86049000Y-81839000D03*
X86049000Y-83109000D03*
X71062997Y-85140997D03*
X77159000Y-87046000D03*
D25*
X82232500Y-85169502D02*
X82232500Y-92158742D01*
X82232500Y-92158742D02*
X82232500Y-92583006D01*
X82157999Y-85095001D02*
X82232500Y-85169502D01*
X51287764Y-94043500D02*
X61849000Y-94043500D01*
X50863500Y-94043500D02*
X51287764Y-94043500D01*
X50863500Y-78422500D02*
X50863500Y-88582500D01*
X50870000Y-63424000D02*
X50870000Y-68256000D01*
X50870000Y-68256000D02*
X50863500Y-68262500D01*
X99060000Y-94043506D02*
X92075006Y-94043506D01*
X92075006Y-94043506D02*
X92075000Y-94043500D01*
X99130000Y-93973506D02*
X99060000Y-94043506D01*
X99130000Y-83236000D02*
X99130000Y-85649000D01*
X99003000Y-63424000D02*
X99003000Y-80002175D01*
X99003000Y-80002175D02*
X99165643Y-80164818D01*
X99130000Y-88824000D02*
X99130000Y-93973506D01*
X74492000Y-89586000D02*
X75870000Y-89586000D01*
X75870000Y-89586000D02*
X78867000Y-92583000D01*
X64459000Y-80696000D02*
X64459000Y-92449500D01*
X64459000Y-92449500D02*
X64262000Y-92646500D01*
X74930000Y-55943500D02*
X81216500Y-55943500D01*
X74930000Y-55943500D02*
X68834000Y-55943500D01*
X50870000Y-63424000D02*
X54178000Y-63424000D01*
X54178000Y-63424000D02*
X57678240Y-59923760D01*
X57678240Y-59923760D02*
X57678240Y-59753500D01*
X57678240Y-59753500D02*
X58102504Y-59753500D01*
X90875000Y-88443000D02*
X90367000Y-88443000D01*
X93669000Y-88443000D02*
X90875000Y-88443000D01*
X90875000Y-88443000D02*
X90875000Y-87935000D01*
X65348000Y-76251000D02*
X65221000Y-76378000D01*
X65221000Y-76378000D02*
X63951000Y-76378000D01*
X65602000Y-75997000D02*
X65348000Y-76251000D01*
X67126000Y-74473000D02*
X65602000Y-75997000D01*
X72079000Y-79172000D02*
X70809000Y-79172000D01*
X70809000Y-79172000D02*
X70174000Y-79807000D01*
X73857000Y-68504000D02*
X73857000Y-71425000D01*
X73857000Y-71425000D02*
X73349000Y-71933000D01*
X74746000Y-76505000D02*
X74746000Y-76378000D01*
X72079000Y-79172000D02*
X74746000Y-76505000D01*
X69285000Y-72568000D02*
X69539000Y-72822000D01*
X69539000Y-72822000D02*
X71063000Y-72822000D01*
X71063000Y-72822000D02*
X71190000Y-72695000D01*
X77032000Y-80823000D02*
X77032000Y-78410000D01*
X77032000Y-78410000D02*
X76397000Y-77775000D01*
X89986000Y-88824000D02*
X86430000Y-88824000D01*
X86430000Y-88824000D02*
X85795000Y-88189000D01*
X90367000Y-88443000D02*
X89986000Y-88824000D01*
X68269000Y-83363000D02*
X69031000Y-83363000D01*
X69031000Y-83363000D02*
X70174000Y-84506000D01*
X56585000Y-84843736D02*
X56585000Y-89205000D01*
X56585000Y-89205000D02*
X56839000Y-89459000D01*
X58998000Y-82855000D02*
X58573736Y-82855000D01*
X58573736Y-82855000D02*
X56585000Y-84843736D01*
X55696000Y-73330000D02*
X55315000Y-72949000D01*
X55315000Y-72949000D02*
X55315000Y-72568000D01*
X56202000Y-73330000D02*
X55696000Y-73330000D01*
X56839000Y-73342000D02*
X56214000Y-73342000D01*
X56214000Y-73342000D02*
X56202000Y-73330000D01*
X68142000Y-65710000D02*
X68142000Y-69520000D01*
X68142000Y-69520000D02*
X66237000Y-71425000D01*
X73857000Y-68504000D02*
X79191000Y-68504000D01*
X79191000Y-68504000D02*
X80207000Y-67488000D01*
X68904000Y-61054264D02*
X68904000Y-64948000D01*
X68904000Y-64948000D02*
X68142000Y-65710000D01*
X68777000Y-60503000D02*
X68777000Y-60927264D01*
X68777000Y-60927264D02*
X68904000Y-61054264D01*
X81223000Y-60503000D02*
X73730000Y-60503000D01*
X73730000Y-60503000D02*
X73603000Y-60630000D01*
X93923000Y-76378000D02*
X88843000Y-76378000D01*
X88843000Y-76378000D02*
X88716000Y-76505000D01*
X91764000Y-80442000D02*
X90621000Y-79299000D01*
X92526000Y-81204000D02*
X91764000Y-80442000D01*
X91764000Y-80442000D02*
X93034000Y-80442000D01*
X93034000Y-80442000D02*
X94177000Y-79299000D01*
X92526000Y-83490000D02*
X92526000Y-81204000D01*
X92526000Y-85030000D02*
X92526000Y-83490000D01*
X92526000Y-83490000D02*
X91383000Y-83490000D01*
X91383000Y-83490000D02*
X91002000Y-83871000D01*
X92526000Y-85030000D02*
X93685000Y-85030000D01*
X93685000Y-85030000D02*
X94177000Y-85522000D01*
X90621000Y-79299000D02*
X87573000Y-79299000D01*
X80518000Y-87122000D02*
X79013000Y-87122000D01*
X79013000Y-87122000D02*
X75127000Y-83236000D01*
X73349000Y-86030000D02*
X73349000Y-84760000D01*
X73349000Y-84760000D02*
X71952000Y-83363000D01*
X66618000Y-61519000D02*
X56204000Y-61519000D01*
X56204000Y-61519000D02*
X54299000Y-63424000D01*
X54299000Y-63424000D02*
X50870000Y-63424000D01*
D26*
X56839000Y-72634082D02*
X56839000Y-73342000D01*
X56839000Y-71794001D02*
X56839000Y-72634082D01*
X56839000Y-72634082D02*
X56905082Y-72568001D01*
X56905082Y-72568001D02*
X60395000Y-72568001D01*
X56839000Y-71794000D02*
X56839000Y-71794001D01*
D27*
X89224000Y-84506000D02*
X89478000Y-84506000D01*
X89478000Y-84506000D02*
X92002000Y-87030000D01*
X92002000Y-87030000D02*
X92526000Y-87030000D01*
X86938000Y-84760000D02*
X88970000Y-84760000D01*
X88970000Y-84760000D02*
X89224000Y-84506000D01*
X86938000Y-84760000D02*
X86874500Y-84696500D01*
X86874500Y-84696500D02*
X84398000Y-84696500D01*
D28*
X94685000Y-87206000D02*
X94685000Y-88281000D01*
X94685000Y-88281000D02*
X95228000Y-88824000D01*
X95228000Y-88824000D02*
X97860000Y-88824000D01*
X97860000Y-88824000D02*
X98495000Y-88189000D01*
X98495000Y-88189000D02*
X98495000Y-87206000D01*
D29*
X92526000Y-87030000D02*
X94509000Y-87030000D01*
D30*
X94509000Y-87030000D02*
X94685000Y-87206000D01*
D29*
X80080000Y-77140000D02*
X79318000Y-76378000D01*
X87414000Y-77140000D02*
X80080000Y-77140000D01*
X79318000Y-76378000D02*
X76778000Y-76378000D01*
X87430000Y-77124000D02*
X87414000Y-77140000D01*
X76778000Y-76378000D02*
X76270000Y-76378000D01*
D25*
X98495000Y-80601000D02*
X97955000Y-80601000D01*
X97955000Y-80601000D02*
X97225000Y-81331000D01*
X97225000Y-81331000D02*
X97225000Y-81806000D01*
D30*
X98495000Y-80601000D02*
X97574000Y-79680000D01*
X98495000Y-81806000D02*
X98495000Y-80601000D01*
D31*
X76270000Y-76378000D02*
X72333000Y-72441000D01*
X72333000Y-72441000D02*
X72333000Y-71805998D01*
X70174004Y-71805998D02*
X70174002Y-71806000D01*
X72333000Y-71805998D02*
X70174004Y-71805998D01*
X71825022Y-81712000D02*
X71825022Y-80822978D01*
X71825022Y-80822978D02*
X76270000Y-76378000D01*
D25*
X96812000Y-75946000D02*
X96812000Y-77870000D01*
X96812000Y-77870000D02*
X96844000Y-77902000D01*
D27*
X88208000Y-77902000D02*
X96844000Y-77902000D01*
D31*
X66110000Y-77140000D02*
X70682000Y-81712000D01*
X71400758Y-81712000D02*
X71825022Y-81712000D01*
X70682000Y-81712000D02*
X71400758Y-81712000D01*
D29*
X87530000Y-62923800D02*
X87522200Y-62916000D01*
X87530000Y-66218000D02*
X87530000Y-62923800D01*
D27*
X87530000Y-66218000D02*
X87530000Y-67742000D01*
X87530000Y-67742000D02*
X87530000Y-71298000D01*
X87530000Y-72822000D02*
X87530000Y-71298000D01*
X87530000Y-74346000D02*
X87530000Y-72822000D01*
X87530000Y-74346000D02*
X87530000Y-75770000D01*
X87530000Y-75770000D02*
X87430000Y-75870000D01*
X87430000Y-75870000D02*
X87430000Y-77124000D01*
X87430000Y-77124000D02*
X88208000Y-77902000D01*
X96844000Y-77902000D02*
X97574000Y-78632000D01*
X97574000Y-78632000D02*
X97574000Y-79680000D01*
D28*
X97828000Y-79426000D02*
X97574000Y-79680000D01*
D29*
X87530000Y-67742000D02*
X87530000Y-69266000D01*
X87530000Y-69266000D02*
X87530000Y-69774000D01*
D30*
X86938000Y-69774000D02*
X87022000Y-69774000D01*
X87022000Y-69774000D02*
X87530000Y-69266000D01*
X86938000Y-69774000D02*
X87530000Y-69774000D01*
X83890000Y-69774000D02*
X86938000Y-69774000D01*
D29*
X87530000Y-69774000D02*
X87530000Y-70282000D01*
X87530000Y-70282000D02*
X87530000Y-71298000D01*
D30*
X87022000Y-69774000D02*
X87530000Y-70282000D01*
D29*
X68904000Y-59233000D02*
X66872000Y-59233000D01*
X66872000Y-59233000D02*
X66618000Y-58979000D01*
D26*
X56839000Y-70294000D02*
X57005000Y-70128000D01*
X57005000Y-70128000D02*
X60395000Y-70128000D01*
D31*
X66618000Y-64059000D02*
X66618000Y-65456000D01*
X66618000Y-65456000D02*
X66872000Y-65710000D01*
D26*
X85330000Y-74346000D02*
X83890000Y-74346000D01*
X74746000Y-69520000D02*
X78048000Y-72822000D01*
X78048000Y-72822000D02*
X83890000Y-72822000D01*
X85330000Y-72822000D02*
X83890000Y-72822000D01*
X85330000Y-71298000D02*
X83890000Y-71298000D01*
D31*
X79744999Y-69728001D02*
X79445000Y-70028000D01*
X81731000Y-67742000D02*
X79744999Y-69728001D01*
X83890000Y-67742000D02*
X81731000Y-67742000D01*
D26*
X85330000Y-67742000D02*
X83890000Y-67742000D01*
X85330000Y-66218000D02*
X83890000Y-66218000D01*
X56839000Y-74842000D02*
X57005000Y-75008000D01*
X57005000Y-75008000D02*
X60395000Y-75008000D01*
D25*
X95212000Y-75946000D02*
X95212000Y-74595000D01*
X95212000Y-74595000D02*
X94912000Y-74295000D01*
X86049000Y-79299000D02*
X85141232Y-79299000D01*
X85141232Y-79299000D02*
X85136972Y-79294740D01*
X85136972Y-80564739D02*
X86044739Y-80564739D01*
X86044739Y-80564739D02*
X86049000Y-80569000D01*
X86049000Y-81839000D02*
X85141235Y-81839000D01*
X85141235Y-81839000D02*
X85136973Y-81834738D01*
X85136973Y-83104740D02*
X86044740Y-83104740D01*
X86044740Y-83104740D02*
X86049000Y-83109000D01*
X73548204Y-87626204D02*
X71362996Y-85440996D01*
X73548204Y-91182204D02*
X73548204Y-87626204D01*
X71362996Y-85440996D02*
X71062997Y-85140997D01*
D27*
X86938000Y-86760000D02*
X86842500Y-86855500D01*
X86842500Y-86855500D02*
X84398000Y-86855500D01*
X84398000Y-92322500D02*
X82740500Y-93980000D01*
X84398000Y-86855500D02*
X84398000Y-92322500D01*
X82740500Y-93980000D02*
X63646000Y-93980000D01*
X58236000Y-88570000D02*
X58236000Y-85268000D01*
X63646000Y-93980000D02*
X58236000Y-88570000D01*
X58998000Y-84506000D02*
X60776000Y-84506000D01*
X58236000Y-85268000D02*
X58998000Y-84506000D01*
X86938000Y-86760000D02*
X88938000Y-86760000D01*
X88938000Y-86760000D02*
X89224000Y-87046000D01*
D25*
X77159000Y-87046000D02*
X77159000Y-87681000D01*
X77159000Y-87681000D02*
X79140000Y-89662000D01*
X79140000Y-89662000D02*
X80518000Y-89662000D01*
D32*
G36*
X91199434Y-87832566D02*
X91567654Y-88078603D01*
X91583817Y-88081818D01*
X91649110Y-88126431D01*
X91901000Y-88177440D01*
X93151000Y-88177440D01*
X93386317Y-88133162D01*
X93492244Y-88065000D01*
X93753366Y-88065000D01*
X93781838Y-88216317D01*
X93920910Y-88432441D01*
X93931573Y-88439727D01*
X93959755Y-88581407D01*
X94129921Y-88836079D01*
X94672921Y-89379079D01*
X94927593Y-89549245D01*
X95228000Y-89609000D01*
X97860000Y-89609000D01*
X98160407Y-89549245D01*
X98415079Y-89379079D01*
X99050079Y-88744079D01*
X99220245Y-88489406D01*
X99226509Y-88457916D01*
X99246441Y-88445090D01*
X99290000Y-88381339D01*
X99290000Y-94290000D01*
X84035632Y-94290000D01*
X85200566Y-93125066D01*
X85208406Y-93113333D01*
X85446603Y-92756846D01*
X85528803Y-92343599D01*
X93264699Y-92343599D01*
X93528281Y-92981515D01*
X94015918Y-93470004D01*
X94653373Y-93734699D01*
X95343599Y-93735301D01*
X95981515Y-93471719D01*
X96470004Y-92984082D01*
X96734699Y-92346627D01*
X96735301Y-91656401D01*
X96471719Y-91018485D01*
X95984082Y-90529996D01*
X95346627Y-90265301D01*
X94656401Y-90264699D01*
X94018485Y-90528281D01*
X93529996Y-91015918D01*
X93265301Y-91653373D01*
X93264699Y-92343599D01*
X85528803Y-92343599D01*
X85533000Y-92322500D01*
X85533000Y-87992365D01*
X85535899Y-87990500D01*
X86842500Y-87990500D01*
X87260070Y-87907440D01*
X87563000Y-87907440D01*
X87629113Y-87895000D01*
X87805727Y-87895000D01*
X87837106Y-87970943D01*
X88296637Y-88431278D01*
X88897352Y-88680716D01*
X89547795Y-88681284D01*
X90148943Y-88432894D01*
X90609278Y-87973363D01*
X90823742Y-87456874D01*
X91199434Y-87832566D01*
X91199434Y-87832566D01*
G37*
X91199434Y-87832566D02*
X91567654Y-88078603D01*
X91583817Y-88081818D01*
X91649110Y-88126431D01*
X91901000Y-88177440D01*
X93151000Y-88177440D01*
X93386317Y-88133162D01*
X93492244Y-88065000D01*
X93753366Y-88065000D01*
X93781838Y-88216317D01*
X93920910Y-88432441D01*
X93931573Y-88439727D01*
X93959755Y-88581407D01*
X94129921Y-88836079D01*
X94672921Y-89379079D01*
X94927593Y-89549245D01*
X95228000Y-89609000D01*
X97860000Y-89609000D01*
X98160407Y-89549245D01*
X98415079Y-89379079D01*
X99050079Y-88744079D01*
X99220245Y-88489406D01*
X99226509Y-88457916D01*
X99246441Y-88445090D01*
X99290000Y-88381339D01*
X99290000Y-94290000D01*
X84035632Y-94290000D01*
X85200566Y-93125066D01*
X85208406Y-93113333D01*
X85446603Y-92756846D01*
X85528803Y-92343599D01*
X93264699Y-92343599D01*
X93528281Y-92981515D01*
X94015918Y-93470004D01*
X94653373Y-93734699D01*
X95343599Y-93735301D01*
X95981515Y-93471719D01*
X96470004Y-92984082D01*
X96734699Y-92346627D01*
X96735301Y-91656401D01*
X96471719Y-91018485D01*
X95984082Y-90529996D01*
X95346627Y-90265301D01*
X94656401Y-90264699D01*
X94018485Y-90528281D01*
X93529996Y-91015918D01*
X93265301Y-91653373D01*
X93264699Y-92343599D01*
X85528803Y-92343599D01*
X85533000Y-92322500D01*
X85533000Y-87992365D01*
X85535899Y-87990500D01*
X86842500Y-87990500D01*
X87260070Y-87907440D01*
X87563000Y-87907440D01*
X87629113Y-87895000D01*
X87805727Y-87895000D01*
X87837106Y-87970943D01*
X88296637Y-88431278D01*
X88897352Y-88680716D01*
X89547795Y-88681284D01*
X90148943Y-88432894D01*
X90609278Y-87973363D01*
X90823742Y-87456874D01*
X91199434Y-87832566D01*
G36*
X81462560Y-57199000D02*
X81506838Y-57434317D01*
X81645910Y-57650441D01*
X81729815Y-57707771D01*
X81656559Y-57754910D01*
X81511569Y-57967110D01*
X81460560Y-58219000D01*
X81460560Y-59739000D01*
X81504838Y-59974317D01*
X81643910Y-60190441D01*
X81728785Y-60248434D01*
X81656559Y-60294910D01*
X81511569Y-60507110D01*
X81460560Y-60759000D01*
X81460560Y-62279000D01*
X81504838Y-62514317D01*
X81643910Y-62730441D01*
X81728785Y-62788434D01*
X81656559Y-62834910D01*
X81511569Y-63047110D01*
X81460560Y-63299000D01*
X81460560Y-64819000D01*
X81504838Y-65054317D01*
X81643910Y-65270441D01*
X81856110Y-65415431D01*
X82108000Y-65466440D01*
X83319427Y-65466440D01*
X83097808Y-65687673D01*
X82955162Y-66031201D01*
X82954838Y-66403167D01*
X83096883Y-66746943D01*
X83206748Y-66857000D01*
X81731005Y-66857000D01*
X81731000Y-66856999D01*
X81392326Y-66924366D01*
X81323190Y-66970561D01*
X81105210Y-67116210D01*
X81105208Y-67116213D01*
X79119209Y-69102211D01*
X79119207Y-69102214D01*
X79036165Y-69185255D01*
X78916057Y-69234883D01*
X78652808Y-69497673D01*
X78510162Y-69841201D01*
X78509838Y-70213167D01*
X78651883Y-70556943D01*
X78914673Y-70820192D01*
X79258201Y-70962838D01*
X79630167Y-70963162D01*
X79973943Y-70821117D01*
X80237192Y-70558327D01*
X80287566Y-70437013D01*
X80370786Y-70353793D01*
X80370789Y-70353791D01*
X82097579Y-68627000D01*
X83583178Y-68627000D01*
X83703201Y-68676838D01*
X84075167Y-68677162D01*
X84242988Y-68607820D01*
X84265910Y-68643441D01*
X84478110Y-68788431D01*
X84727827Y-68839000D01*
X83890816Y-68839000D01*
X83704833Y-68838838D01*
X83361057Y-68980883D01*
X83097808Y-69243673D01*
X82955162Y-69587201D01*
X82954838Y-69959167D01*
X83096883Y-70302943D01*
X83329709Y-70536176D01*
X83097808Y-70767673D01*
X82955162Y-71111201D01*
X82954838Y-71483167D01*
X83096883Y-71826943D01*
X83256661Y-71987000D01*
X78393868Y-71987000D01*
X75638535Y-69231667D01*
X75539117Y-68991057D01*
X75276327Y-68727808D01*
X74932799Y-68585162D01*
X74560833Y-68584838D01*
X74217057Y-68726883D01*
X73953808Y-68989673D01*
X73811162Y-69333201D01*
X73810838Y-69705167D01*
X73952883Y-70048943D01*
X74215673Y-70312192D01*
X74457910Y-70412778D01*
X77457566Y-73412434D01*
X77728459Y-73593439D01*
X78048000Y-73657000D01*
X83256758Y-73657000D01*
X83097808Y-73815673D01*
X82955162Y-74159201D01*
X82954838Y-74531167D01*
X83096883Y-74874943D01*
X83359673Y-75138192D01*
X83703201Y-75280838D01*
X84075167Y-75281162D01*
X84242988Y-75211820D01*
X84265910Y-75247441D01*
X84295000Y-75267317D01*
X84295000Y-75584250D01*
X84453750Y-75743000D01*
X85303000Y-75743000D01*
X85303000Y-75723000D01*
X85557000Y-75723000D01*
X85557000Y-75743000D01*
X85577000Y-75743000D01*
X85577000Y-75997000D01*
X85557000Y-75997000D01*
X85557000Y-76017000D01*
X85303000Y-76017000D01*
X85303000Y-75997000D01*
X84453750Y-75997000D01*
X84345750Y-76105000D01*
X80508711Y-76105000D01*
X80049856Y-75646144D01*
X79714077Y-75421785D01*
X79318000Y-75342999D01*
X79317995Y-75343000D01*
X76486579Y-75343000D01*
X73229267Y-72085687D01*
X73267838Y-71992797D01*
X73268162Y-71620831D01*
X73126117Y-71277055D01*
X72863327Y-71013806D01*
X72519799Y-70871160D01*
X72147833Y-70870836D01*
X72026431Y-70920998D01*
X70480819Y-70920998D01*
X70360801Y-70871162D01*
X69988835Y-70870838D01*
X69645059Y-71012883D01*
X69381810Y-71275673D01*
X69239164Y-71619201D01*
X69238840Y-71991167D01*
X69380885Y-72334943D01*
X69643675Y-72598192D01*
X69987203Y-72740838D01*
X70359169Y-72741162D01*
X70480575Y-72690998D01*
X71497728Y-72690998D01*
X71504190Y-72723484D01*
X71515367Y-72779675D01*
X71668462Y-73008799D01*
X71707210Y-73066790D01*
X75018421Y-76378000D01*
X71199232Y-80197188D01*
X71007389Y-80484303D01*
X71007389Y-80484304D01*
X70957365Y-80735786D01*
X66952744Y-76731164D01*
X66903117Y-76611057D01*
X66640327Y-76347808D01*
X66296799Y-76205162D01*
X65924833Y-76204838D01*
X65581057Y-76346883D01*
X65317808Y-76609673D01*
X65175162Y-76953201D01*
X65174838Y-77325167D01*
X65316883Y-77668943D01*
X65579673Y-77932192D01*
X65700986Y-77982566D01*
X70056208Y-82337787D01*
X70056210Y-82337790D01*
X70343325Y-82529633D01*
X70682000Y-82597000D01*
X71518200Y-82597000D01*
X71638223Y-82646838D01*
X72010189Y-82647162D01*
X72353965Y-82505117D01*
X72617214Y-82242327D01*
X72667806Y-82120488D01*
X81701973Y-82120488D01*
X81701973Y-82411048D01*
X81726284Y-82469739D01*
X81701973Y-82528430D01*
X81701973Y-82818990D01*
X81860723Y-82977740D01*
X82809973Y-82977740D01*
X82809973Y-81961738D01*
X81860723Y-81961738D01*
X81701973Y-82120488D01*
X72667806Y-82120488D01*
X72759860Y-81898799D01*
X72760184Y-81526833D01*
X72710022Y-81405431D01*
X72710022Y-81189558D01*
X73049090Y-80850489D01*
X81701972Y-80850489D01*
X81701972Y-81141049D01*
X81726283Y-81199740D01*
X81701973Y-81258428D01*
X81701973Y-81548988D01*
X81860723Y-81707738D01*
X82809973Y-81707738D01*
X82809973Y-80908488D01*
X82809972Y-80908487D01*
X82809972Y-80691739D01*
X81860722Y-80691739D01*
X81701972Y-80850489D01*
X73049090Y-80850489D01*
X74319089Y-79580490D01*
X81701972Y-79580490D01*
X81701972Y-79871050D01*
X81726282Y-79929740D01*
X81701972Y-79988429D01*
X81701972Y-80278989D01*
X81860722Y-80437739D01*
X82809972Y-80437739D01*
X82809972Y-79421740D01*
X81860722Y-79421740D01*
X81701972Y-79580490D01*
X74319089Y-79580490D01*
X75181149Y-78718430D01*
X81701972Y-78718430D01*
X81701972Y-79008990D01*
X81860722Y-79167740D01*
X82809972Y-79167740D01*
X82809972Y-78368490D01*
X82651222Y-78209740D01*
X82210663Y-78209740D01*
X81977274Y-78306413D01*
X81798645Y-78485041D01*
X81701972Y-78718430D01*
X75181149Y-78718430D01*
X76486579Y-77413000D01*
X78889288Y-77413000D01*
X79348142Y-77871853D01*
X79348144Y-77871856D01*
X79651930Y-78074838D01*
X79683923Y-78096215D01*
X80080000Y-78175001D01*
X80080005Y-78175000D01*
X86875868Y-78175000D01*
X87405434Y-78704566D01*
X87773654Y-78950603D01*
X88208000Y-79037000D01*
X94439000Y-79037000D01*
X94439000Y-79394250D01*
X94597750Y-79553000D01*
X95447000Y-79553000D01*
X95447000Y-79533000D01*
X95701000Y-79533000D01*
X95701000Y-79553000D01*
X95721000Y-79553000D01*
X95721000Y-79807000D01*
X95701000Y-79807000D01*
X95701000Y-79827000D01*
X95447000Y-79827000D01*
X95447000Y-79807000D01*
X94597750Y-79807000D01*
X94439000Y-79965750D01*
X94439000Y-80383560D01*
X94385000Y-80383560D01*
X94149683Y-80427838D01*
X93933559Y-80566910D01*
X93788569Y-80779110D01*
X93737560Y-81031000D01*
X93737560Y-82581000D01*
X93781838Y-82816317D01*
X93920910Y-83032441D01*
X94133110Y-83177431D01*
X94385000Y-83228440D01*
X94985000Y-83228440D01*
X95220317Y-83184162D01*
X95310980Y-83125822D01*
X95528690Y-83216000D01*
X95669250Y-83216000D01*
X95828000Y-83057250D01*
X95828000Y-81933000D01*
X95808000Y-81933000D01*
X95808000Y-81679000D01*
X95828000Y-81679000D01*
X95828000Y-81659000D01*
X96082000Y-81659000D01*
X96082000Y-81679000D01*
X96102000Y-81679000D01*
X96102000Y-81933000D01*
X96082000Y-81933000D01*
X96082000Y-83057250D01*
X96240750Y-83216000D01*
X96381310Y-83216000D01*
X96598122Y-83126194D01*
X96673110Y-83177431D01*
X96925000Y-83228440D01*
X97525000Y-83228440D01*
X97760317Y-83184162D01*
X97859528Y-83120322D01*
X97943110Y-83177431D01*
X98195000Y-83228440D01*
X98795000Y-83228440D01*
X99030317Y-83184162D01*
X99246441Y-83045090D01*
X99290000Y-82981339D01*
X99290000Y-86027594D01*
X99259090Y-85979559D01*
X99046890Y-85834569D01*
X98795000Y-85783560D01*
X98195000Y-85783560D01*
X97959683Y-85827838D01*
X97869020Y-85886178D01*
X97651310Y-85796000D01*
X97510750Y-85796000D01*
X97352000Y-85954750D01*
X97352000Y-87079000D01*
X97372000Y-87079000D01*
X97372000Y-87333000D01*
X97352000Y-87333000D01*
X97352000Y-87353000D01*
X97098000Y-87353000D01*
X97098000Y-87333000D01*
X96082000Y-87333000D01*
X96082000Y-87353000D01*
X95828000Y-87353000D01*
X95828000Y-87333000D01*
X95808000Y-87333000D01*
X95808000Y-87079000D01*
X95828000Y-87079000D01*
X95828000Y-85954750D01*
X96082000Y-85954750D01*
X96082000Y-87079000D01*
X97098000Y-87079000D01*
X97098000Y-85954750D01*
X96939250Y-85796000D01*
X96798690Y-85796000D01*
X96590000Y-85882442D01*
X96381310Y-85796000D01*
X96240750Y-85796000D01*
X96082000Y-85954750D01*
X95828000Y-85954750D01*
X95669250Y-85796000D01*
X95528690Y-85796000D01*
X95311878Y-85885806D01*
X95236890Y-85834569D01*
X94985000Y-85783560D01*
X94385000Y-85783560D01*
X94149683Y-85827838D01*
X93933559Y-85966910D01*
X93914366Y-85995000D01*
X93584026Y-85995000D01*
X93689327Y-85889698D01*
X93786000Y-85656309D01*
X93786000Y-85315750D01*
X93627250Y-85157000D01*
X92653000Y-85157000D01*
X92653000Y-85177000D01*
X92399000Y-85177000D01*
X92399000Y-85157000D01*
X92379000Y-85157000D01*
X92379000Y-84903000D01*
X92399000Y-84903000D01*
X92399000Y-84053750D01*
X92653000Y-84053750D01*
X92653000Y-84903000D01*
X93627250Y-84903000D01*
X93786000Y-84744250D01*
X93786000Y-84403691D01*
X93689327Y-84170302D01*
X93510699Y-83991673D01*
X93277310Y-83895000D01*
X92811750Y-83895000D01*
X92653000Y-84053750D01*
X92399000Y-84053750D01*
X92240250Y-83895000D01*
X91774690Y-83895000D01*
X91541301Y-83991673D01*
X91362673Y-84170302D01*
X91266000Y-84403691D01*
X91266000Y-84688868D01*
X90859197Y-84282065D01*
X90859284Y-84182205D01*
X90610894Y-83581057D01*
X90266241Y-83235801D01*
X90609278Y-82893363D01*
X90858716Y-82292648D01*
X90859284Y-81642205D01*
X90610894Y-81041057D01*
X90151363Y-80580722D01*
X89550648Y-80331284D01*
X88900205Y-80330716D01*
X88299057Y-80579106D01*
X87838722Y-81038637D01*
X87589284Y-81639352D01*
X87588716Y-82289795D01*
X87837106Y-82890943D01*
X88181759Y-83236199D01*
X87838722Y-83578637D01*
X87819470Y-83625000D01*
X87624431Y-83625000D01*
X87563000Y-83612560D01*
X87131195Y-83612560D01*
X86874500Y-83561500D01*
X86873509Y-83561500D01*
X86983838Y-83295799D01*
X86984162Y-82923833D01*
X86842117Y-82580057D01*
X86736290Y-82474046D01*
X86841192Y-82369327D01*
X86983838Y-82025799D01*
X86984162Y-81653833D01*
X86842117Y-81310057D01*
X86736290Y-81204046D01*
X86841192Y-81099327D01*
X86983838Y-80755799D01*
X86984162Y-80383833D01*
X86842117Y-80040057D01*
X86736290Y-79934046D01*
X86841192Y-79829327D01*
X86983838Y-79485799D01*
X86984162Y-79113833D01*
X86842117Y-78770057D01*
X86579327Y-78506808D01*
X86235799Y-78364162D01*
X86158320Y-78364095D01*
X85988862Y-78248309D01*
X85736972Y-78197300D01*
X84536972Y-78197300D01*
X84301655Y-78241578D01*
X84085531Y-78380650D01*
X84039003Y-78448746D01*
X83896670Y-78306413D01*
X83663281Y-78209740D01*
X83222722Y-78209740D01*
X83063972Y-78368490D01*
X83063972Y-79167740D01*
X83083972Y-79167740D01*
X83083972Y-79421740D01*
X83063972Y-79421740D01*
X83063972Y-80437739D01*
X83083972Y-80437739D01*
X83083972Y-80691739D01*
X83063972Y-80691739D01*
X83063972Y-81490989D01*
X83063973Y-81490990D01*
X83063973Y-81707738D01*
X83083973Y-81707738D01*
X83083973Y-81961738D01*
X83063973Y-81961738D01*
X83063973Y-82977740D01*
X83083973Y-82977740D01*
X83083973Y-83231740D01*
X83063973Y-83231740D01*
X83063973Y-83786594D01*
X83039569Y-83822310D01*
X82988560Y-84074200D01*
X82988560Y-85149694D01*
X82946918Y-84940346D01*
X82934648Y-84878662D01*
X82769901Y-84632101D01*
X82695400Y-84557600D01*
X82448838Y-84392853D01*
X82157999Y-84335001D01*
X82015440Y-84363358D01*
X82015440Y-84108875D01*
X82210664Y-84189740D01*
X82651223Y-84189740D01*
X82809973Y-84030990D01*
X82809973Y-83231740D01*
X81860723Y-83231740D01*
X81820098Y-83272365D01*
X81619890Y-83135569D01*
X81368000Y-83084560D01*
X79668000Y-83084560D01*
X79432683Y-83128838D01*
X79216559Y-83267910D01*
X79071569Y-83480110D01*
X79020560Y-83732000D01*
X79020560Y-85432000D01*
X79064838Y-85667317D01*
X79203910Y-85883441D01*
X79416110Y-86028431D01*
X79524107Y-86050301D01*
X79246355Y-86355076D01*
X79076524Y-86765110D01*
X79197845Y-86995000D01*
X80391000Y-86995000D01*
X80391000Y-86975000D01*
X80645000Y-86975000D01*
X80645000Y-86995000D01*
X80665000Y-86995000D01*
X80665000Y-87249000D01*
X80645000Y-87249000D01*
X80645000Y-87269000D01*
X80391000Y-87269000D01*
X80391000Y-87249000D01*
X79197845Y-87249000D01*
X79076524Y-87478890D01*
X79246355Y-87888924D01*
X79636642Y-88317183D01*
X79779553Y-88384298D01*
X79438853Y-88611946D01*
X79329062Y-88776260D01*
X78003400Y-87450598D01*
X78093838Y-87232799D01*
X78094162Y-86860833D01*
X77952117Y-86517057D01*
X77689327Y-86253808D01*
X77345799Y-86111162D01*
X76973833Y-86110838D01*
X76630057Y-86252883D01*
X76366808Y-86515673D01*
X76224162Y-86859201D01*
X76223838Y-87231167D01*
X76365883Y-87574943D01*
X76399000Y-87608118D01*
X76399000Y-87681000D01*
X76456852Y-87971839D01*
X76621599Y-88218401D01*
X78602599Y-90199401D01*
X78849161Y-90364148D01*
X79140000Y-90422000D01*
X79245046Y-90422000D01*
X79438853Y-90712054D01*
X79768026Y-90932000D01*
X79438853Y-91151946D01*
X79116946Y-91633715D01*
X79003907Y-92202000D01*
X79116946Y-92770285D01*
X79166869Y-92845000D01*
X64116132Y-92845000D01*
X59469664Y-88198532D01*
X59803073Y-88198532D01*
X59901736Y-88465387D01*
X60511461Y-88691908D01*
X61161460Y-88667856D01*
X61650264Y-88465387D01*
X61748927Y-88198532D01*
X60776000Y-87225605D01*
X59803073Y-88198532D01*
X59469664Y-88198532D01*
X59371000Y-88099868D01*
X59371000Y-87925583D01*
X59623468Y-88018927D01*
X60596395Y-87046000D01*
X60955605Y-87046000D01*
X61928532Y-88018927D01*
X62045821Y-87975562D01*
X68334246Y-87975562D01*
X68605212Y-88566878D01*
X69081838Y-89009489D01*
X69570642Y-89211958D01*
X69829102Y-89093028D01*
X69829102Y-87783851D01*
X69970243Y-87783851D01*
X70083102Y-87896710D01*
X70083102Y-89093028D01*
X70117394Y-89108807D01*
X70116869Y-89709948D01*
X70365259Y-90311096D01*
X70824790Y-90771431D01*
X71425505Y-91020869D01*
X71913343Y-91021295D01*
X71912920Y-91505999D01*
X72161310Y-92107147D01*
X72620841Y-92567482D01*
X73221556Y-92816920D01*
X73871999Y-92817488D01*
X74473147Y-92569098D01*
X74933482Y-92109567D01*
X75182920Y-91508852D01*
X75183488Y-90858409D01*
X74935098Y-90257261D01*
X74475567Y-89796926D01*
X74308204Y-89727431D01*
X74308204Y-87626204D01*
X74250352Y-87335365D01*
X74085605Y-87088803D01*
X71998119Y-85001317D01*
X71998159Y-84955830D01*
X71856114Y-84612054D01*
X71593324Y-84348805D01*
X71249796Y-84206159D01*
X70877830Y-84205835D01*
X70534054Y-84347880D01*
X70270805Y-84610670D01*
X70128159Y-84954198D01*
X70127835Y-85326164D01*
X70269880Y-85669940D01*
X70532670Y-85933189D01*
X70876198Y-86075835D01*
X70923074Y-86075876D01*
X72788204Y-87941006D01*
X72788204Y-88109753D01*
X72679516Y-88000875D01*
X72078801Y-87751437D01*
X71474584Y-87750909D01*
X71459028Y-87717102D01*
X70262710Y-87717102D01*
X70149851Y-87604243D01*
X69970243Y-87783851D01*
X69829102Y-87783851D01*
X69829102Y-87717102D01*
X68453176Y-87717102D01*
X68334246Y-87975562D01*
X62045821Y-87975562D01*
X62195387Y-87920264D01*
X62421908Y-87310539D01*
X62397856Y-86660540D01*
X62195387Y-86171736D01*
X61928532Y-86073073D01*
X60955605Y-87046000D01*
X60596395Y-87046000D01*
X59623468Y-86073073D01*
X59371000Y-86166417D01*
X59371000Y-85738132D01*
X59468132Y-85641000D01*
X59598796Y-85641000D01*
X59815978Y-85858562D01*
X59803073Y-85893468D01*
X60776000Y-86866395D01*
X61748927Y-85893468D01*
X61735836Y-85858062D01*
X62161278Y-85433363D01*
X62410716Y-84832648D01*
X62411162Y-84321795D01*
X64728716Y-84321795D01*
X64977106Y-84922943D01*
X65436637Y-85383278D01*
X66037352Y-85632716D01*
X66525190Y-85633142D01*
X66524767Y-86117846D01*
X66773157Y-86718994D01*
X67232688Y-87179329D01*
X67833403Y-87428767D01*
X68437620Y-87429295D01*
X68453176Y-87463102D01*
X69649494Y-87463102D01*
X69762353Y-87575961D01*
X69941961Y-87396353D01*
X69829102Y-87283494D01*
X69829102Y-86087176D01*
X70083102Y-86087176D01*
X70083102Y-87463102D01*
X71459028Y-87463102D01*
X71577958Y-87204642D01*
X71306992Y-86613326D01*
X70830366Y-86170715D01*
X70341562Y-85968246D01*
X70083102Y-86087176D01*
X69829102Y-86087176D01*
X69794810Y-86071397D01*
X69795335Y-85470256D01*
X69546945Y-84869108D01*
X69087414Y-84408773D01*
X68486699Y-84159335D01*
X67998861Y-84158909D01*
X67999284Y-83674205D01*
X67750894Y-83073057D01*
X67291363Y-82612722D01*
X66690648Y-82363284D01*
X66040205Y-82362716D01*
X65439057Y-82611106D01*
X64978722Y-83070637D01*
X64729284Y-83671352D01*
X64728716Y-84321795D01*
X62411162Y-84321795D01*
X62411284Y-84182205D01*
X62162894Y-83581057D01*
X61818241Y-83235801D01*
X62161278Y-82893363D01*
X62410716Y-82292648D01*
X62411284Y-81642205D01*
X62162894Y-81041057D01*
X61703363Y-80580722D01*
X61102648Y-80331284D01*
X60452205Y-80330716D01*
X59851057Y-80579106D01*
X59390722Y-81038637D01*
X59141284Y-81639352D01*
X59140716Y-82289795D01*
X59389106Y-82890943D01*
X59733759Y-83236199D01*
X59598722Y-83371000D01*
X58998000Y-83371000D01*
X58563654Y-83457397D01*
X58280790Y-83646401D01*
X58195434Y-83703434D01*
X57433434Y-84465434D01*
X57187397Y-84833654D01*
X57101000Y-85268000D01*
X57101000Y-88570000D01*
X57187397Y-89004346D01*
X57267748Y-89124599D01*
X57433434Y-89372566D01*
X62350868Y-94290000D01*
X50710000Y-94290000D01*
X50710000Y-92343599D01*
X53264699Y-92343599D01*
X53528281Y-92981515D01*
X54015918Y-93470004D01*
X54653373Y-93734699D01*
X55343599Y-93735301D01*
X55981515Y-93471719D01*
X56470004Y-92984082D01*
X56734699Y-92346627D01*
X56735301Y-91656401D01*
X56471719Y-91018485D01*
X55984082Y-90529996D01*
X55346627Y-90265301D01*
X54656401Y-90264699D01*
X54018485Y-90528281D01*
X53529996Y-91015918D01*
X53265301Y-91653373D01*
X53264699Y-92343599D01*
X50710000Y-92343599D01*
X50710000Y-74442000D01*
X55816560Y-74442000D01*
X55816560Y-75242000D01*
X55860838Y-75477317D01*
X55999910Y-75693441D01*
X56212110Y-75838431D01*
X56464000Y-75889440D01*
X57214000Y-75889440D01*
X57449317Y-75845162D01*
X57452677Y-75843000D01*
X59271564Y-75843000D01*
X59609436Y-76181461D01*
X60118298Y-76392759D01*
X60669285Y-76393240D01*
X61178515Y-76182831D01*
X61568461Y-75793564D01*
X61779759Y-75284702D01*
X61780240Y-74733715D01*
X61569831Y-74224485D01*
X61180564Y-73834539D01*
X61084583Y-73794684D01*
X61118923Y-73780460D01*
X61186912Y-73539517D01*
X60395000Y-72747605D01*
X59603088Y-73539517D01*
X59671077Y-73780460D01*
X59707596Y-73793457D01*
X59611485Y-73833169D01*
X59271061Y-74173000D01*
X57795488Y-74173000D01*
X57750671Y-74103354D01*
X57752327Y-74101698D01*
X57849000Y-73868309D01*
X57849000Y-73627750D01*
X57690250Y-73469000D01*
X56966000Y-73469000D01*
X56966000Y-73489000D01*
X56712000Y-73489000D01*
X56712000Y-73469000D01*
X55987750Y-73469000D01*
X55829000Y-73627750D01*
X55829000Y-73868309D01*
X55925673Y-74101698D01*
X55927043Y-74103068D01*
X55867569Y-74190110D01*
X55816560Y-74442000D01*
X50710000Y-74442000D01*
X50710000Y-72079750D01*
X55829000Y-72079750D01*
X55829000Y-72320309D01*
X55925673Y-72553698D01*
X55939975Y-72568000D01*
X55925673Y-72582302D01*
X55829000Y-72815691D01*
X55829000Y-73056250D01*
X55987750Y-73215000D01*
X56712000Y-73215000D01*
X56712000Y-71921000D01*
X56966000Y-71921000D01*
X56966000Y-73215000D01*
X57690250Y-73215000D01*
X57849000Y-73056250D01*
X57849000Y-72815691D01*
X57752327Y-72582302D01*
X57738025Y-72568000D01*
X57752327Y-72553698D01*
X57831245Y-72363171D01*
X58997799Y-72363171D01*
X59025770Y-72913448D01*
X59182540Y-73291923D01*
X59423483Y-73359912D01*
X60215395Y-72568000D01*
X60574605Y-72568000D01*
X61366517Y-73359912D01*
X61607460Y-73291923D01*
X61792201Y-72772829D01*
X61764230Y-72222552D01*
X61607460Y-71844077D01*
X61366517Y-71776088D01*
X60574605Y-72568000D01*
X60215395Y-72568000D01*
X59423483Y-71776088D01*
X59182540Y-71844077D01*
X58997799Y-72363171D01*
X57831245Y-72363171D01*
X57849000Y-72320309D01*
X57849000Y-72079750D01*
X57690250Y-71921000D01*
X56966000Y-71921000D01*
X56712000Y-71921000D01*
X55987750Y-71921000D01*
X55829000Y-72079750D01*
X50710000Y-72079750D01*
X50710000Y-69894000D01*
X55816560Y-69894000D01*
X55816560Y-70694000D01*
X55860838Y-70929317D01*
X55927329Y-71032646D01*
X55925673Y-71034302D01*
X55829000Y-71267691D01*
X55829000Y-71508250D01*
X55987750Y-71667000D01*
X56712000Y-71667000D01*
X56712000Y-71647000D01*
X56966000Y-71647000D01*
X56966000Y-71667000D01*
X57690250Y-71667000D01*
X57849000Y-71508250D01*
X57849000Y-71267691D01*
X57752327Y-71034302D01*
X57750957Y-71032932D01*
X57798740Y-70963000D01*
X59271564Y-70963000D01*
X59609436Y-71301461D01*
X59705417Y-71341316D01*
X59671077Y-71355540D01*
X59603088Y-71596483D01*
X60395000Y-72388395D01*
X61186912Y-71596483D01*
X61118923Y-71355540D01*
X61082404Y-71342543D01*
X61178515Y-71302831D01*
X61568461Y-70913564D01*
X61779759Y-70404702D01*
X61780240Y-69853715D01*
X61569831Y-69344485D01*
X61180564Y-68954539D01*
X60671702Y-68743241D01*
X60120715Y-68742760D01*
X59611485Y-68953169D01*
X59271061Y-69293000D01*
X57443328Y-69293000D01*
X57214000Y-69246560D01*
X56464000Y-69246560D01*
X56228683Y-69290838D01*
X56012559Y-69429910D01*
X55867569Y-69642110D01*
X55816560Y-69894000D01*
X50710000Y-69894000D01*
X50710000Y-63426001D01*
X50948126Y-63299000D01*
X64700560Y-63299000D01*
X64700560Y-64819000D01*
X64744838Y-65054317D01*
X64883910Y-65270441D01*
X65096110Y-65415431D01*
X65348000Y-65466440D01*
X65735076Y-65466440D01*
X65779083Y-65687673D01*
X65800367Y-65794675D01*
X65868604Y-65896799D01*
X65992210Y-66081790D01*
X66029256Y-66118836D01*
X66078883Y-66238943D01*
X66341673Y-66502192D01*
X66685201Y-66644838D01*
X67057167Y-66645162D01*
X67400943Y-66503117D01*
X67664192Y-66240327D01*
X67806838Y-65896799D01*
X67807162Y-65524833D01*
X67783035Y-65466440D01*
X67888000Y-65466440D01*
X68123317Y-65422162D01*
X68339441Y-65283090D01*
X68484431Y-65070890D01*
X68535440Y-64819000D01*
X68535440Y-63299000D01*
X68491162Y-63063683D01*
X68352090Y-62847559D01*
X68272112Y-62792913D01*
X68426327Y-62638699D01*
X68523000Y-62405310D01*
X68523000Y-61804750D01*
X68364250Y-61646000D01*
X66745000Y-61646000D01*
X66745000Y-61666000D01*
X66491000Y-61666000D01*
X66491000Y-61646000D01*
X64871750Y-61646000D01*
X64713000Y-61804750D01*
X64713000Y-62405310D01*
X64809673Y-62638699D01*
X64963080Y-62792105D01*
X64896559Y-62834910D01*
X64751569Y-63047110D01*
X64700560Y-63299000D01*
X50948126Y-63299000D01*
X64702560Y-55963302D01*
X64702560Y-57199000D01*
X64746838Y-57434317D01*
X64885910Y-57650441D01*
X64969815Y-57707771D01*
X64896559Y-57754910D01*
X64751569Y-57967110D01*
X64700560Y-58219000D01*
X64700560Y-59739000D01*
X64744838Y-59974317D01*
X64883910Y-60190441D01*
X64963888Y-60245087D01*
X64809673Y-60399301D01*
X64713000Y-60632690D01*
X64713000Y-61233250D01*
X64871750Y-61392000D01*
X66491000Y-61392000D01*
X66491000Y-61372000D01*
X66745000Y-61372000D01*
X66745000Y-61392000D01*
X68364250Y-61392000D01*
X68523000Y-61233250D01*
X68523000Y-60632690D01*
X68426327Y-60399301D01*
X68295025Y-60268000D01*
X68903670Y-60268000D01*
X69108971Y-60268179D01*
X69489515Y-60110942D01*
X69780919Y-59820046D01*
X69938820Y-59439777D01*
X69939179Y-59028029D01*
X69781942Y-58647485D01*
X69491046Y-58356081D01*
X69110777Y-58198180D01*
X68699029Y-58197821D01*
X68698596Y-58198000D01*
X68531489Y-58198000D01*
X68491162Y-57983683D01*
X68352090Y-57767559D01*
X68268185Y-57710229D01*
X68341441Y-57663090D01*
X68486431Y-57450890D01*
X68537440Y-57199000D01*
X68537440Y-55710000D01*
X81462560Y-55710000D01*
X81462560Y-57199000D01*
X81462560Y-57199000D01*
G37*
X81462560Y-57199000D02*
X81506838Y-57434317D01*
X81645910Y-57650441D01*
X81729815Y-57707771D01*
X81656559Y-57754910D01*
X81511569Y-57967110D01*
X81460560Y-58219000D01*
X81460560Y-59739000D01*
X81504838Y-59974317D01*
X81643910Y-60190441D01*
X81728785Y-60248434D01*
X81656559Y-60294910D01*
X81511569Y-60507110D01*
X81460560Y-60759000D01*
X81460560Y-62279000D01*
X81504838Y-62514317D01*
X81643910Y-62730441D01*
X81728785Y-62788434D01*
X81656559Y-62834910D01*
X81511569Y-63047110D01*
X81460560Y-63299000D01*
X81460560Y-64819000D01*
X81504838Y-65054317D01*
X81643910Y-65270441D01*
X81856110Y-65415431D01*
X82108000Y-65466440D01*
X83319427Y-65466440D01*
X83097808Y-65687673D01*
X82955162Y-66031201D01*
X82954838Y-66403167D01*
X83096883Y-66746943D01*
X83206748Y-66857000D01*
X81731005Y-66857000D01*
X81731000Y-66856999D01*
X81392326Y-66924366D01*
X81323190Y-66970561D01*
X81105210Y-67116210D01*
X81105208Y-67116213D01*
X79119209Y-69102211D01*
X79119207Y-69102214D01*
X79036165Y-69185255D01*
X78916057Y-69234883D01*
X78652808Y-69497673D01*
X78510162Y-69841201D01*
X78509838Y-70213167D01*
X78651883Y-70556943D01*
X78914673Y-70820192D01*
X79258201Y-70962838D01*
X79630167Y-70963162D01*
X79973943Y-70821117D01*
X80237192Y-70558327D01*
X80287566Y-70437013D01*
X80370786Y-70353793D01*
X80370789Y-70353791D01*
X82097579Y-68627000D01*
X83583178Y-68627000D01*
X83703201Y-68676838D01*
X84075167Y-68677162D01*
X84242988Y-68607820D01*
X84265910Y-68643441D01*
X84478110Y-68788431D01*
X84727827Y-68839000D01*
X83890816Y-68839000D01*
X83704833Y-68838838D01*
X83361057Y-68980883D01*
X83097808Y-69243673D01*
X82955162Y-69587201D01*
X82954838Y-69959167D01*
X83096883Y-70302943D01*
X83329709Y-70536176D01*
X83097808Y-70767673D01*
X82955162Y-71111201D01*
X82954838Y-71483167D01*
X83096883Y-71826943D01*
X83256661Y-71987000D01*
X78393868Y-71987000D01*
X75638535Y-69231667D01*
X75539117Y-68991057D01*
X75276327Y-68727808D01*
X74932799Y-68585162D01*
X74560833Y-68584838D01*
X74217057Y-68726883D01*
X73953808Y-68989673D01*
X73811162Y-69333201D01*
X73810838Y-69705167D01*
X73952883Y-70048943D01*
X74215673Y-70312192D01*
X74457910Y-70412778D01*
X77457566Y-73412434D01*
X77728459Y-73593439D01*
X78048000Y-73657000D01*
X83256758Y-73657000D01*
X83097808Y-73815673D01*
X82955162Y-74159201D01*
X82954838Y-74531167D01*
X83096883Y-74874943D01*
X83359673Y-75138192D01*
X83703201Y-75280838D01*
X84075167Y-75281162D01*
X84242988Y-75211820D01*
X84265910Y-75247441D01*
X84295000Y-75267317D01*
X84295000Y-75584250D01*
X84453750Y-75743000D01*
X85303000Y-75743000D01*
X85303000Y-75723000D01*
X85557000Y-75723000D01*
X85557000Y-75743000D01*
X85577000Y-75743000D01*
X85577000Y-75997000D01*
X85557000Y-75997000D01*
X85557000Y-76017000D01*
X85303000Y-76017000D01*
X85303000Y-75997000D01*
X84453750Y-75997000D01*
X84345750Y-76105000D01*
X80508711Y-76105000D01*
X80049856Y-75646144D01*
X79714077Y-75421785D01*
X79318000Y-75342999D01*
X79317995Y-75343000D01*
X76486579Y-75343000D01*
X73229267Y-72085687D01*
X73267838Y-71992797D01*
X73268162Y-71620831D01*
X73126117Y-71277055D01*
X72863327Y-71013806D01*
X72519799Y-70871160D01*
X72147833Y-70870836D01*
X72026431Y-70920998D01*
X70480819Y-70920998D01*
X70360801Y-70871162D01*
X69988835Y-70870838D01*
X69645059Y-71012883D01*
X69381810Y-71275673D01*
X69239164Y-71619201D01*
X69238840Y-71991167D01*
X69380885Y-72334943D01*
X69643675Y-72598192D01*
X69987203Y-72740838D01*
X70359169Y-72741162D01*
X70480575Y-72690998D01*
X71497728Y-72690998D01*
X71504190Y-72723484D01*
X71515367Y-72779675D01*
X71668462Y-73008799D01*
X71707210Y-73066790D01*
X75018421Y-76378000D01*
X71199232Y-80197188D01*
X71007389Y-80484303D01*
X71007389Y-80484304D01*
X70957365Y-80735786D01*
X66952744Y-76731164D01*
X66903117Y-76611057D01*
X66640327Y-76347808D01*
X66296799Y-76205162D01*
X65924833Y-76204838D01*
X65581057Y-76346883D01*
X65317808Y-76609673D01*
X65175162Y-76953201D01*
X65174838Y-77325167D01*
X65316883Y-77668943D01*
X65579673Y-77932192D01*
X65700986Y-77982566D01*
X70056208Y-82337787D01*
X70056210Y-82337790D01*
X70343325Y-82529633D01*
X70682000Y-82597000D01*
X71518200Y-82597000D01*
X71638223Y-82646838D01*
X72010189Y-82647162D01*
X72353965Y-82505117D01*
X72617214Y-82242327D01*
X72667806Y-82120488D01*
X81701973Y-82120488D01*
X81701973Y-82411048D01*
X81726284Y-82469739D01*
X81701973Y-82528430D01*
X81701973Y-82818990D01*
X81860723Y-82977740D01*
X82809973Y-82977740D01*
X82809973Y-81961738D01*
X81860723Y-81961738D01*
X81701973Y-82120488D01*
X72667806Y-82120488D01*
X72759860Y-81898799D01*
X72760184Y-81526833D01*
X72710022Y-81405431D01*
X72710022Y-81189558D01*
X73049090Y-80850489D01*
X81701972Y-80850489D01*
X81701972Y-81141049D01*
X81726283Y-81199740D01*
X81701973Y-81258428D01*
X81701973Y-81548988D01*
X81860723Y-81707738D01*
X82809973Y-81707738D01*
X82809973Y-80908488D01*
X82809972Y-80908487D01*
X82809972Y-80691739D01*
X81860722Y-80691739D01*
X81701972Y-80850489D01*
X73049090Y-80850489D01*
X74319089Y-79580490D01*
X81701972Y-79580490D01*
X81701972Y-79871050D01*
X81726282Y-79929740D01*
X81701972Y-79988429D01*
X81701972Y-80278989D01*
X81860722Y-80437739D01*
X82809972Y-80437739D01*
X82809972Y-79421740D01*
X81860722Y-79421740D01*
X81701972Y-79580490D01*
X74319089Y-79580490D01*
X75181149Y-78718430D01*
X81701972Y-78718430D01*
X81701972Y-79008990D01*
X81860722Y-79167740D01*
X82809972Y-79167740D01*
X82809972Y-78368490D01*
X82651222Y-78209740D01*
X82210663Y-78209740D01*
X81977274Y-78306413D01*
X81798645Y-78485041D01*
X81701972Y-78718430D01*
X75181149Y-78718430D01*
X76486579Y-77413000D01*
X78889288Y-77413000D01*
X79348142Y-77871853D01*
X79348144Y-77871856D01*
X79651930Y-78074838D01*
X79683923Y-78096215D01*
X80080000Y-78175001D01*
X80080005Y-78175000D01*
X86875868Y-78175000D01*
X87405434Y-78704566D01*
X87773654Y-78950603D01*
X88208000Y-79037000D01*
X94439000Y-79037000D01*
X94439000Y-79394250D01*
X94597750Y-79553000D01*
X95447000Y-79553000D01*
X95447000Y-79533000D01*
X95701000Y-79533000D01*
X95701000Y-79553000D01*
X95721000Y-79553000D01*
X95721000Y-79807000D01*
X95701000Y-79807000D01*
X95701000Y-79827000D01*
X95447000Y-79827000D01*
X95447000Y-79807000D01*
X94597750Y-79807000D01*
X94439000Y-79965750D01*
X94439000Y-80383560D01*
X94385000Y-80383560D01*
X94149683Y-80427838D01*
X93933559Y-80566910D01*
X93788569Y-80779110D01*
X93737560Y-81031000D01*
X93737560Y-82581000D01*
X93781838Y-82816317D01*
X93920910Y-83032441D01*
X94133110Y-83177431D01*
X94385000Y-83228440D01*
X94985000Y-83228440D01*
X95220317Y-83184162D01*
X95310980Y-83125822D01*
X95528690Y-83216000D01*
X95669250Y-83216000D01*
X95828000Y-83057250D01*
X95828000Y-81933000D01*
X95808000Y-81933000D01*
X95808000Y-81679000D01*
X95828000Y-81679000D01*
X95828000Y-81659000D01*
X96082000Y-81659000D01*
X96082000Y-81679000D01*
X96102000Y-81679000D01*
X96102000Y-81933000D01*
X96082000Y-81933000D01*
X96082000Y-83057250D01*
X96240750Y-83216000D01*
X96381310Y-83216000D01*
X96598122Y-83126194D01*
X96673110Y-83177431D01*
X96925000Y-83228440D01*
X97525000Y-83228440D01*
X97760317Y-83184162D01*
X97859528Y-83120322D01*
X97943110Y-83177431D01*
X98195000Y-83228440D01*
X98795000Y-83228440D01*
X99030317Y-83184162D01*
X99246441Y-83045090D01*
X99290000Y-82981339D01*
X99290000Y-86027594D01*
X99259090Y-85979559D01*
X99046890Y-85834569D01*
X98795000Y-85783560D01*
X98195000Y-85783560D01*
X97959683Y-85827838D01*
X97869020Y-85886178D01*
X97651310Y-85796000D01*
X97510750Y-85796000D01*
X97352000Y-85954750D01*
X97352000Y-87079000D01*
X97372000Y-87079000D01*
X97372000Y-87333000D01*
X97352000Y-87333000D01*
X97352000Y-87353000D01*
X97098000Y-87353000D01*
X97098000Y-87333000D01*
X96082000Y-87333000D01*
X96082000Y-87353000D01*
X95828000Y-87353000D01*
X95828000Y-87333000D01*
X95808000Y-87333000D01*
X95808000Y-87079000D01*
X95828000Y-87079000D01*
X95828000Y-85954750D01*
X96082000Y-85954750D01*
X96082000Y-87079000D01*
X97098000Y-87079000D01*
X97098000Y-85954750D01*
X96939250Y-85796000D01*
X96798690Y-85796000D01*
X96590000Y-85882442D01*
X96381310Y-85796000D01*
X96240750Y-85796000D01*
X96082000Y-85954750D01*
X95828000Y-85954750D01*
X95669250Y-85796000D01*
X95528690Y-85796000D01*
X95311878Y-85885806D01*
X95236890Y-85834569D01*
X94985000Y-85783560D01*
X94385000Y-85783560D01*
X94149683Y-85827838D01*
X93933559Y-85966910D01*
X93914366Y-85995000D01*
X93584026Y-85995000D01*
X93689327Y-85889698D01*
X93786000Y-85656309D01*
X93786000Y-85315750D01*
X93627250Y-85157000D01*
X92653000Y-85157000D01*
X92653000Y-85177000D01*
X92399000Y-85177000D01*
X92399000Y-85157000D01*
X92379000Y-85157000D01*
X92379000Y-84903000D01*
X92399000Y-84903000D01*
X92399000Y-84053750D01*
X92653000Y-84053750D01*
X92653000Y-84903000D01*
X93627250Y-84903000D01*
X93786000Y-84744250D01*
X93786000Y-84403691D01*
X93689327Y-84170302D01*
X93510699Y-83991673D01*
X93277310Y-83895000D01*
X92811750Y-83895000D01*
X92653000Y-84053750D01*
X92399000Y-84053750D01*
X92240250Y-83895000D01*
X91774690Y-83895000D01*
X91541301Y-83991673D01*
X91362673Y-84170302D01*
X91266000Y-84403691D01*
X91266000Y-84688868D01*
X90859197Y-84282065D01*
X90859284Y-84182205D01*
X90610894Y-83581057D01*
X90266241Y-83235801D01*
X90609278Y-82893363D01*
X90858716Y-82292648D01*
X90859284Y-81642205D01*
X90610894Y-81041057D01*
X90151363Y-80580722D01*
X89550648Y-80331284D01*
X88900205Y-80330716D01*
X88299057Y-80579106D01*
X87838722Y-81038637D01*
X87589284Y-81639352D01*
X87588716Y-82289795D01*
X87837106Y-82890943D01*
X88181759Y-83236199D01*
X87838722Y-83578637D01*
X87819470Y-83625000D01*
X87624431Y-83625000D01*
X87563000Y-83612560D01*
X87131195Y-83612560D01*
X86874500Y-83561500D01*
X86873509Y-83561500D01*
X86983838Y-83295799D01*
X86984162Y-82923833D01*
X86842117Y-82580057D01*
X86736290Y-82474046D01*
X86841192Y-82369327D01*
X86983838Y-82025799D01*
X86984162Y-81653833D01*
X86842117Y-81310057D01*
X86736290Y-81204046D01*
X86841192Y-81099327D01*
X86983838Y-80755799D01*
X86984162Y-80383833D01*
X86842117Y-80040057D01*
X86736290Y-79934046D01*
X86841192Y-79829327D01*
X86983838Y-79485799D01*
X86984162Y-79113833D01*
X86842117Y-78770057D01*
X86579327Y-78506808D01*
X86235799Y-78364162D01*
X86158320Y-78364095D01*
X85988862Y-78248309D01*
X85736972Y-78197300D01*
X84536972Y-78197300D01*
X84301655Y-78241578D01*
X84085531Y-78380650D01*
X84039003Y-78448746D01*
X83896670Y-78306413D01*
X83663281Y-78209740D01*
X83222722Y-78209740D01*
X83063972Y-78368490D01*
X83063972Y-79167740D01*
X83083972Y-79167740D01*
X83083972Y-79421740D01*
X83063972Y-79421740D01*
X83063972Y-80437739D01*
X83083972Y-80437739D01*
X83083972Y-80691739D01*
X83063972Y-80691739D01*
X83063972Y-81490989D01*
X83063973Y-81490990D01*
X83063973Y-81707738D01*
X83083973Y-81707738D01*
X83083973Y-81961738D01*
X83063973Y-81961738D01*
X83063973Y-82977740D01*
X83083973Y-82977740D01*
X83083973Y-83231740D01*
X83063973Y-83231740D01*
X83063973Y-83786594D01*
X83039569Y-83822310D01*
X82988560Y-84074200D01*
X82988560Y-85149694D01*
X82946918Y-84940346D01*
X82934648Y-84878662D01*
X82769901Y-84632101D01*
X82695400Y-84557600D01*
X82448838Y-84392853D01*
X82157999Y-84335001D01*
X82015440Y-84363358D01*
X82015440Y-84108875D01*
X82210664Y-84189740D01*
X82651223Y-84189740D01*
X82809973Y-84030990D01*
X82809973Y-83231740D01*
X81860723Y-83231740D01*
X81820098Y-83272365D01*
X81619890Y-83135569D01*
X81368000Y-83084560D01*
X79668000Y-83084560D01*
X79432683Y-83128838D01*
X79216559Y-83267910D01*
X79071569Y-83480110D01*
X79020560Y-83732000D01*
X79020560Y-85432000D01*
X79064838Y-85667317D01*
X79203910Y-85883441D01*
X79416110Y-86028431D01*
X79524107Y-86050301D01*
X79246355Y-86355076D01*
X79076524Y-86765110D01*
X79197845Y-86995000D01*
X80391000Y-86995000D01*
X80391000Y-86975000D01*
X80645000Y-86975000D01*
X80645000Y-86995000D01*
X80665000Y-86995000D01*
X80665000Y-87249000D01*
X80645000Y-87249000D01*
X80645000Y-87269000D01*
X80391000Y-87269000D01*
X80391000Y-87249000D01*
X79197845Y-87249000D01*
X79076524Y-87478890D01*
X79246355Y-87888924D01*
X79636642Y-88317183D01*
X79779553Y-88384298D01*
X79438853Y-88611946D01*
X79329062Y-88776260D01*
X78003400Y-87450598D01*
X78093838Y-87232799D01*
X78094162Y-86860833D01*
X77952117Y-86517057D01*
X77689327Y-86253808D01*
X77345799Y-86111162D01*
X76973833Y-86110838D01*
X76630057Y-86252883D01*
X76366808Y-86515673D01*
X76224162Y-86859201D01*
X76223838Y-87231167D01*
X76365883Y-87574943D01*
X76399000Y-87608118D01*
X76399000Y-87681000D01*
X76456852Y-87971839D01*
X76621599Y-88218401D01*
X78602599Y-90199401D01*
X78849161Y-90364148D01*
X79140000Y-90422000D01*
X79245046Y-90422000D01*
X79438853Y-90712054D01*
X79768026Y-90932000D01*
X79438853Y-91151946D01*
X79116946Y-91633715D01*
X79003907Y-92202000D01*
X79116946Y-92770285D01*
X79166869Y-92845000D01*
X64116132Y-92845000D01*
X59469664Y-88198532D01*
X59803073Y-88198532D01*
X59901736Y-88465387D01*
X60511461Y-88691908D01*
X61161460Y-88667856D01*
X61650264Y-88465387D01*
X61748927Y-88198532D01*
X60776000Y-87225605D01*
X59803073Y-88198532D01*
X59469664Y-88198532D01*
X59371000Y-88099868D01*
X59371000Y-87925583D01*
X59623468Y-88018927D01*
X60596395Y-87046000D01*
X60955605Y-87046000D01*
X61928532Y-88018927D01*
X62045821Y-87975562D01*
X68334246Y-87975562D01*
X68605212Y-88566878D01*
X69081838Y-89009489D01*
X69570642Y-89211958D01*
X69829102Y-89093028D01*
X69829102Y-87783851D01*
X69970243Y-87783851D01*
X70083102Y-87896710D01*
X70083102Y-89093028D01*
X70117394Y-89108807D01*
X70116869Y-89709948D01*
X70365259Y-90311096D01*
X70824790Y-90771431D01*
X71425505Y-91020869D01*
X71913343Y-91021295D01*
X71912920Y-91505999D01*
X72161310Y-92107147D01*
X72620841Y-92567482D01*
X73221556Y-92816920D01*
X73871999Y-92817488D01*
X74473147Y-92569098D01*
X74933482Y-92109567D01*
X75182920Y-91508852D01*
X75183488Y-90858409D01*
X74935098Y-90257261D01*
X74475567Y-89796926D01*
X74308204Y-89727431D01*
X74308204Y-87626204D01*
X74250352Y-87335365D01*
X74085605Y-87088803D01*
X71998119Y-85001317D01*
X71998159Y-84955830D01*
X71856114Y-84612054D01*
X71593324Y-84348805D01*
X71249796Y-84206159D01*
X70877830Y-84205835D01*
X70534054Y-84347880D01*
X70270805Y-84610670D01*
X70128159Y-84954198D01*
X70127835Y-85326164D01*
X70269880Y-85669940D01*
X70532670Y-85933189D01*
X70876198Y-86075835D01*
X70923074Y-86075876D01*
X72788204Y-87941006D01*
X72788204Y-88109753D01*
X72679516Y-88000875D01*
X72078801Y-87751437D01*
X71474584Y-87750909D01*
X71459028Y-87717102D01*
X70262710Y-87717102D01*
X70149851Y-87604243D01*
X69970243Y-87783851D01*
X69829102Y-87783851D01*
X69829102Y-87717102D01*
X68453176Y-87717102D01*
X68334246Y-87975562D01*
X62045821Y-87975562D01*
X62195387Y-87920264D01*
X62421908Y-87310539D01*
X62397856Y-86660540D01*
X62195387Y-86171736D01*
X61928532Y-86073073D01*
X60955605Y-87046000D01*
X60596395Y-87046000D01*
X59623468Y-86073073D01*
X59371000Y-86166417D01*
X59371000Y-85738132D01*
X59468132Y-85641000D01*
X59598796Y-85641000D01*
X59815978Y-85858562D01*
X59803073Y-85893468D01*
X60776000Y-86866395D01*
X61748927Y-85893468D01*
X61735836Y-85858062D01*
X62161278Y-85433363D01*
X62410716Y-84832648D01*
X62411162Y-84321795D01*
X64728716Y-84321795D01*
X64977106Y-84922943D01*
X65436637Y-85383278D01*
X66037352Y-85632716D01*
X66525190Y-85633142D01*
X66524767Y-86117846D01*
X66773157Y-86718994D01*
X67232688Y-87179329D01*
X67833403Y-87428767D01*
X68437620Y-87429295D01*
X68453176Y-87463102D01*
X69649494Y-87463102D01*
X69762353Y-87575961D01*
X69941961Y-87396353D01*
X69829102Y-87283494D01*
X69829102Y-86087176D01*
X70083102Y-86087176D01*
X70083102Y-87463102D01*
X71459028Y-87463102D01*
X71577958Y-87204642D01*
X71306992Y-86613326D01*
X70830366Y-86170715D01*
X70341562Y-85968246D01*
X70083102Y-86087176D01*
X69829102Y-86087176D01*
X69794810Y-86071397D01*
X69795335Y-85470256D01*
X69546945Y-84869108D01*
X69087414Y-84408773D01*
X68486699Y-84159335D01*
X67998861Y-84158909D01*
X67999284Y-83674205D01*
X67750894Y-83073057D01*
X67291363Y-82612722D01*
X66690648Y-82363284D01*
X66040205Y-82362716D01*
X65439057Y-82611106D01*
X64978722Y-83070637D01*
X64729284Y-83671352D01*
X64728716Y-84321795D01*
X62411162Y-84321795D01*
X62411284Y-84182205D01*
X62162894Y-83581057D01*
X61818241Y-83235801D01*
X62161278Y-82893363D01*
X62410716Y-82292648D01*
X62411284Y-81642205D01*
X62162894Y-81041057D01*
X61703363Y-80580722D01*
X61102648Y-80331284D01*
X60452205Y-80330716D01*
X59851057Y-80579106D01*
X59390722Y-81038637D01*
X59141284Y-81639352D01*
X59140716Y-82289795D01*
X59389106Y-82890943D01*
X59733759Y-83236199D01*
X59598722Y-83371000D01*
X58998000Y-83371000D01*
X58563654Y-83457397D01*
X58280790Y-83646401D01*
X58195434Y-83703434D01*
X57433434Y-84465434D01*
X57187397Y-84833654D01*
X57101000Y-85268000D01*
X57101000Y-88570000D01*
X57187397Y-89004346D01*
X57267748Y-89124599D01*
X57433434Y-89372566D01*
X62350868Y-94290000D01*
X50710000Y-94290000D01*
X50710000Y-92343599D01*
X53264699Y-92343599D01*
X53528281Y-92981515D01*
X54015918Y-93470004D01*
X54653373Y-93734699D01*
X55343599Y-93735301D01*
X55981515Y-93471719D01*
X56470004Y-92984082D01*
X56734699Y-92346627D01*
X56735301Y-91656401D01*
X56471719Y-91018485D01*
X55984082Y-90529996D01*
X55346627Y-90265301D01*
X54656401Y-90264699D01*
X54018485Y-90528281D01*
X53529996Y-91015918D01*
X53265301Y-91653373D01*
X53264699Y-92343599D01*
X50710000Y-92343599D01*
X50710000Y-74442000D01*
X55816560Y-74442000D01*
X55816560Y-75242000D01*
X55860838Y-75477317D01*
X55999910Y-75693441D01*
X56212110Y-75838431D01*
X56464000Y-75889440D01*
X57214000Y-75889440D01*
X57449317Y-75845162D01*
X57452677Y-75843000D01*
X59271564Y-75843000D01*
X59609436Y-76181461D01*
X60118298Y-76392759D01*
X60669285Y-76393240D01*
X61178515Y-76182831D01*
X61568461Y-75793564D01*
X61779759Y-75284702D01*
X61780240Y-74733715D01*
X61569831Y-74224485D01*
X61180564Y-73834539D01*
X61084583Y-73794684D01*
X61118923Y-73780460D01*
X61186912Y-73539517D01*
X60395000Y-72747605D01*
X59603088Y-73539517D01*
X59671077Y-73780460D01*
X59707596Y-73793457D01*
X59611485Y-73833169D01*
X59271061Y-74173000D01*
X57795488Y-74173000D01*
X57750671Y-74103354D01*
X57752327Y-74101698D01*
X57849000Y-73868309D01*
X57849000Y-73627750D01*
X57690250Y-73469000D01*
X56966000Y-73469000D01*
X56966000Y-73489000D01*
X56712000Y-73489000D01*
X56712000Y-73469000D01*
X55987750Y-73469000D01*
X55829000Y-73627750D01*
X55829000Y-73868309D01*
X55925673Y-74101698D01*
X55927043Y-74103068D01*
X55867569Y-74190110D01*
X55816560Y-74442000D01*
X50710000Y-74442000D01*
X50710000Y-72079750D01*
X55829000Y-72079750D01*
X55829000Y-72320309D01*
X55925673Y-72553698D01*
X55939975Y-72568000D01*
X55925673Y-72582302D01*
X55829000Y-72815691D01*
X55829000Y-73056250D01*
X55987750Y-73215000D01*
X56712000Y-73215000D01*
X56712000Y-71921000D01*
X56966000Y-71921000D01*
X56966000Y-73215000D01*
X57690250Y-73215000D01*
X57849000Y-73056250D01*
X57849000Y-72815691D01*
X57752327Y-72582302D01*
X57738025Y-72568000D01*
X57752327Y-72553698D01*
X57831245Y-72363171D01*
X58997799Y-72363171D01*
X59025770Y-72913448D01*
X59182540Y-73291923D01*
X59423483Y-73359912D01*
X60215395Y-72568000D01*
X60574605Y-72568000D01*
X61366517Y-73359912D01*
X61607460Y-73291923D01*
X61792201Y-72772829D01*
X61764230Y-72222552D01*
X61607460Y-71844077D01*
X61366517Y-71776088D01*
X60574605Y-72568000D01*
X60215395Y-72568000D01*
X59423483Y-71776088D01*
X59182540Y-71844077D01*
X58997799Y-72363171D01*
X57831245Y-72363171D01*
X57849000Y-72320309D01*
X57849000Y-72079750D01*
X57690250Y-71921000D01*
X56966000Y-71921000D01*
X56712000Y-71921000D01*
X55987750Y-71921000D01*
X55829000Y-72079750D01*
X50710000Y-72079750D01*
X50710000Y-69894000D01*
X55816560Y-69894000D01*
X55816560Y-70694000D01*
X55860838Y-70929317D01*
X55927329Y-71032646D01*
X55925673Y-71034302D01*
X55829000Y-71267691D01*
X55829000Y-71508250D01*
X55987750Y-71667000D01*
X56712000Y-71667000D01*
X56712000Y-71647000D01*
X56966000Y-71647000D01*
X56966000Y-71667000D01*
X57690250Y-71667000D01*
X57849000Y-71508250D01*
X57849000Y-71267691D01*
X57752327Y-71034302D01*
X57750957Y-71032932D01*
X57798740Y-70963000D01*
X59271564Y-70963000D01*
X59609436Y-71301461D01*
X59705417Y-71341316D01*
X59671077Y-71355540D01*
X59603088Y-71596483D01*
X60395000Y-72388395D01*
X61186912Y-71596483D01*
X61118923Y-71355540D01*
X61082404Y-71342543D01*
X61178515Y-71302831D01*
X61568461Y-70913564D01*
X61779759Y-70404702D01*
X61780240Y-69853715D01*
X61569831Y-69344485D01*
X61180564Y-68954539D01*
X60671702Y-68743241D01*
X60120715Y-68742760D01*
X59611485Y-68953169D01*
X59271061Y-69293000D01*
X57443328Y-69293000D01*
X57214000Y-69246560D01*
X56464000Y-69246560D01*
X56228683Y-69290838D01*
X56012559Y-69429910D01*
X55867569Y-69642110D01*
X55816560Y-69894000D01*
X50710000Y-69894000D01*
X50710000Y-63426001D01*
X50948126Y-63299000D01*
X64700560Y-63299000D01*
X64700560Y-64819000D01*
X64744838Y-65054317D01*
X64883910Y-65270441D01*
X65096110Y-65415431D01*
X65348000Y-65466440D01*
X65735076Y-65466440D01*
X65779083Y-65687673D01*
X65800367Y-65794675D01*
X65868604Y-65896799D01*
X65992210Y-66081790D01*
X66029256Y-66118836D01*
X66078883Y-66238943D01*
X66341673Y-66502192D01*
X66685201Y-66644838D01*
X67057167Y-66645162D01*
X67400943Y-66503117D01*
X67664192Y-66240327D01*
X67806838Y-65896799D01*
X67807162Y-65524833D01*
X67783035Y-65466440D01*
X67888000Y-65466440D01*
X68123317Y-65422162D01*
X68339441Y-65283090D01*
X68484431Y-65070890D01*
X68535440Y-64819000D01*
X68535440Y-63299000D01*
X68491162Y-63063683D01*
X68352090Y-62847559D01*
X68272112Y-62792913D01*
X68426327Y-62638699D01*
X68523000Y-62405310D01*
X68523000Y-61804750D01*
X68364250Y-61646000D01*
X66745000Y-61646000D01*
X66745000Y-61666000D01*
X66491000Y-61666000D01*
X66491000Y-61646000D01*
X64871750Y-61646000D01*
X64713000Y-61804750D01*
X64713000Y-62405310D01*
X64809673Y-62638699D01*
X64963080Y-62792105D01*
X64896559Y-62834910D01*
X64751569Y-63047110D01*
X64700560Y-63299000D01*
X50948126Y-63299000D01*
X64702560Y-55963302D01*
X64702560Y-57199000D01*
X64746838Y-57434317D01*
X64885910Y-57650441D01*
X64969815Y-57707771D01*
X64896559Y-57754910D01*
X64751569Y-57967110D01*
X64700560Y-58219000D01*
X64700560Y-59739000D01*
X64744838Y-59974317D01*
X64883910Y-60190441D01*
X64963888Y-60245087D01*
X64809673Y-60399301D01*
X64713000Y-60632690D01*
X64713000Y-61233250D01*
X64871750Y-61392000D01*
X66491000Y-61392000D01*
X66491000Y-61372000D01*
X66745000Y-61372000D01*
X66745000Y-61392000D01*
X68364250Y-61392000D01*
X68523000Y-61233250D01*
X68523000Y-60632690D01*
X68426327Y-60399301D01*
X68295025Y-60268000D01*
X68903670Y-60268000D01*
X69108971Y-60268179D01*
X69489515Y-60110942D01*
X69780919Y-59820046D01*
X69938820Y-59439777D01*
X69939179Y-59028029D01*
X69781942Y-58647485D01*
X69491046Y-58356081D01*
X69110777Y-58198180D01*
X68699029Y-58197821D01*
X68698596Y-58198000D01*
X68531489Y-58198000D01*
X68491162Y-57983683D01*
X68352090Y-57767559D01*
X68268185Y-57710229D01*
X68341441Y-57663090D01*
X68486431Y-57450890D01*
X68537440Y-57199000D01*
X68537440Y-55710000D01*
X81462560Y-55710000D01*
X81462560Y-57199000D01*
G36*
X99290000Y-63426001D02*
X99290000Y-80140184D01*
X99156145Y-79939855D01*
X98721440Y-79505150D01*
X98721440Y-79055000D01*
X98709000Y-78988887D01*
X98709000Y-78632000D01*
X98622603Y-78197654D01*
X98376566Y-77829434D01*
X97646566Y-77099434D01*
X97572000Y-77049611D01*
X97572000Y-76868931D01*
X97663441Y-76810090D01*
X97808431Y-76597890D01*
X97859440Y-76346000D01*
X97859440Y-75546000D01*
X97828205Y-75380000D01*
X97838309Y-75380000D01*
X98071698Y-75283327D01*
X98250327Y-75104699D01*
X98347000Y-74871310D01*
X98347000Y-74580750D01*
X98188250Y-74422000D01*
X97239000Y-74422000D01*
X97239000Y-74442000D01*
X96985000Y-74442000D01*
X96985000Y-74422000D01*
X96965000Y-74422000D01*
X96965000Y-74168000D01*
X96985000Y-74168000D01*
X96985000Y-73368750D01*
X97239000Y-73368750D01*
X97239000Y-74168000D01*
X98188250Y-74168000D01*
X98347000Y-74009250D01*
X98347000Y-73718690D01*
X98250327Y-73485301D01*
X98071698Y-73306673D01*
X97838309Y-73210000D01*
X97397750Y-73210000D01*
X97239000Y-73368750D01*
X96985000Y-73368750D01*
X96826250Y-73210000D01*
X96385691Y-73210000D01*
X96152302Y-73306673D01*
X96011064Y-73447910D01*
X95976090Y-73393559D01*
X95763890Y-73248569D01*
X95512000Y-73197560D01*
X94312000Y-73197560D01*
X94076683Y-73241838D01*
X93860559Y-73380910D01*
X93715569Y-73593110D01*
X93664560Y-73845000D01*
X93664560Y-74745000D01*
X93708838Y-74980317D01*
X93847910Y-75196441D01*
X94060110Y-75341431D01*
X94200240Y-75369808D01*
X94164560Y-75546000D01*
X94164560Y-76346000D01*
X94208838Y-76581317D01*
X94328322Y-76767000D01*
X88678132Y-76767000D01*
X88565000Y-76653868D01*
X88565000Y-76556431D01*
X88577440Y-76495000D01*
X88577440Y-76206087D01*
X88578603Y-76204346D01*
X88601547Y-76089000D01*
X88665000Y-75770000D01*
X88665000Y-75137797D01*
X88726431Y-75047890D01*
X88777440Y-74796000D01*
X88777440Y-73896000D01*
X88733162Y-73660683D01*
X88684566Y-73585162D01*
X88726431Y-73523890D01*
X88777440Y-73272000D01*
X88777440Y-72372000D01*
X88733162Y-72136683D01*
X88684566Y-72061162D01*
X88726431Y-71999890D01*
X88777440Y-71748000D01*
X88777440Y-70848000D01*
X88733162Y-70612683D01*
X88665000Y-70506756D01*
X88665000Y-68533797D01*
X88726431Y-68443890D01*
X88777440Y-68192000D01*
X88777440Y-67292000D01*
X88733162Y-67056683D01*
X88684566Y-66981162D01*
X88726431Y-66919890D01*
X88777440Y-66668000D01*
X88777440Y-65768000D01*
X88733162Y-65532683D01*
X88594090Y-65316559D01*
X88565000Y-65296683D01*
X88565000Y-62923805D01*
X88565001Y-62923800D01*
X88557228Y-62884721D01*
X88557379Y-62711029D01*
X88490463Y-62549080D01*
X88486215Y-62527723D01*
X88474223Y-62509776D01*
X88400142Y-62330485D01*
X88261883Y-62191985D01*
X88261856Y-62191944D01*
X88261853Y-62191942D01*
X88254056Y-62184144D01*
X88109246Y-62039081D01*
X87728977Y-61881180D01*
X87522204Y-61881000D01*
X87522200Y-61880999D01*
X87522196Y-61881000D01*
X87317229Y-61880821D01*
X86936685Y-62038058D01*
X86645281Y-62328954D01*
X86487380Y-62709223D01*
X86487200Y-62915996D01*
X86487199Y-62916000D01*
X86487200Y-62916004D01*
X86487021Y-63120971D01*
X86495000Y-63140282D01*
X86495000Y-65293331D01*
X86478559Y-65303910D01*
X86430866Y-65373711D01*
X86394090Y-65316559D01*
X86181890Y-65171569D01*
X85930000Y-65120560D01*
X85210493Y-65120560D01*
X85244431Y-65070890D01*
X85295440Y-64819000D01*
X85295440Y-63299000D01*
X85251162Y-63063683D01*
X85112090Y-62847559D01*
X85027215Y-62789566D01*
X85099441Y-62743090D01*
X85244431Y-62530890D01*
X85295440Y-62279000D01*
X85295440Y-60759000D01*
X85251162Y-60523683D01*
X85112090Y-60307559D01*
X85027215Y-60249566D01*
X85099441Y-60203090D01*
X85244431Y-59990890D01*
X85295440Y-59739000D01*
X85295440Y-58219000D01*
X85251162Y-57983683D01*
X85112090Y-57767559D01*
X85028185Y-57710229D01*
X85101441Y-57663090D01*
X85246431Y-57450890D01*
X85297440Y-57199000D01*
X85297440Y-55963302D01*
X99290000Y-63426001D01*
X99290000Y-63426001D01*
G37*
X99290000Y-63426001D02*
X99290000Y-80140184D01*
X99156145Y-79939855D01*
X98721440Y-79505150D01*
X98721440Y-79055000D01*
X98709000Y-78988887D01*
X98709000Y-78632000D01*
X98622603Y-78197654D01*
X98376566Y-77829434D01*
X97646566Y-77099434D01*
X97572000Y-77049611D01*
X97572000Y-76868931D01*
X97663441Y-76810090D01*
X97808431Y-76597890D01*
X97859440Y-76346000D01*
X97859440Y-75546000D01*
X97828205Y-75380000D01*
X97838309Y-75380000D01*
X98071698Y-75283327D01*
X98250327Y-75104699D01*
X98347000Y-74871310D01*
X98347000Y-74580750D01*
X98188250Y-74422000D01*
X97239000Y-74422000D01*
X97239000Y-74442000D01*
X96985000Y-74442000D01*
X96985000Y-74422000D01*
X96965000Y-74422000D01*
X96965000Y-74168000D01*
X96985000Y-74168000D01*
X96985000Y-73368750D01*
X97239000Y-73368750D01*
X97239000Y-74168000D01*
X98188250Y-74168000D01*
X98347000Y-74009250D01*
X98347000Y-73718690D01*
X98250327Y-73485301D01*
X98071698Y-73306673D01*
X97838309Y-73210000D01*
X97397750Y-73210000D01*
X97239000Y-73368750D01*
X96985000Y-73368750D01*
X96826250Y-73210000D01*
X96385691Y-73210000D01*
X96152302Y-73306673D01*
X96011064Y-73447910D01*
X95976090Y-73393559D01*
X95763890Y-73248569D01*
X95512000Y-73197560D01*
X94312000Y-73197560D01*
X94076683Y-73241838D01*
X93860559Y-73380910D01*
X93715569Y-73593110D01*
X93664560Y-73845000D01*
X93664560Y-74745000D01*
X93708838Y-74980317D01*
X93847910Y-75196441D01*
X94060110Y-75341431D01*
X94200240Y-75369808D01*
X94164560Y-75546000D01*
X94164560Y-76346000D01*
X94208838Y-76581317D01*
X94328322Y-76767000D01*
X88678132Y-76767000D01*
X88565000Y-76653868D01*
X88565000Y-76556431D01*
X88577440Y-76495000D01*
X88577440Y-76206087D01*
X88578603Y-76204346D01*
X88601547Y-76089000D01*
X88665000Y-75770000D01*
X88665000Y-75137797D01*
X88726431Y-75047890D01*
X88777440Y-74796000D01*
X88777440Y-73896000D01*
X88733162Y-73660683D01*
X88684566Y-73585162D01*
X88726431Y-73523890D01*
X88777440Y-73272000D01*
X88777440Y-72372000D01*
X88733162Y-72136683D01*
X88684566Y-72061162D01*
X88726431Y-71999890D01*
X88777440Y-71748000D01*
X88777440Y-70848000D01*
X88733162Y-70612683D01*
X88665000Y-70506756D01*
X88665000Y-68533797D01*
X88726431Y-68443890D01*
X88777440Y-68192000D01*
X88777440Y-67292000D01*
X88733162Y-67056683D01*
X88684566Y-66981162D01*
X88726431Y-66919890D01*
X88777440Y-66668000D01*
X88777440Y-65768000D01*
X88733162Y-65532683D01*
X88594090Y-65316559D01*
X88565000Y-65296683D01*
X88565000Y-62923805D01*
X88565001Y-62923800D01*
X88557228Y-62884721D01*
X88557379Y-62711029D01*
X88490463Y-62549080D01*
X88486215Y-62527723D01*
X88474223Y-62509776D01*
X88400142Y-62330485D01*
X88261883Y-62191985D01*
X88261856Y-62191944D01*
X88261853Y-62191942D01*
X88254056Y-62184144D01*
X88109246Y-62039081D01*
X87728977Y-61881180D01*
X87522204Y-61881000D01*
X87522200Y-61880999D01*
X87522196Y-61881000D01*
X87317229Y-61880821D01*
X86936685Y-62038058D01*
X86645281Y-62328954D01*
X86487380Y-62709223D01*
X86487200Y-62915996D01*
X86487199Y-62916000D01*
X86487200Y-62916004D01*
X86487021Y-63120971D01*
X86495000Y-63140282D01*
X86495000Y-65293331D01*
X86478559Y-65303910D01*
X86430866Y-65373711D01*
X86394090Y-65316559D01*
X86181890Y-65171569D01*
X85930000Y-65120560D01*
X85210493Y-65120560D01*
X85244431Y-65070890D01*
X85295440Y-64819000D01*
X85295440Y-63299000D01*
X85251162Y-63063683D01*
X85112090Y-62847559D01*
X85027215Y-62789566D01*
X85099441Y-62743090D01*
X85244431Y-62530890D01*
X85295440Y-62279000D01*
X85295440Y-60759000D01*
X85251162Y-60523683D01*
X85112090Y-60307559D01*
X85027215Y-60249566D01*
X85099441Y-60203090D01*
X85244431Y-59990890D01*
X85295440Y-59739000D01*
X85295440Y-58219000D01*
X85251162Y-57983683D01*
X85112090Y-57767559D01*
X85028185Y-57710229D01*
X85101441Y-57663090D01*
X85246431Y-57450890D01*
X85297440Y-57199000D01*
X85297440Y-55963302D01*
X99290000Y-63426001D01*
M02*
