G04 #@! TF.FileFunction,Copper,L2,Bot,Signal*
%FSLAX46Y46*%
G04 Gerber Fmt 4.6, Leading zero omitted, Abs format (unit mm)*
G04 Created by KiCad (PCBNEW 4.0.6) date 03/12/17 16:14:44*
%MOMM*%
%LPD*%
G01*
G04 APERTURE LIST*
%ADD10C,0.100000*%
%ADD11C,2.000000*%
%ADD12C,1.500000*%
%ADD13R,0.750000X0.800000*%
%ADD14R,1.250000X1.000000*%
%ADD15R,0.800000X0.750000*%
%ADD16R,0.800000X0.800000*%
%ADD17R,1.700000X1.700000*%
%ADD18O,1.700000X1.700000*%
%ADD19R,1.900000X1.300000*%
%ADD20R,1.200000X0.700000*%
%ADD21R,1.200000X1.000000*%
%ADD22R,0.800000X1.000000*%
%ADD23R,2.800000X1.000000*%
%ADD24C,0.600000*%
%ADD25C,0.800000*%
%ADD26C,0.250000*%
%ADD27C,0.400000*%
%ADD28C,0.500000*%
%ADD29C,0.800000*%
%ADD30C,0.600000*%
%ADD31C,0.254000*%
G04 APERTURE END LIST*
D10*
D11*
X89224000Y-87046000D03*
X89224000Y-84506000D03*
X89224000Y-81966000D03*
X60776000Y-87046000D03*
X60776000Y-84506000D03*
X60776000Y-81966000D03*
D10*
G36*
X64319899Y-74733977D02*
X64496676Y-74557200D01*
X65203783Y-75264307D01*
X65027006Y-75441084D01*
X64319899Y-74733977D01*
X64319899Y-74733977D01*
G37*
G36*
X64673452Y-74380423D02*
X64850229Y-74203646D01*
X65557336Y-74910753D01*
X65380559Y-75087530D01*
X64673452Y-74380423D01*
X64673452Y-74380423D01*
G37*
G36*
X65027006Y-74026870D02*
X65203783Y-73850093D01*
X65910890Y-74557200D01*
X65734113Y-74733977D01*
X65027006Y-74026870D01*
X65027006Y-74026870D01*
G37*
G36*
X65380559Y-73673317D02*
X65557336Y-73496540D01*
X66264443Y-74203647D01*
X66087666Y-74380424D01*
X65380559Y-73673317D01*
X65380559Y-73673317D01*
G37*
G36*
X65734112Y-73319763D02*
X65910889Y-73142986D01*
X66617996Y-73850093D01*
X66441219Y-74026870D01*
X65734112Y-73319763D01*
X65734112Y-73319763D01*
G37*
G36*
X66087666Y-72966210D02*
X66264443Y-72789433D01*
X66971550Y-73496540D01*
X66794773Y-73673317D01*
X66087666Y-72966210D01*
X66087666Y-72966210D01*
G37*
G36*
X66441219Y-72612656D02*
X66617996Y-72435879D01*
X67325103Y-73142986D01*
X67148326Y-73319763D01*
X66441219Y-72612656D01*
X66441219Y-72612656D01*
G37*
G36*
X66794773Y-72259103D02*
X66971550Y-72082326D01*
X67678657Y-72789433D01*
X67501880Y-72966210D01*
X66794773Y-72259103D01*
X66794773Y-72259103D01*
G37*
G36*
X67148326Y-71905550D02*
X67325103Y-71728773D01*
X68032210Y-72435880D01*
X67855433Y-72612657D01*
X67148326Y-71905550D01*
X67148326Y-71905550D01*
G37*
G36*
X67501879Y-71551996D02*
X67678656Y-71375219D01*
X68385763Y-72082326D01*
X68208986Y-72259103D01*
X67501879Y-71551996D01*
X67501879Y-71551996D01*
G37*
G36*
X67855433Y-71198443D02*
X68032210Y-71021666D01*
X68739317Y-71728773D01*
X68562540Y-71905550D01*
X67855433Y-71198443D01*
X67855433Y-71198443D01*
G37*
G36*
X68208986Y-70844889D02*
X68385763Y-70668112D01*
X69092870Y-71375219D01*
X68916093Y-71551996D01*
X68208986Y-70844889D01*
X68208986Y-70844889D01*
G37*
G36*
X68562540Y-70491336D02*
X68739317Y-70314559D01*
X69446424Y-71021666D01*
X69269647Y-71198443D01*
X68562540Y-70491336D01*
X68562540Y-70491336D01*
G37*
G36*
X68916093Y-70137783D02*
X69092870Y-69961006D01*
X69799977Y-70668113D01*
X69623200Y-70844890D01*
X68916093Y-70137783D01*
X68916093Y-70137783D01*
G37*
G36*
X69269646Y-69784229D02*
X69446423Y-69607452D01*
X70153530Y-70314559D01*
X69976753Y-70491336D01*
X69269646Y-69784229D01*
X69269646Y-69784229D01*
G37*
G36*
X69623200Y-69430676D02*
X69799977Y-69253899D01*
X70507084Y-69961006D01*
X70330307Y-70137783D01*
X69623200Y-69430676D01*
X69623200Y-69430676D01*
G37*
G36*
X73088023Y-69253899D02*
X73264800Y-69430676D01*
X72557693Y-70137783D01*
X72380916Y-69961006D01*
X73088023Y-69253899D01*
X73088023Y-69253899D01*
G37*
G36*
X73441577Y-69607452D02*
X73618354Y-69784229D01*
X72911247Y-70491336D01*
X72734470Y-70314559D01*
X73441577Y-69607452D01*
X73441577Y-69607452D01*
G37*
G36*
X73795130Y-69961006D02*
X73971907Y-70137783D01*
X73264800Y-70844890D01*
X73088023Y-70668113D01*
X73795130Y-69961006D01*
X73795130Y-69961006D01*
G37*
G36*
X74148683Y-70314559D02*
X74325460Y-70491336D01*
X73618353Y-71198443D01*
X73441576Y-71021666D01*
X74148683Y-70314559D01*
X74148683Y-70314559D01*
G37*
G36*
X74502237Y-70668112D02*
X74679014Y-70844889D01*
X73971907Y-71551996D01*
X73795130Y-71375219D01*
X74502237Y-70668112D01*
X74502237Y-70668112D01*
G37*
G36*
X74855790Y-71021666D02*
X75032567Y-71198443D01*
X74325460Y-71905550D01*
X74148683Y-71728773D01*
X74855790Y-71021666D01*
X74855790Y-71021666D01*
G37*
G36*
X75209344Y-71375219D02*
X75386121Y-71551996D01*
X74679014Y-72259103D01*
X74502237Y-72082326D01*
X75209344Y-71375219D01*
X75209344Y-71375219D01*
G37*
G36*
X75562897Y-71728773D02*
X75739674Y-71905550D01*
X75032567Y-72612657D01*
X74855790Y-72435880D01*
X75562897Y-71728773D01*
X75562897Y-71728773D01*
G37*
G36*
X75916450Y-72082326D02*
X76093227Y-72259103D01*
X75386120Y-72966210D01*
X75209343Y-72789433D01*
X75916450Y-72082326D01*
X75916450Y-72082326D01*
G37*
G36*
X76270004Y-72435879D02*
X76446781Y-72612656D01*
X75739674Y-73319763D01*
X75562897Y-73142986D01*
X76270004Y-72435879D01*
X76270004Y-72435879D01*
G37*
G36*
X76623557Y-72789433D02*
X76800334Y-72966210D01*
X76093227Y-73673317D01*
X75916450Y-73496540D01*
X76623557Y-72789433D01*
X76623557Y-72789433D01*
G37*
G36*
X76977111Y-73142986D02*
X77153888Y-73319763D01*
X76446781Y-74026870D01*
X76270004Y-73850093D01*
X76977111Y-73142986D01*
X76977111Y-73142986D01*
G37*
G36*
X77330664Y-73496540D02*
X77507441Y-73673317D01*
X76800334Y-74380424D01*
X76623557Y-74203647D01*
X77330664Y-73496540D01*
X77330664Y-73496540D01*
G37*
G36*
X77684217Y-73850093D02*
X77860994Y-74026870D01*
X77153887Y-74733977D01*
X76977110Y-74557200D01*
X77684217Y-73850093D01*
X77684217Y-73850093D01*
G37*
G36*
X78037771Y-74203646D02*
X78214548Y-74380423D01*
X77507441Y-75087530D01*
X77330664Y-74910753D01*
X78037771Y-74203646D01*
X78037771Y-74203646D01*
G37*
G36*
X78391324Y-74557200D02*
X78568101Y-74733977D01*
X77860994Y-75441084D01*
X77684217Y-75264307D01*
X78391324Y-74557200D01*
X78391324Y-74557200D01*
G37*
G36*
X77684217Y-77491693D02*
X77860994Y-77314916D01*
X78568101Y-78022023D01*
X78391324Y-78198800D01*
X77684217Y-77491693D01*
X77684217Y-77491693D01*
G37*
G36*
X77330664Y-77845247D02*
X77507441Y-77668470D01*
X78214548Y-78375577D01*
X78037771Y-78552354D01*
X77330664Y-77845247D01*
X77330664Y-77845247D01*
G37*
G36*
X76977110Y-78198800D02*
X77153887Y-78022023D01*
X77860994Y-78729130D01*
X77684217Y-78905907D01*
X76977110Y-78198800D01*
X76977110Y-78198800D01*
G37*
G36*
X76623557Y-78552353D02*
X76800334Y-78375576D01*
X77507441Y-79082683D01*
X77330664Y-79259460D01*
X76623557Y-78552353D01*
X76623557Y-78552353D01*
G37*
G36*
X76270004Y-78905907D02*
X76446781Y-78729130D01*
X77153888Y-79436237D01*
X76977111Y-79613014D01*
X76270004Y-78905907D01*
X76270004Y-78905907D01*
G37*
G36*
X75916450Y-79259460D02*
X76093227Y-79082683D01*
X76800334Y-79789790D01*
X76623557Y-79966567D01*
X75916450Y-79259460D01*
X75916450Y-79259460D01*
G37*
G36*
X75562897Y-79613014D02*
X75739674Y-79436237D01*
X76446781Y-80143344D01*
X76270004Y-80320121D01*
X75562897Y-79613014D01*
X75562897Y-79613014D01*
G37*
G36*
X75209343Y-79966567D02*
X75386120Y-79789790D01*
X76093227Y-80496897D01*
X75916450Y-80673674D01*
X75209343Y-79966567D01*
X75209343Y-79966567D01*
G37*
G36*
X74855790Y-80320120D02*
X75032567Y-80143343D01*
X75739674Y-80850450D01*
X75562897Y-81027227D01*
X74855790Y-80320120D01*
X74855790Y-80320120D01*
G37*
G36*
X74502237Y-80673674D02*
X74679014Y-80496897D01*
X75386121Y-81204004D01*
X75209344Y-81380781D01*
X74502237Y-80673674D01*
X74502237Y-80673674D01*
G37*
G36*
X74148683Y-81027227D02*
X74325460Y-80850450D01*
X75032567Y-81557557D01*
X74855790Y-81734334D01*
X74148683Y-81027227D01*
X74148683Y-81027227D01*
G37*
G36*
X73795130Y-81380781D02*
X73971907Y-81204004D01*
X74679014Y-81911111D01*
X74502237Y-82087888D01*
X73795130Y-81380781D01*
X73795130Y-81380781D01*
G37*
G36*
X73441576Y-81734334D02*
X73618353Y-81557557D01*
X74325460Y-82264664D01*
X74148683Y-82441441D01*
X73441576Y-81734334D01*
X73441576Y-81734334D01*
G37*
G36*
X73088023Y-82087887D02*
X73264800Y-81911110D01*
X73971907Y-82618217D01*
X73795130Y-82794994D01*
X73088023Y-82087887D01*
X73088023Y-82087887D01*
G37*
G36*
X72734470Y-82441441D02*
X72911247Y-82264664D01*
X73618354Y-82971771D01*
X73441577Y-83148548D01*
X72734470Y-82441441D01*
X72734470Y-82441441D01*
G37*
G36*
X72380916Y-82794994D02*
X72557693Y-82618217D01*
X73264800Y-83325324D01*
X73088023Y-83502101D01*
X72380916Y-82794994D01*
X72380916Y-82794994D01*
G37*
G36*
X70330307Y-82618217D02*
X70507084Y-82794994D01*
X69799977Y-83502101D01*
X69623200Y-83325324D01*
X70330307Y-82618217D01*
X70330307Y-82618217D01*
G37*
G36*
X69976753Y-82264664D02*
X70153530Y-82441441D01*
X69446423Y-83148548D01*
X69269646Y-82971771D01*
X69976753Y-82264664D01*
X69976753Y-82264664D01*
G37*
G36*
X69623200Y-81911110D02*
X69799977Y-82087887D01*
X69092870Y-82794994D01*
X68916093Y-82618217D01*
X69623200Y-81911110D01*
X69623200Y-81911110D01*
G37*
G36*
X69269647Y-81557557D02*
X69446424Y-81734334D01*
X68739317Y-82441441D01*
X68562540Y-82264664D01*
X69269647Y-81557557D01*
X69269647Y-81557557D01*
G37*
G36*
X68916093Y-81204004D02*
X69092870Y-81380781D01*
X68385763Y-82087888D01*
X68208986Y-81911111D01*
X68916093Y-81204004D01*
X68916093Y-81204004D01*
G37*
G36*
X68562540Y-80850450D02*
X68739317Y-81027227D01*
X68032210Y-81734334D01*
X67855433Y-81557557D01*
X68562540Y-80850450D01*
X68562540Y-80850450D01*
G37*
G36*
X68208986Y-80496897D02*
X68385763Y-80673674D01*
X67678656Y-81380781D01*
X67501879Y-81204004D01*
X68208986Y-80496897D01*
X68208986Y-80496897D01*
G37*
G36*
X67855433Y-80143343D02*
X68032210Y-80320120D01*
X67325103Y-81027227D01*
X67148326Y-80850450D01*
X67855433Y-80143343D01*
X67855433Y-80143343D01*
G37*
G36*
X67501880Y-79789790D02*
X67678657Y-79966567D01*
X66971550Y-80673674D01*
X66794773Y-80496897D01*
X67501880Y-79789790D01*
X67501880Y-79789790D01*
G37*
G36*
X67148326Y-79436237D02*
X67325103Y-79613014D01*
X66617996Y-80320121D01*
X66441219Y-80143344D01*
X67148326Y-79436237D01*
X67148326Y-79436237D01*
G37*
G36*
X66794773Y-79082683D02*
X66971550Y-79259460D01*
X66264443Y-79966567D01*
X66087666Y-79789790D01*
X66794773Y-79082683D01*
X66794773Y-79082683D01*
G37*
G36*
X66441219Y-78729130D02*
X66617996Y-78905907D01*
X65910889Y-79613014D01*
X65734112Y-79436237D01*
X66441219Y-78729130D01*
X66441219Y-78729130D01*
G37*
G36*
X66087666Y-78375576D02*
X66264443Y-78552353D01*
X65557336Y-79259460D01*
X65380559Y-79082683D01*
X66087666Y-78375576D01*
X66087666Y-78375576D01*
G37*
G36*
X65734113Y-78022023D02*
X65910890Y-78198800D01*
X65203783Y-78905907D01*
X65027006Y-78729130D01*
X65734113Y-78022023D01*
X65734113Y-78022023D01*
G37*
G36*
X65380559Y-77668470D02*
X65557336Y-77845247D01*
X64850229Y-78552354D01*
X64673452Y-78375577D01*
X65380559Y-77668470D01*
X65380559Y-77668470D01*
G37*
G36*
X65027006Y-77314916D02*
X65203783Y-77491693D01*
X64496676Y-78198800D01*
X64319899Y-78022023D01*
X65027006Y-77314916D01*
X65027006Y-77314916D01*
G37*
D12*
X60395000Y-70128000D03*
X60395000Y-72568000D03*
X60395000Y-75008000D03*
D10*
G36*
X77690505Y-72732388D02*
X78574388Y-71848505D01*
X79281495Y-72555612D01*
X78397612Y-73439495D01*
X77690505Y-72732388D01*
X77690505Y-72732388D01*
G37*
G36*
X79104719Y-74146602D02*
X79988602Y-73262719D01*
X80695709Y-73969826D01*
X79811826Y-74853709D01*
X79104719Y-74146602D01*
X79104719Y-74146602D01*
G37*
D13*
X72206000Y-59321000D03*
X72206000Y-60821000D03*
D14*
X70428000Y-59249000D03*
X70428000Y-61249000D03*
D15*
X67056000Y-67056000D03*
X68556000Y-67056000D03*
D16*
X83236972Y-79294740D03*
X84836972Y-79294740D03*
X83236972Y-80564739D03*
X84836972Y-80564739D03*
X83236973Y-81834738D03*
X84836973Y-81834738D03*
X83236973Y-83104740D03*
X84836973Y-83104740D03*
D17*
X80518000Y-84582000D03*
D18*
X80518000Y-87122000D03*
X80518000Y-89662000D03*
X80518000Y-92202000D03*
D11*
X66364000Y-83998000D03*
X68160051Y-85794051D03*
X69956102Y-87590102D03*
X71752153Y-89386153D03*
X73548204Y-91182204D03*
D19*
X97450500Y-77896500D03*
D20*
X82350500Y-73996500D03*
X82350500Y-72896500D03*
X82350500Y-71796500D03*
X82350500Y-70696500D03*
X82350500Y-69596500D03*
X82350500Y-68496500D03*
X82350500Y-67396500D03*
X82350500Y-66296500D03*
X82350500Y-65346500D03*
D21*
X82350500Y-75546500D03*
X86650500Y-64396500D03*
D22*
X92850500Y-64396500D03*
D23*
X97000500Y-64396500D03*
D24*
X82232500Y-92583006D03*
X61849000Y-94043500D03*
X50863500Y-94043500D03*
X50863500Y-88582500D03*
X50863500Y-78422500D03*
X50863500Y-68262500D03*
X92075000Y-94043500D03*
X99003000Y-63424000D03*
X99130000Y-83236000D03*
X99130000Y-85649000D03*
X99130000Y-88824000D03*
X99165643Y-80164818D03*
X99060000Y-94043506D03*
X84582000Y-94107000D03*
X71882000Y-92646500D03*
X78867000Y-92583000D03*
X64262000Y-92646500D03*
X81216500Y-55943500D03*
X68834000Y-55943500D03*
X91757500Y-59690000D03*
X85534500Y-56387998D03*
X58102504Y-59753500D03*
X74930000Y-55943500D03*
X64516004Y-56324500D03*
X89408000Y-66294000D03*
X90875000Y-87935000D03*
X63951000Y-76378000D03*
X67126000Y-74473000D03*
X70174000Y-79807000D03*
X76524000Y-75235000D03*
X73349000Y-71933000D03*
X74746000Y-76378000D03*
X71190000Y-72695000D03*
X72752149Y-81331000D03*
X76397000Y-77775000D03*
X72079000Y-79172000D03*
X85795000Y-88189000D03*
X70174000Y-84506000D03*
X68269000Y-83363000D03*
X64459000Y-80696000D03*
X56839000Y-89459000D03*
X58998000Y-82855000D03*
X55315000Y-72568000D03*
X66237000Y-71425000D03*
X80207000Y-67488000D03*
X73857000Y-68504000D03*
X68142000Y-65710000D03*
X68777000Y-60503000D03*
X73603000Y-60630000D03*
X81223000Y-60503000D03*
X85287000Y-62916000D03*
X88716000Y-76505000D03*
X93923000Y-76378000D03*
X94177000Y-79299000D03*
X91002000Y-83871000D03*
X93669000Y-88443000D03*
X94177000Y-85522000D03*
X87446000Y-83109000D03*
X87573000Y-79299000D03*
X80080000Y-78283000D03*
X77032000Y-80823000D03*
X75127000Y-83236000D03*
X74492000Y-89586000D03*
X71952000Y-83363000D03*
X73349000Y-86030000D03*
X64078000Y-72187000D03*
X99130000Y-68250000D03*
X50870000Y-63424000D03*
X80842000Y-75108000D03*
X71444000Y-68504000D03*
X69285000Y-72568000D03*
X79699000Y-71806000D03*
X84074000Y-68758000D03*
X76778000Y-76378000D03*
X70174002Y-71806000D03*
X72333000Y-71805998D03*
X71825022Y-81712000D03*
X66110000Y-77140000D03*
D25*
X87522200Y-62916000D03*
D24*
X83890000Y-69774000D03*
D25*
X68904000Y-59233000D03*
D24*
X66872000Y-65710000D03*
X83890000Y-74346000D03*
X74746000Y-69520000D03*
X83890000Y-72822000D03*
X83890000Y-71298000D03*
X79445000Y-70028000D03*
X83890000Y-67742000D03*
X83890000Y-66218000D03*
X86049000Y-79299000D03*
X86049000Y-80569000D03*
X86049000Y-81839000D03*
X86049000Y-83109000D03*
X71062997Y-85140997D03*
X77159000Y-87046000D03*
D26*
X50863500Y-88582500D02*
X50863500Y-94043500D01*
X50863500Y-68262500D02*
X50863500Y-78422500D01*
X92075000Y-94043500D02*
X91775001Y-93743501D01*
X91775001Y-93743501D02*
X84945499Y-93743501D01*
X84945499Y-93743501D02*
X84881999Y-93807001D01*
X84881999Y-93807001D02*
X84582000Y-94107000D01*
X99130000Y-85649000D02*
X99130000Y-88824000D01*
X99130000Y-83236000D02*
X99130000Y-80200461D01*
X99130000Y-80200461D02*
X99165643Y-80164818D01*
X98635736Y-94043506D02*
X99060000Y-94043506D01*
X85795000Y-92894000D02*
X84881999Y-93807001D01*
X85795000Y-88189000D02*
X85795000Y-92894000D01*
X64262000Y-92646500D02*
X71882000Y-92646500D01*
X64262000Y-92222236D02*
X64262000Y-92646500D01*
X64262000Y-90532000D02*
X64262000Y-92222236D01*
X60776000Y-87046000D02*
X64262000Y-90532000D01*
X74930000Y-55943500D02*
X68834000Y-55943500D01*
X68834000Y-55943500D02*
X64897004Y-55943500D01*
X92057499Y-59989999D02*
X91757500Y-59690000D01*
X95491500Y-63424000D02*
X92057499Y-59989999D01*
X99003000Y-63424000D02*
X95491500Y-63424000D01*
X85834499Y-56687997D02*
X85534500Y-56387998D01*
X92570502Y-63424000D02*
X85834499Y-56687997D01*
X99003000Y-63424000D02*
X92570502Y-63424000D01*
X75374498Y-56387998D02*
X85110236Y-56387998D01*
X85110236Y-56387998D02*
X85534500Y-56387998D01*
X74930000Y-55943500D02*
X75374498Y-56387998D01*
X64897004Y-55943500D02*
X64516004Y-56324500D01*
X50870000Y-63424000D02*
X57988000Y-63424000D01*
X57988000Y-63424000D02*
X64091740Y-57320260D01*
X64091740Y-57320260D02*
X64091740Y-56324500D01*
X64091740Y-56324500D02*
X64516004Y-56324500D01*
X85287000Y-62916000D02*
X85711264Y-62916000D01*
X85711264Y-62916000D02*
X85914264Y-63119000D01*
X86233000Y-63119000D02*
X86650500Y-63536500D01*
X85914264Y-63119000D02*
X86233000Y-63119000D01*
X86650500Y-63536500D02*
X86650500Y-64396500D01*
X86666000Y-64402000D02*
X85230000Y-64402000D01*
X85230000Y-64402000D02*
X85217000Y-64389000D01*
X85217000Y-64389000D02*
X85217000Y-62986000D01*
X85217000Y-62986000D02*
X85287000Y-62916000D01*
X89108001Y-66593999D02*
X89408000Y-66294000D01*
X88716000Y-66986000D02*
X89108001Y-66593999D01*
X88716000Y-76505000D02*
X88716000Y-66986000D01*
X70174000Y-79807000D02*
X67126000Y-76759000D01*
X67126000Y-76759000D02*
X67126000Y-74473000D01*
D27*
X79900214Y-74058214D02*
X79191000Y-74767428D01*
X79191000Y-74767428D02*
X79191000Y-75489000D01*
D26*
X73349000Y-71933000D02*
X76524000Y-75108000D01*
X76524000Y-75108000D02*
X76524000Y-75235000D01*
X74746000Y-76251000D02*
X74746000Y-76378000D01*
X71190000Y-72695000D02*
X74746000Y-76251000D01*
X71444000Y-72441000D02*
X71190000Y-72695000D01*
X71444000Y-68504000D02*
X71444000Y-72441000D01*
X72752149Y-82282343D02*
X72752149Y-81331000D01*
X72752149Y-81331000D02*
X72752149Y-79845149D01*
X76397000Y-77775000D02*
X72841000Y-81331000D01*
X72841000Y-81331000D02*
X72752149Y-81331000D01*
X72378999Y-79471999D02*
X72079000Y-79172000D01*
X73176412Y-82706606D02*
X72752149Y-82282343D01*
X72752149Y-79845149D02*
X72378999Y-79471999D01*
X64459000Y-80696000D02*
X65602000Y-80696000D01*
X65602000Y-80696000D02*
X68269000Y-83363000D01*
X55315000Y-72568000D02*
X55315000Y-79172000D01*
X55315000Y-79172000D02*
X58998000Y-82855000D01*
X68142000Y-65710000D02*
X70936000Y-68504000D01*
X70936000Y-68504000D02*
X73857000Y-68504000D01*
X70428000Y-61249000D02*
X69523000Y-61249000D01*
X69523000Y-61249000D02*
X68777000Y-60503000D01*
D27*
X70428000Y-61249000D02*
X71778000Y-61249000D01*
X71778000Y-61249000D02*
X72206000Y-60821000D01*
D26*
X85287000Y-62916000D02*
X83636000Y-62916000D01*
X83636000Y-62916000D02*
X81223000Y-60503000D01*
X94177000Y-79299000D02*
X94177000Y-76632000D01*
X94177000Y-76632000D02*
X93923000Y-76378000D01*
X94177000Y-85522000D02*
X93669000Y-86030000D01*
X93669000Y-86030000D02*
X93669000Y-88443000D01*
X87573000Y-79299000D02*
X87573000Y-82982000D01*
X87573000Y-82982000D02*
X87446000Y-83109000D01*
X80842000Y-75108000D02*
X80842000Y-77521000D01*
X80842000Y-77521000D02*
X80080000Y-78283000D01*
X80518000Y-87122000D02*
X82304081Y-85335919D01*
X82304081Y-85335919D02*
X82304081Y-83809081D01*
X82304081Y-83809081D02*
X80588000Y-82093000D01*
X80588000Y-82093000D02*
X78302000Y-82093000D01*
X78302000Y-82093000D02*
X77331999Y-81122999D01*
X77331999Y-81122999D02*
X77032000Y-80823000D01*
X75127000Y-83660264D02*
X75127000Y-88951000D01*
X75127000Y-88951000D02*
X74492000Y-89586000D01*
X75127000Y-83236000D02*
X75127000Y-83660264D01*
X73349000Y-84125000D02*
X73349000Y-86030000D01*
X63653736Y-72187000D02*
X64078000Y-72187000D01*
X62300000Y-72187000D02*
X63653736Y-72187000D01*
X61538000Y-71425000D02*
X62300000Y-72187000D01*
X60395000Y-72568000D02*
X61538000Y-71425000D01*
X99003000Y-63424000D02*
X99130000Y-63551000D01*
X99130000Y-63551000D02*
X99130000Y-68250000D01*
X80343477Y-74482477D02*
X80842000Y-74981000D01*
X80842000Y-74981000D02*
X80842000Y-75108000D01*
X79900214Y-74058214D02*
X80324477Y-74482477D01*
X80324477Y-74482477D02*
X80343477Y-74482477D01*
X71317000Y-68758000D02*
X71444000Y-68631000D01*
X71444000Y-68631000D02*
X71444000Y-68504000D01*
X69285000Y-72568000D02*
X69285000Y-73838000D01*
X69285000Y-73838000D02*
X72079000Y-76632000D01*
X80842000Y-72949000D02*
X79699000Y-71806000D01*
X80412865Y-73378135D02*
X80842000Y-72949000D01*
X79900214Y-74058214D02*
X80412865Y-73545563D01*
X80412865Y-73545563D02*
X80412865Y-73378135D01*
D28*
X84074000Y-68758000D02*
X84398000Y-68758000D01*
X83722000Y-68758000D02*
X84074000Y-68758000D01*
D26*
X73857000Y-69368806D02*
X73857000Y-68885000D01*
X73176412Y-70049394D02*
X73857000Y-69368806D01*
X72562806Y-70663000D02*
X71952000Y-70663000D01*
X73176412Y-70049394D02*
X72562806Y-70663000D01*
X73603000Y-83871000D02*
X73349000Y-84125000D01*
X73603000Y-83133194D02*
X73603000Y-83871000D01*
X73176412Y-82706606D02*
X73603000Y-83133194D01*
X66176054Y-79171072D02*
X67064126Y-78283000D01*
X66176054Y-79171072D02*
X65413126Y-79934000D01*
X65413126Y-79934000D02*
X64840000Y-79934000D01*
X64332000Y-79426000D02*
X64332000Y-78893806D01*
X64840000Y-79934000D02*
X64332000Y-79426000D01*
X64332000Y-78893806D02*
X65115394Y-78110412D01*
X68650928Y-71110054D02*
X67822874Y-70282000D01*
X69285000Y-71744126D02*
X69285000Y-72314000D01*
X68650928Y-71110054D02*
X69285000Y-71744126D01*
D28*
X82366000Y-68502000D02*
X81266000Y-68502000D01*
X81266000Y-68502000D02*
X80969000Y-68205000D01*
X82366000Y-68502000D02*
X83466000Y-68502000D01*
X83466000Y-68502000D02*
X83722000Y-68758000D01*
D26*
X79900214Y-74058214D02*
X78359980Y-74058214D01*
X78359980Y-74058214D02*
X77772606Y-74645588D01*
X76778000Y-76347301D02*
X76778000Y-76378000D01*
X78126159Y-74999142D02*
X76778000Y-76347301D01*
X69004482Y-70756501D02*
X70053981Y-71806000D01*
X70053981Y-71806000D02*
X70174002Y-71806000D01*
X72333000Y-71599913D02*
X72333000Y-71805998D01*
X73529965Y-70402948D02*
X72333000Y-71599913D01*
X71825022Y-82062323D02*
X71825022Y-81712000D01*
X72822858Y-83060159D02*
X71825022Y-82062323D01*
X64761841Y-77756858D02*
X65378699Y-77140000D01*
X65378699Y-77140000D02*
X66110000Y-77140000D01*
D29*
X72206000Y-59321000D02*
X84492885Y-59321000D01*
X84492885Y-59321000D02*
X87522200Y-62350315D01*
X87522200Y-62350315D02*
X87522200Y-62916000D01*
D30*
X82366000Y-70702000D02*
X82962000Y-70702000D01*
X82962000Y-70702000D02*
X83890000Y-69774000D01*
D29*
X72206000Y-59321000D02*
X70500000Y-59321000D01*
X70500000Y-59321000D02*
X70428000Y-59249000D01*
X70428000Y-59249000D02*
X68920000Y-59249000D01*
X68920000Y-59249000D02*
X68904000Y-59233000D01*
D26*
X77419052Y-74292035D02*
X78486000Y-73225087D01*
X78486000Y-73225087D02*
X78486000Y-72644000D01*
X66529608Y-73231375D02*
X63426233Y-70128000D01*
X63426233Y-70128000D02*
X60395000Y-70128000D01*
X69358035Y-70402948D02*
X68523000Y-69567913D01*
X68523000Y-69567913D02*
X68523000Y-69520000D01*
D28*
X67056000Y-67056000D02*
X67056000Y-68053000D01*
X67056000Y-68053000D02*
X68523000Y-69520000D01*
X66872000Y-65710000D02*
X66872000Y-66872000D01*
X66872000Y-66872000D02*
X67056000Y-67056000D01*
D27*
X82366000Y-74002000D02*
X83546000Y-74002000D01*
X83546000Y-74002000D02*
X83890000Y-74346000D01*
D26*
X74746000Y-69894019D02*
X74746000Y-69520000D01*
X73883518Y-70756501D02*
X74746000Y-69894019D01*
D27*
X82366000Y-72902000D02*
X83810000Y-72902000D01*
X83810000Y-72902000D02*
X83890000Y-72822000D01*
D28*
X82366000Y-71802000D02*
X81266000Y-71802000D01*
X81266000Y-71802000D02*
X80381000Y-70917000D01*
X80381000Y-70917000D02*
X77667000Y-70917000D01*
X77667000Y-70917000D02*
X76016000Y-70917000D01*
D26*
X76016000Y-70917000D02*
X75844340Y-70917000D01*
X75844340Y-70917000D02*
X74944179Y-71817161D01*
D27*
X82366000Y-71802000D02*
X83386000Y-71802000D01*
X83386000Y-71802000D02*
X83890000Y-71298000D01*
D26*
X75508000Y-69520000D02*
X75381000Y-69647000D01*
X75381000Y-69647000D02*
X75381000Y-69966126D01*
X75381000Y-69966126D02*
X74237072Y-71110054D01*
D28*
X76016000Y-69012000D02*
X75508000Y-69520000D01*
X80676000Y-69012000D02*
X76016000Y-69012000D01*
X82366000Y-69602000D02*
X81266000Y-69602000D01*
X81266000Y-69602000D02*
X80676000Y-69012000D01*
X79445000Y-70028000D02*
X76026233Y-70028000D01*
D26*
X74590625Y-71463608D02*
X76026233Y-70028000D01*
D27*
X82366000Y-67402000D02*
X83550000Y-67402000D01*
X83550000Y-67402000D02*
X83890000Y-67742000D01*
X82366000Y-66302000D02*
X83806000Y-66302000D01*
X83806000Y-66302000D02*
X83890000Y-66218000D01*
D26*
X66176054Y-73584928D02*
X65751791Y-73160665D01*
X65751791Y-73160665D02*
X62242335Y-73160665D01*
X62242335Y-73160665D02*
X61144999Y-74258001D01*
X61144999Y-74258001D02*
X60395000Y-75008000D01*
X83236972Y-79294740D02*
X79664041Y-79294740D01*
X79664041Y-79294740D02*
X78126159Y-77756858D01*
X84836972Y-79294740D02*
X86044740Y-79294740D01*
X86044740Y-79294740D02*
X86049000Y-79299000D01*
X83236972Y-80564739D02*
X82479233Y-79807000D01*
X82479233Y-79807000D02*
X79469194Y-79807000D01*
X79469194Y-79807000D02*
X77772606Y-78110412D01*
X86049000Y-80569000D02*
X84841233Y-80569000D01*
X84841233Y-80569000D02*
X84836972Y-80564739D01*
X83236973Y-81834738D02*
X81717235Y-80315000D01*
X81717235Y-80315000D02*
X79270087Y-80315000D01*
X79270087Y-80315000D02*
X77419052Y-78463965D01*
X84836973Y-81834738D02*
X86044738Y-81834738D01*
X86044738Y-81834738D02*
X86049000Y-81839000D01*
X83236973Y-83104740D02*
X80955233Y-80823000D01*
X80955233Y-80823000D02*
X79070981Y-80823000D01*
X79070981Y-80823000D02*
X77065499Y-78817518D01*
X86049000Y-83109000D02*
X84841233Y-83109000D01*
X84841233Y-83109000D02*
X84836973Y-83104740D01*
X68160051Y-85794051D02*
X69160050Y-84794052D01*
X69160050Y-84794052D02*
X69160050Y-83965251D01*
X69160050Y-83965251D02*
X70065142Y-83060159D01*
X71752153Y-89386153D02*
X74238000Y-86900306D01*
X74238000Y-86900306D02*
X74238000Y-83061087D01*
X74238000Y-83061087D02*
X73529965Y-82353052D01*
X71062997Y-84716733D02*
X71062997Y-85140997D01*
X71062997Y-77057657D02*
X71062997Y-84716733D01*
X66883161Y-72877821D02*
X71062997Y-77057657D01*
X71063000Y-85141000D02*
X71062997Y-85140997D01*
X74590625Y-81292392D02*
X77159000Y-83860767D01*
X77159000Y-83860767D02*
X77159000Y-87046000D01*
X74944179Y-80938839D02*
X78302000Y-84296660D01*
X78302000Y-84296660D02*
X78302000Y-89986000D01*
X78302000Y-89986000D02*
X79668001Y-91352001D01*
X79668001Y-91352001D02*
X80518000Y-92202000D01*
D31*
G36*
X99290000Y-63426001D02*
X99290000Y-94290000D01*
X50710000Y-94290000D01*
X50710000Y-92343599D01*
X53264699Y-92343599D01*
X53528281Y-92981515D01*
X54015918Y-93470004D01*
X54653373Y-93734699D01*
X55343599Y-93735301D01*
X55981515Y-93471719D01*
X56470004Y-92984082D01*
X56734699Y-92346627D01*
X56735301Y-91656401D01*
X56471719Y-91018485D01*
X55984082Y-90529996D01*
X55346627Y-90265301D01*
X54656401Y-90264699D01*
X54018485Y-90528281D01*
X53529996Y-91015918D01*
X53265301Y-91653373D01*
X53264699Y-92343599D01*
X50710000Y-92343599D01*
X50710000Y-88198532D01*
X59803073Y-88198532D01*
X59901736Y-88465387D01*
X60511461Y-88691908D01*
X61161460Y-88667856D01*
X61650264Y-88465387D01*
X61748927Y-88198532D01*
X60776000Y-87225605D01*
X59803073Y-88198532D01*
X50710000Y-88198532D01*
X50710000Y-86781461D01*
X59130092Y-86781461D01*
X59154144Y-87431460D01*
X59356613Y-87920264D01*
X59623468Y-88018927D01*
X60596395Y-87046000D01*
X60955605Y-87046000D01*
X61928532Y-88018927D01*
X62045821Y-87975562D01*
X68334246Y-87975562D01*
X68605212Y-88566878D01*
X69081838Y-89009489D01*
X69570642Y-89211958D01*
X69829102Y-89093028D01*
X69829102Y-87717102D01*
X68453176Y-87717102D01*
X68334246Y-87975562D01*
X62045821Y-87975562D01*
X62195387Y-87920264D01*
X62421908Y-87310539D01*
X62397856Y-86660540D01*
X62195387Y-86171736D01*
X61928532Y-86073073D01*
X60955605Y-87046000D01*
X60596395Y-87046000D01*
X59623468Y-86073073D01*
X59356613Y-86171736D01*
X59130092Y-86781461D01*
X50710000Y-86781461D01*
X50710000Y-82289795D01*
X59140716Y-82289795D01*
X59389106Y-82890943D01*
X59733759Y-83236199D01*
X59390722Y-83578637D01*
X59141284Y-84179352D01*
X59140716Y-84829795D01*
X59389106Y-85430943D01*
X59815978Y-85858562D01*
X59803073Y-85893468D01*
X60776000Y-86866395D01*
X61748927Y-85893468D01*
X61735836Y-85858062D01*
X62161278Y-85433363D01*
X62410716Y-84832648D01*
X62411284Y-84182205D01*
X62162894Y-83581057D01*
X61818241Y-83235801D01*
X62161278Y-82893363D01*
X62410716Y-82292648D01*
X62411284Y-81642205D01*
X62162894Y-81041057D01*
X61703363Y-80580722D01*
X61102648Y-80331284D01*
X60452205Y-80330716D01*
X59851057Y-80579106D01*
X59390722Y-81038637D01*
X59141284Y-81639352D01*
X59140716Y-82289795D01*
X50710000Y-82289795D01*
X50710000Y-80040057D01*
X65439906Y-80040057D01*
X65529935Y-80130086D01*
X65529935Y-80130085D01*
X65439906Y-80040057D01*
X50710000Y-80040057D01*
X50710000Y-79817191D01*
X65217040Y-79817191D01*
X65262160Y-79862311D01*
X65217041Y-79817191D01*
X65217040Y-79817191D01*
X50710000Y-79817191D01*
X50710000Y-79036272D01*
X64436121Y-79036272D01*
X64469275Y-79069426D01*
X64469275Y-79069425D01*
X64436121Y-79036272D01*
X50710000Y-79036272D01*
X50710000Y-78756531D01*
X64156380Y-78756531D01*
X64303887Y-78904038D01*
X64156381Y-78756531D01*
X64156380Y-78756531D01*
X50710000Y-78756531D01*
X50710000Y-72363171D01*
X58997799Y-72363171D01*
X59025770Y-72913448D01*
X59182540Y-73291923D01*
X59423483Y-73359912D01*
X60215395Y-72568000D01*
X59423483Y-71776088D01*
X59182540Y-71844077D01*
X58997799Y-72363171D01*
X50710000Y-72363171D01*
X50710000Y-70402285D01*
X59009760Y-70402285D01*
X59220169Y-70911515D01*
X59609436Y-71301461D01*
X59705417Y-71341316D01*
X59671077Y-71355540D01*
X59603088Y-71596483D01*
X60395000Y-72388395D01*
X61186912Y-71596483D01*
X61118923Y-71355540D01*
X61082404Y-71342543D01*
X61178515Y-71302831D01*
X61568461Y-70913564D01*
X61579076Y-70888000D01*
X63111431Y-70888000D01*
X64624096Y-72400665D01*
X62242335Y-72400665D01*
X62020335Y-72444824D01*
X61951495Y-72458517D01*
X61781982Y-72571782D01*
X61764230Y-72222552D01*
X61607460Y-71844077D01*
X61366517Y-71776088D01*
X60574605Y-72568000D01*
X60588748Y-72582143D01*
X60409143Y-72761748D01*
X60395000Y-72747605D01*
X59603088Y-73539517D01*
X59671077Y-73780460D01*
X59707596Y-73793457D01*
X59611485Y-73833169D01*
X59221539Y-74222436D01*
X59010241Y-74731298D01*
X59009760Y-75282285D01*
X59220169Y-75791515D01*
X59609436Y-76181461D01*
X60118298Y-76392759D01*
X60669285Y-76393240D01*
X61178515Y-76182831D01*
X61568461Y-75793564D01*
X61779759Y-75284702D01*
X61780240Y-74733715D01*
X61769670Y-74708132D01*
X62557137Y-73920665D01*
X64217592Y-73920665D01*
X64215643Y-73922614D01*
X64141251Y-74031490D01*
X64038867Y-74099391D01*
X63862090Y-74276168D01*
X63727005Y-74473871D01*
X63672521Y-74725033D01*
X63720045Y-74977604D01*
X63862090Y-75191786D01*
X64569197Y-75898893D01*
X64766900Y-76033978D01*
X65018062Y-76088462D01*
X65270633Y-76040938D01*
X65484815Y-75898893D01*
X65661592Y-75722116D01*
X65735984Y-75613240D01*
X65838368Y-75545339D01*
X66015145Y-75368562D01*
X66089535Y-75259689D01*
X66191922Y-75191786D01*
X66368699Y-75015009D01*
X66443090Y-74906135D01*
X66545475Y-74838233D01*
X66722252Y-74661456D01*
X66796644Y-74552580D01*
X66899028Y-74484679D01*
X67075805Y-74307902D01*
X67141822Y-74211284D01*
X70302997Y-77372459D01*
X70302997Y-81698249D01*
X70257786Y-81630078D01*
X70081009Y-81453301D01*
X69972135Y-81378910D01*
X69904233Y-81276525D01*
X69727456Y-81099748D01*
X69618580Y-81025356D01*
X69550679Y-80922972D01*
X69373902Y-80746195D01*
X69265029Y-80671805D01*
X69197126Y-80569418D01*
X69020349Y-80392641D01*
X68911473Y-80318249D01*
X68843572Y-80215865D01*
X68666795Y-80039088D01*
X68557922Y-79964698D01*
X68490019Y-79862311D01*
X68313242Y-79685534D01*
X68204368Y-79611143D01*
X68136466Y-79508758D01*
X67959689Y-79331981D01*
X67850813Y-79257589D01*
X67782912Y-79155205D01*
X67606135Y-78978428D01*
X67497262Y-78904038D01*
X67429359Y-78801651D01*
X67252582Y-78624874D01*
X67163772Y-78564193D01*
X67156323Y-78546209D01*
X67135067Y-78524953D01*
X67106343Y-78524953D01*
X67054879Y-78489789D01*
X67099904Y-78489789D01*
X67135067Y-78524953D01*
X67135068Y-78524953D01*
X67099904Y-78489789D01*
X67054879Y-78489789D01*
X66891706Y-78454392D01*
X66864297Y-78308726D01*
X66822173Y-78245209D01*
X66822173Y-78212059D01*
X66822172Y-78212058D01*
X66822173Y-78212058D01*
X66822173Y-78212059D01*
X66855324Y-78245209D01*
X66822173Y-78212058D01*
X66822172Y-78212058D01*
X66800917Y-78190803D01*
X66780475Y-78182336D01*
X66722252Y-78094544D01*
X66583665Y-77955957D01*
X66638943Y-77933117D01*
X66902192Y-77670327D01*
X67044838Y-77326799D01*
X67045162Y-76954833D01*
X66903117Y-76611057D01*
X66640327Y-76347808D01*
X66296799Y-76205162D01*
X65924833Y-76204838D01*
X65581057Y-76346883D01*
X65547882Y-76380000D01*
X65378699Y-76380000D01*
X65087860Y-76437852D01*
X64841298Y-76602599D01*
X64621432Y-76822465D01*
X64569197Y-76857107D01*
X63862090Y-77564214D01*
X63727005Y-77761917D01*
X63672521Y-78013079D01*
X63720045Y-78265650D01*
X63862090Y-78479832D01*
X64038867Y-78656609D01*
X64127675Y-78717289D01*
X64135125Y-78735275D01*
X64156381Y-78756531D01*
X64185107Y-78756531D01*
X64236570Y-78791694D01*
X64399743Y-78827091D01*
X64427152Y-78972757D01*
X64469275Y-79036272D01*
X64469275Y-79069425D01*
X64490531Y-79090681D01*
X64510975Y-79099149D01*
X64569197Y-79186939D01*
X64745974Y-79363716D01*
X64854848Y-79438107D01*
X64922750Y-79540492D01*
X65099527Y-79717269D01*
X65188335Y-79777949D01*
X65195785Y-79795935D01*
X65217041Y-79817191D01*
X65245767Y-79817191D01*
X65297230Y-79852354D01*
X65460403Y-79887751D01*
X65487812Y-80033417D01*
X65529935Y-80096932D01*
X65529935Y-80130085D01*
X65551191Y-80151341D01*
X65571635Y-80159809D01*
X65629857Y-80247599D01*
X65806634Y-80424376D01*
X65915507Y-80498766D01*
X65983410Y-80601153D01*
X66160187Y-80777930D01*
X66269063Y-80852322D01*
X66336964Y-80954706D01*
X66513741Y-81131483D01*
X66622615Y-81205874D01*
X66690517Y-81308259D01*
X66867294Y-81485036D01*
X66976167Y-81559426D01*
X67044070Y-81661813D01*
X67220847Y-81838590D01*
X67329723Y-81912982D01*
X67397624Y-82015366D01*
X67574401Y-82192143D01*
X67683274Y-82266533D01*
X67751177Y-82368920D01*
X67927954Y-82545697D01*
X68036830Y-82620089D01*
X68104731Y-82722473D01*
X68281508Y-82899250D01*
X68390382Y-82973641D01*
X68458284Y-83076026D01*
X68635061Y-83252803D01*
X68731679Y-83318820D01*
X68622649Y-83427850D01*
X68457902Y-83674412D01*
X68400050Y-83965251D01*
X68400050Y-84159259D01*
X67998861Y-84158909D01*
X67999284Y-83674205D01*
X67750894Y-83073057D01*
X67291363Y-82612722D01*
X66690648Y-82363284D01*
X66040205Y-82362716D01*
X65439057Y-82611106D01*
X64978722Y-83070637D01*
X64729284Y-83671352D01*
X64728716Y-84321795D01*
X64977106Y-84922943D01*
X65436637Y-85383278D01*
X66037352Y-85632716D01*
X66525190Y-85633142D01*
X66524767Y-86117846D01*
X66773157Y-86718994D01*
X67232688Y-87179329D01*
X67833403Y-87428767D01*
X68437620Y-87429295D01*
X68453176Y-87463102D01*
X69649494Y-87463102D01*
X69762353Y-87575961D01*
X69941961Y-87396353D01*
X69829102Y-87283494D01*
X69829102Y-86087176D01*
X70083102Y-86087176D01*
X70083102Y-87463102D01*
X71459028Y-87463102D01*
X71577958Y-87204642D01*
X71306992Y-86613326D01*
X70830366Y-86170715D01*
X70341562Y-85968246D01*
X70083102Y-86087176D01*
X69829102Y-86087176D01*
X69794810Y-86071397D01*
X69795335Y-85470256D01*
X69722495Y-85293971D01*
X69862198Y-85084891D01*
X69920050Y-84794052D01*
X69920050Y-84280053D01*
X70205551Y-83994552D01*
X70257786Y-83959910D01*
X70302997Y-83914699D01*
X70302997Y-84578534D01*
X70270805Y-84610670D01*
X70128159Y-84954198D01*
X70127835Y-85326164D01*
X70269880Y-85669940D01*
X70532670Y-85933189D01*
X70876198Y-86075835D01*
X71248164Y-86076159D01*
X71591940Y-85934114D01*
X71855189Y-85671324D01*
X71997835Y-85327796D01*
X71998159Y-84955830D01*
X71856114Y-84612054D01*
X71822997Y-84578879D01*
X71822997Y-83135100D01*
X71888465Y-83200568D01*
X71923107Y-83252803D01*
X72630214Y-83959910D01*
X72827917Y-84094995D01*
X73079079Y-84149479D01*
X73331650Y-84101955D01*
X73478000Y-84004896D01*
X73478000Y-86585504D01*
X72243626Y-87819878D01*
X72078801Y-87751437D01*
X71474584Y-87750909D01*
X71459028Y-87717102D01*
X70262710Y-87717102D01*
X70149851Y-87604243D01*
X69970243Y-87783851D01*
X70083102Y-87896710D01*
X70083102Y-89093028D01*
X70117394Y-89108807D01*
X70116869Y-89709948D01*
X70365259Y-90311096D01*
X70824790Y-90771431D01*
X71425505Y-91020869D01*
X71913343Y-91021295D01*
X71912920Y-91505999D01*
X72161310Y-92107147D01*
X72620841Y-92567482D01*
X73221556Y-92816920D01*
X73871999Y-92817488D01*
X74473147Y-92569098D01*
X74933482Y-92109567D01*
X75182920Y-91508852D01*
X75183488Y-90858409D01*
X74935098Y-90257261D01*
X74475567Y-89796926D01*
X73874852Y-89547488D01*
X73387014Y-89547062D01*
X73387437Y-89062358D01*
X73318234Y-88894874D01*
X74775401Y-87437707D01*
X74940148Y-87191145D01*
X74998000Y-86900306D01*
X74998000Y-83061087D01*
X74940148Y-82770248D01*
X74846445Y-82630012D01*
X74849286Y-82625855D01*
X76399000Y-84175569D01*
X76399000Y-86483537D01*
X76366808Y-86515673D01*
X76224162Y-86859201D01*
X76223838Y-87231167D01*
X76365883Y-87574943D01*
X76628673Y-87838192D01*
X76972201Y-87980838D01*
X77344167Y-87981162D01*
X77542000Y-87899419D01*
X77542000Y-89986000D01*
X77599852Y-90276839D01*
X77764599Y-90523401D01*
X79076790Y-91835592D01*
X79003907Y-92202000D01*
X79116946Y-92770285D01*
X79438853Y-93252054D01*
X79920622Y-93573961D01*
X80488907Y-93687000D01*
X80547093Y-93687000D01*
X81115378Y-93573961D01*
X81586407Y-93259230D01*
X81702173Y-93375198D01*
X82045701Y-93517844D01*
X82417667Y-93518168D01*
X82761443Y-93376123D01*
X83024692Y-93113333D01*
X83167338Y-92769805D01*
X83167662Y-92397839D01*
X83145251Y-92343599D01*
X93264699Y-92343599D01*
X93528281Y-92981515D01*
X94015918Y-93470004D01*
X94653373Y-93734699D01*
X95343599Y-93735301D01*
X95981515Y-93471719D01*
X96470004Y-92984082D01*
X96734699Y-92346627D01*
X96735301Y-91656401D01*
X96471719Y-91018485D01*
X95984082Y-90529996D01*
X95346627Y-90265301D01*
X94656401Y-90264699D01*
X94018485Y-90528281D01*
X93529996Y-91015918D01*
X93265301Y-91653373D01*
X93264699Y-92343599D01*
X83145251Y-92343599D01*
X83025617Y-92054063D01*
X82762827Y-91790814D01*
X82419299Y-91648168D01*
X82047333Y-91647844D01*
X81931393Y-91695749D01*
X81919054Y-91633715D01*
X81597147Y-91151946D01*
X81267974Y-90932000D01*
X81597147Y-90712054D01*
X81919054Y-90230285D01*
X82032093Y-89662000D01*
X81919054Y-89093715D01*
X81597147Y-88611946D01*
X81256447Y-88384298D01*
X81399358Y-88317183D01*
X81789645Y-87888924D01*
X81959476Y-87478890D01*
X81838155Y-87249000D01*
X80645000Y-87249000D01*
X80645000Y-87269000D01*
X80391000Y-87269000D01*
X80391000Y-87249000D01*
X80371000Y-87249000D01*
X80371000Y-86995000D01*
X80391000Y-86995000D01*
X80391000Y-86975000D01*
X80645000Y-86975000D01*
X80645000Y-86995000D01*
X81838155Y-86995000D01*
X81959476Y-86765110D01*
X81789645Y-86355076D01*
X81513499Y-86052063D01*
X81603317Y-86035162D01*
X81819441Y-85896090D01*
X81964431Y-85683890D01*
X82015440Y-85432000D01*
X82015440Y-83732000D01*
X81971162Y-83496683D01*
X81832090Y-83280559D01*
X81619890Y-83135569D01*
X81368000Y-83084560D01*
X79668000Y-83084560D01*
X79432683Y-83128838D01*
X79216559Y-83267910D01*
X79071569Y-83480110D01*
X79020560Y-83732000D01*
X79020560Y-84088329D01*
X79004148Y-84005821D01*
X78839401Y-83759259D01*
X76276475Y-81196333D01*
X76374259Y-81131483D01*
X76551036Y-80954706D01*
X76625426Y-80845833D01*
X76727813Y-80777930D01*
X76904590Y-80601153D01*
X76978982Y-80492277D01*
X77081366Y-80424376D01*
X77258143Y-80247599D01*
X77324160Y-80150981D01*
X78533580Y-81360401D01*
X78780142Y-81525148D01*
X79070981Y-81583000D01*
X80640431Y-81583000D01*
X82189533Y-83132102D01*
X82189533Y-83504740D01*
X82233811Y-83740057D01*
X82372883Y-83956181D01*
X82585083Y-84101171D01*
X82836973Y-84152180D01*
X83636973Y-84152180D01*
X83872290Y-84107902D01*
X84038450Y-84000981D01*
X84185083Y-84101171D01*
X84436973Y-84152180D01*
X85236973Y-84152180D01*
X85472290Y-84107902D01*
X85685727Y-83970559D01*
X85862201Y-84043838D01*
X86234167Y-84044162D01*
X86577943Y-83902117D01*
X86841192Y-83639327D01*
X86983838Y-83295799D01*
X86984162Y-82923833D01*
X86842117Y-82580057D01*
X86736290Y-82474046D01*
X86841192Y-82369327D01*
X86874216Y-82289795D01*
X87588716Y-82289795D01*
X87837106Y-82890943D01*
X88181759Y-83236199D01*
X87838722Y-83578637D01*
X87589284Y-84179352D01*
X87588716Y-84829795D01*
X87837106Y-85430943D01*
X88181759Y-85776199D01*
X87838722Y-86118637D01*
X87589284Y-86719352D01*
X87588716Y-87369795D01*
X87837106Y-87970943D01*
X88296637Y-88431278D01*
X88897352Y-88680716D01*
X89547795Y-88681284D01*
X90148943Y-88432894D01*
X90609278Y-87973363D01*
X90858716Y-87372648D01*
X90859284Y-86722205D01*
X90610894Y-86121057D01*
X90266241Y-85775801D01*
X90609278Y-85433363D01*
X90858716Y-84832648D01*
X90859284Y-84182205D01*
X90610894Y-83581057D01*
X90266241Y-83235801D01*
X90609278Y-82893363D01*
X90858716Y-82292648D01*
X90859284Y-81642205D01*
X90610894Y-81041057D01*
X90151363Y-80580722D01*
X89550648Y-80331284D01*
X88900205Y-80330716D01*
X88299057Y-80579106D01*
X87838722Y-81038637D01*
X87589284Y-81639352D01*
X87588716Y-82289795D01*
X86874216Y-82289795D01*
X86983838Y-82025799D01*
X86984162Y-81653833D01*
X86842117Y-81310057D01*
X86736290Y-81204046D01*
X86841192Y-81099327D01*
X86983838Y-80755799D01*
X86984162Y-80383833D01*
X86842117Y-80040057D01*
X86736290Y-79934046D01*
X86841192Y-79829327D01*
X86983838Y-79485799D01*
X86984162Y-79113833D01*
X86842117Y-78770057D01*
X86579327Y-78506808D01*
X86235799Y-78364162D01*
X85863833Y-78363838D01*
X85689930Y-78435693D01*
X85488862Y-78298309D01*
X85236972Y-78247300D01*
X84436972Y-78247300D01*
X84201655Y-78291578D01*
X84035495Y-78398499D01*
X83888862Y-78298309D01*
X83636972Y-78247300D01*
X82836972Y-78247300D01*
X82601655Y-78291578D01*
X82385531Y-78430650D01*
X82314409Y-78534740D01*
X79978843Y-78534740D01*
X79626353Y-78182250D01*
X95865500Y-78182250D01*
X95865500Y-78672809D01*
X95962173Y-78906198D01*
X96140801Y-79084827D01*
X96374190Y-79181500D01*
X97164750Y-79181500D01*
X97323500Y-79022750D01*
X97323500Y-78023500D01*
X97577500Y-78023500D01*
X97577500Y-79022750D01*
X97736250Y-79181500D01*
X98526810Y-79181500D01*
X98760199Y-79084827D01*
X98938827Y-78906198D01*
X99035500Y-78672809D01*
X99035500Y-78182250D01*
X98876750Y-78023500D01*
X97577500Y-78023500D01*
X97323500Y-78023500D01*
X96024250Y-78023500D01*
X95865500Y-78182250D01*
X79626353Y-78182250D01*
X79060552Y-77616449D01*
X79025910Y-77564214D01*
X78581887Y-77120191D01*
X95865500Y-77120191D01*
X95865500Y-77610750D01*
X96024250Y-77769500D01*
X97323500Y-77769500D01*
X97323500Y-76770250D01*
X97577500Y-76770250D01*
X97577500Y-77769500D01*
X98876750Y-77769500D01*
X99035500Y-77610750D01*
X99035500Y-77120191D01*
X98938827Y-76886802D01*
X98760199Y-76708173D01*
X98526810Y-76611500D01*
X97736250Y-76611500D01*
X97577500Y-76770250D01*
X97323500Y-76770250D01*
X97164750Y-76611500D01*
X96374190Y-76611500D01*
X96140801Y-76708173D01*
X95962173Y-76886802D01*
X95865500Y-77120191D01*
X78581887Y-77120191D01*
X78318803Y-76857107D01*
X78121100Y-76722022D01*
X77869938Y-76667538D01*
X77653246Y-76708311D01*
X77712838Y-76564799D01*
X77712906Y-76487197D01*
X78266568Y-75933535D01*
X78318803Y-75898893D01*
X78385446Y-75832250D01*
X81115500Y-75832250D01*
X81115500Y-76172809D01*
X81212173Y-76406198D01*
X81390801Y-76584827D01*
X81624190Y-76681500D01*
X82064750Y-76681500D01*
X82223500Y-76522750D01*
X82223500Y-75673500D01*
X82477500Y-75673500D01*
X82477500Y-76522750D01*
X82636250Y-76681500D01*
X83076810Y-76681500D01*
X83310199Y-76584827D01*
X83488827Y-76406198D01*
X83585500Y-76172809D01*
X83585500Y-75832250D01*
X83426750Y-75673500D01*
X82477500Y-75673500D01*
X82223500Y-75673500D01*
X81274250Y-75673500D01*
X81115500Y-75832250D01*
X78385446Y-75832250D01*
X79025910Y-75191786D01*
X79160995Y-74994083D01*
X79165716Y-74972320D01*
X79211315Y-74926721D01*
X79211315Y-75151224D01*
X79452127Y-75392036D01*
X79685516Y-75488709D01*
X79938135Y-75488709D01*
X80171524Y-75392037D01*
X80350152Y-75213408D01*
X80500724Y-75062836D01*
X80500724Y-74838330D01*
X79900214Y-74237819D01*
X79886072Y-74251962D01*
X79706467Y-74072357D01*
X79720609Y-74058214D01*
X79706467Y-74044072D01*
X79886072Y-73864467D01*
X79900214Y-73878609D01*
X80589113Y-73189710D01*
X80589113Y-72965204D01*
X80348301Y-72724392D01*
X80114912Y-72627719D01*
X79915171Y-72627719D01*
X79928873Y-72564556D01*
X79881349Y-72311985D01*
X79739304Y-72097803D01*
X79443501Y-71802000D01*
X80014420Y-71802000D01*
X80640208Y-72427787D01*
X80640210Y-72427790D01*
X80927325Y-72619633D01*
X80967976Y-72627719D01*
X81103060Y-72654589D01*
X81103060Y-73246500D01*
X81142074Y-73453842D01*
X81131242Y-73507333D01*
X80993224Y-73369315D01*
X80768718Y-73369315D01*
X80079819Y-74058214D01*
X80680330Y-74658724D01*
X80904836Y-74658724D01*
X81055408Y-74508152D01*
X81121114Y-74442447D01*
X81147338Y-74581817D01*
X81213829Y-74685146D01*
X81212173Y-74686802D01*
X81115500Y-74920191D01*
X81115500Y-75260750D01*
X81274250Y-75419500D01*
X82223500Y-75419500D01*
X82223500Y-75399500D01*
X82477500Y-75399500D01*
X82477500Y-75419500D01*
X83426750Y-75419500D01*
X83585500Y-75260750D01*
X83585500Y-75231964D01*
X83703201Y-75280838D01*
X84075167Y-75281162D01*
X84418943Y-75139117D01*
X84682192Y-74876327D01*
X84824838Y-74532799D01*
X84825162Y-74160833D01*
X84683117Y-73817057D01*
X84450291Y-73583824D01*
X84682192Y-73352327D01*
X84824838Y-73008799D01*
X84825162Y-72636833D01*
X84683117Y-72293057D01*
X84450291Y-72059824D01*
X84682192Y-71828327D01*
X84824838Y-71484799D01*
X84825162Y-71112833D01*
X84683117Y-70769057D01*
X84450378Y-70535912D01*
X84550854Y-70435436D01*
X84682192Y-70304327D01*
X84824838Y-69960799D01*
X84825162Y-69588833D01*
X84683117Y-69245057D01*
X84420327Y-68981808D01*
X84076799Y-68839162D01*
X83704833Y-68838838D01*
X83585500Y-68888145D01*
X83585500Y-68782250D01*
X83426752Y-68623502D01*
X83574754Y-68623502D01*
X83703201Y-68676838D01*
X84075167Y-68677162D01*
X84418943Y-68535117D01*
X84682192Y-68272327D01*
X84824838Y-67928799D01*
X84825162Y-67556833D01*
X84683117Y-67213057D01*
X84450291Y-66979824D01*
X84682192Y-66748327D01*
X84824838Y-66404799D01*
X84825162Y-66032833D01*
X84683117Y-65689057D01*
X84420327Y-65425808D01*
X84076799Y-65283162D01*
X83704833Y-65282838D01*
X83597940Y-65327005D01*
X83597940Y-64996500D01*
X83553662Y-64761183D01*
X83502871Y-64682250D01*
X85415500Y-64682250D01*
X85415500Y-65022809D01*
X85512173Y-65256198D01*
X85690801Y-65434827D01*
X85924190Y-65531500D01*
X86364750Y-65531500D01*
X86523500Y-65372750D01*
X86523500Y-64523500D01*
X86777500Y-64523500D01*
X86777500Y-65372750D01*
X86936250Y-65531500D01*
X87376810Y-65531500D01*
X87610199Y-65434827D01*
X87788827Y-65256198D01*
X87885500Y-65022809D01*
X87885500Y-64682250D01*
X87726750Y-64523500D01*
X86777500Y-64523500D01*
X86523500Y-64523500D01*
X85574250Y-64523500D01*
X85415500Y-64682250D01*
X83502871Y-64682250D01*
X83414590Y-64545059D01*
X83202390Y-64400069D01*
X82950500Y-64349060D01*
X81750500Y-64349060D01*
X81515183Y-64393338D01*
X81299059Y-64532410D01*
X81154069Y-64744610D01*
X81103060Y-64996500D01*
X81103060Y-65696500D01*
X81127444Y-65826089D01*
X81103060Y-65946500D01*
X81103060Y-66646500D01*
X81142074Y-66853842D01*
X81103060Y-67046500D01*
X81103060Y-67746500D01*
X81142358Y-67955350D01*
X81115500Y-68020191D01*
X81115500Y-68210750D01*
X81269152Y-68364402D01*
X81014675Y-68194367D01*
X80958484Y-68183190D01*
X80676000Y-68126999D01*
X80675995Y-68127000D01*
X76016000Y-68127000D01*
X75677325Y-68194367D01*
X75390210Y-68386210D01*
X75390208Y-68386213D01*
X75115425Y-68660995D01*
X74932799Y-68585162D01*
X74560833Y-68584838D01*
X74217057Y-68726883D01*
X73953808Y-68989673D01*
X73885743Y-69153592D01*
X73880869Y-69165329D01*
X73862459Y-69183739D01*
X73822531Y-69123534D01*
X73822531Y-69090381D01*
X73855685Y-69123534D01*
X73822531Y-69090380D01*
X73822531Y-69090381D01*
X73801275Y-69069125D01*
X73780831Y-69060657D01*
X73722609Y-68972867D01*
X73545832Y-68796090D01*
X73348129Y-68661005D01*
X73096967Y-68606521D01*
X72844396Y-68654045D01*
X72630214Y-68796090D01*
X71923107Y-69503197D01*
X71788022Y-69700900D01*
X71733538Y-69952062D01*
X71781062Y-70204633D01*
X71923107Y-70418815D01*
X72099884Y-70595592D01*
X72188694Y-70656273D01*
X72192544Y-70665567D01*
X71874221Y-70983890D01*
X71804057Y-71012881D01*
X71540808Y-71275671D01*
X71398162Y-71619199D01*
X71397838Y-71991165D01*
X71539883Y-72334941D01*
X71802673Y-72598190D01*
X72146201Y-72740836D01*
X72518167Y-72741160D01*
X72861943Y-72599115D01*
X73125192Y-72336325D01*
X73267838Y-71992797D01*
X73268058Y-71739657D01*
X73272471Y-71735244D01*
X73337321Y-71833028D01*
X73514098Y-72009805D01*
X73622971Y-72084195D01*
X73690874Y-72186582D01*
X73867651Y-72363359D01*
X73976527Y-72437751D01*
X74044428Y-72540135D01*
X74221205Y-72716912D01*
X74330078Y-72791302D01*
X74397981Y-72893689D01*
X74574758Y-73070466D01*
X74683632Y-73144857D01*
X74751534Y-73247242D01*
X74928311Y-73424019D01*
X75037187Y-73498411D01*
X75105088Y-73600795D01*
X75281865Y-73777572D01*
X75390738Y-73851962D01*
X75458641Y-73954349D01*
X75635418Y-74131126D01*
X75744294Y-74205518D01*
X75812195Y-74307902D01*
X75988972Y-74484679D01*
X76097845Y-74559069D01*
X76165748Y-74661456D01*
X76342525Y-74838233D01*
X76451399Y-74912624D01*
X76519301Y-75015009D01*
X76696078Y-75191786D01*
X76784888Y-75252467D01*
X76788738Y-75261761D01*
X76607648Y-75442851D01*
X76592833Y-75442838D01*
X76249057Y-75584883D01*
X75985808Y-75847673D01*
X75843162Y-76191201D01*
X75842838Y-76563167D01*
X75984883Y-76906943D01*
X76247673Y-77170192D01*
X76591201Y-77312838D01*
X76947145Y-77313148D01*
X76872855Y-77387438D01*
X76798465Y-77496311D01*
X76696078Y-77564214D01*
X76519301Y-77740991D01*
X76444910Y-77849865D01*
X76342525Y-77917767D01*
X76165748Y-78094544D01*
X76091356Y-78203420D01*
X75988972Y-78271321D01*
X75812195Y-78448098D01*
X75737805Y-78556971D01*
X75635418Y-78624874D01*
X75458641Y-78801651D01*
X75384249Y-78910527D01*
X75281865Y-78978428D01*
X75105088Y-79155205D01*
X75030698Y-79264078D01*
X74928311Y-79331981D01*
X74751534Y-79508758D01*
X74677143Y-79617632D01*
X74574758Y-79685534D01*
X74397981Y-79862311D01*
X74323589Y-79971187D01*
X74221205Y-80039088D01*
X74044428Y-80215865D01*
X73970038Y-80324738D01*
X73867651Y-80392641D01*
X73690874Y-80569418D01*
X73616482Y-80678294D01*
X73514098Y-80746195D01*
X73337321Y-80922972D01*
X73262931Y-81031845D01*
X73160544Y-81099748D01*
X72983767Y-81276525D01*
X72909376Y-81385399D01*
X72806991Y-81453301D01*
X72752370Y-81507922D01*
X72618139Y-81183057D01*
X72355349Y-80919808D01*
X72011821Y-80777162D01*
X71822997Y-80776998D01*
X71822997Y-77057657D01*
X71765145Y-76766818D01*
X71600398Y-76520256D01*
X68215458Y-73135316D01*
X68313242Y-73070466D01*
X68490019Y-72893689D01*
X68564411Y-72784813D01*
X68666795Y-72716912D01*
X68843572Y-72540135D01*
X68917962Y-72431262D01*
X69020349Y-72363359D01*
X69197126Y-72186582D01*
X69257807Y-72097772D01*
X69267101Y-72093922D01*
X69291294Y-72118115D01*
X69380885Y-72334943D01*
X69643675Y-72598192D01*
X69987203Y-72740838D01*
X70359169Y-72741162D01*
X70702945Y-72599117D01*
X70966194Y-72336327D01*
X71108840Y-71992799D01*
X71109164Y-71620833D01*
X70967119Y-71277057D01*
X70704329Y-71013808D01*
X70468023Y-70915684D01*
X70611339Y-70772368D01*
X70685729Y-70663495D01*
X70788116Y-70595592D01*
X70964893Y-70418815D01*
X71099978Y-70221112D01*
X71154462Y-69969950D01*
X71106938Y-69717379D01*
X70964893Y-69503197D01*
X70257786Y-68796090D01*
X70060083Y-68661005D01*
X69808921Y-68606521D01*
X69556350Y-68654045D01*
X69342168Y-68796090D01*
X69186944Y-68951314D01*
X69148789Y-68894210D01*
X68295415Y-68040835D01*
X68429000Y-67907250D01*
X68429000Y-67183000D01*
X68683000Y-67183000D01*
X68683000Y-67907250D01*
X68841750Y-68066000D01*
X69082309Y-68066000D01*
X69315698Y-67969327D01*
X69494327Y-67790699D01*
X69591000Y-67557310D01*
X69591000Y-67341750D01*
X69432250Y-67183000D01*
X68683000Y-67183000D01*
X68429000Y-67183000D01*
X68409000Y-67183000D01*
X68409000Y-66929000D01*
X68429000Y-66929000D01*
X68429000Y-66204750D01*
X68683000Y-66204750D01*
X68683000Y-66929000D01*
X69432250Y-66929000D01*
X69591000Y-66770250D01*
X69591000Y-66554690D01*
X69494327Y-66321301D01*
X69315698Y-66142673D01*
X69082309Y-66046000D01*
X68841750Y-66046000D01*
X68683000Y-66204750D01*
X68429000Y-66204750D01*
X68270250Y-66046000D01*
X68029691Y-66046000D01*
X67796302Y-66142673D01*
X67794932Y-66144043D01*
X67757000Y-66118124D01*
X67757000Y-66016822D01*
X67806838Y-65896799D01*
X67807162Y-65524833D01*
X67665117Y-65181057D01*
X67402327Y-64917808D01*
X67058799Y-64775162D01*
X66686833Y-64774838D01*
X66343057Y-64916883D01*
X66079808Y-65179673D01*
X65937162Y-65523201D01*
X65936838Y-65895167D01*
X65987000Y-66016569D01*
X65987000Y-66871995D01*
X65986999Y-66872000D01*
X66008560Y-66980392D01*
X66008560Y-67431000D01*
X66052838Y-67666317D01*
X66171000Y-67849946D01*
X66171000Y-68052995D01*
X66170999Y-68053000D01*
X66207600Y-68237000D01*
X66238367Y-68391675D01*
X66381922Y-68606521D01*
X66430210Y-68678790D01*
X67897210Y-70145789D01*
X67964859Y-70190990D01*
X67851522Y-70304327D01*
X67964859Y-70190991D01*
X67987022Y-70205799D01*
X67969646Y-70231230D01*
X67934249Y-70394403D01*
X67788583Y-70421812D01*
X67725068Y-70463935D01*
X67691915Y-70463935D01*
X67670659Y-70485191D01*
X67662191Y-70505635D01*
X67574401Y-70563857D01*
X67397624Y-70740634D01*
X67323234Y-70849507D01*
X67220847Y-70917410D01*
X67044070Y-71094187D01*
X66969678Y-71203063D01*
X66867294Y-71270964D01*
X66690517Y-71447741D01*
X66616126Y-71556615D01*
X66513741Y-71624517D01*
X66336964Y-71801294D01*
X66270947Y-71897912D01*
X64836970Y-70463935D01*
X67691914Y-70463935D01*
X67691915Y-70463935D01*
X67847436Y-70308413D01*
X67691914Y-70463935D01*
X64836970Y-70463935D01*
X63963634Y-69590599D01*
X63717072Y-69425852D01*
X63426233Y-69368000D01*
X61579547Y-69368000D01*
X61569831Y-69344485D01*
X61180564Y-68954539D01*
X60671702Y-68743241D01*
X60120715Y-68742760D01*
X59611485Y-68953169D01*
X59221539Y-69342436D01*
X59010241Y-69851298D01*
X59009760Y-70402285D01*
X50710000Y-70402285D01*
X50710000Y-63426001D01*
X54256095Y-61534750D01*
X69168000Y-61534750D01*
X69168000Y-61875309D01*
X69264673Y-62108698D01*
X69443301Y-62287327D01*
X69676690Y-62384000D01*
X70142250Y-62384000D01*
X70301000Y-62225250D01*
X70301000Y-61376000D01*
X69326750Y-61376000D01*
X69168000Y-61534750D01*
X54256095Y-61534750D01*
X58187555Y-59437971D01*
X67868821Y-59437971D01*
X68026058Y-59818515D01*
X68316954Y-60109919D01*
X68486935Y-60180501D01*
X68523922Y-60205215D01*
X68567171Y-60213818D01*
X68697223Y-60267820D01*
X68839281Y-60267944D01*
X68920000Y-60284000D01*
X69369974Y-60284000D01*
X69264673Y-60389302D01*
X69168000Y-60622691D01*
X69168000Y-60963250D01*
X69326750Y-61122000D01*
X70301000Y-61122000D01*
X70301000Y-61102000D01*
X70555000Y-61102000D01*
X70555000Y-61122000D01*
X70575000Y-61122000D01*
X70575000Y-61376000D01*
X70555000Y-61376000D01*
X70555000Y-62225250D01*
X70713750Y-62384000D01*
X71179310Y-62384000D01*
X71412699Y-62287327D01*
X71591327Y-62108698D01*
X71688000Y-61875309D01*
X71688000Y-61849087D01*
X71704690Y-61856000D01*
X71920250Y-61856000D01*
X72079000Y-61697250D01*
X72079000Y-60948000D01*
X72333000Y-60948000D01*
X72333000Y-61697250D01*
X72491750Y-61856000D01*
X72707310Y-61856000D01*
X72940699Y-61759327D01*
X73119327Y-61580698D01*
X73216000Y-61347309D01*
X73216000Y-61106750D01*
X73057250Y-60948000D01*
X72333000Y-60948000D01*
X72079000Y-60948000D01*
X72059000Y-60948000D01*
X72059000Y-60694000D01*
X72079000Y-60694000D01*
X72079000Y-60674000D01*
X72333000Y-60674000D01*
X72333000Y-60694000D01*
X73057250Y-60694000D01*
X73216000Y-60535250D01*
X73216000Y-60356000D01*
X84064173Y-60356000D01*
X86487200Y-62779026D01*
X86487200Y-62915670D01*
X86487021Y-63120971D01*
X86545086Y-63261500D01*
X86523498Y-63261500D01*
X86523498Y-63420248D01*
X86364750Y-63261500D01*
X85924190Y-63261500D01*
X85690801Y-63358173D01*
X85512173Y-63536802D01*
X85415500Y-63770191D01*
X85415500Y-64110750D01*
X85574250Y-64269500D01*
X86523500Y-64269500D01*
X86523500Y-64249500D01*
X86777500Y-64249500D01*
X86777500Y-64269500D01*
X87726750Y-64269500D01*
X87885500Y-64110750D01*
X87885500Y-63896500D01*
X91803060Y-63896500D01*
X91803060Y-64896500D01*
X91847338Y-65131817D01*
X91986410Y-65347941D01*
X92198610Y-65492931D01*
X92450500Y-65543940D01*
X93250500Y-65543940D01*
X93485817Y-65499662D01*
X93701941Y-65360590D01*
X93846931Y-65148390D01*
X93897940Y-64896500D01*
X93897940Y-64682250D01*
X94965500Y-64682250D01*
X94965500Y-65022809D01*
X95062173Y-65256198D01*
X95240801Y-65434827D01*
X95474190Y-65531500D01*
X96714750Y-65531500D01*
X96873500Y-65372750D01*
X96873500Y-64523500D01*
X97127500Y-64523500D01*
X97127500Y-65372750D01*
X97286250Y-65531500D01*
X98526810Y-65531500D01*
X98760199Y-65434827D01*
X98938827Y-65256198D01*
X99035500Y-65022809D01*
X99035500Y-64682250D01*
X98876750Y-64523500D01*
X97127500Y-64523500D01*
X96873500Y-64523500D01*
X95124250Y-64523500D01*
X94965500Y-64682250D01*
X93897940Y-64682250D01*
X93897940Y-63896500D01*
X93874174Y-63770191D01*
X94965500Y-63770191D01*
X94965500Y-64110750D01*
X95124250Y-64269500D01*
X96873500Y-64269500D01*
X96873500Y-63420250D01*
X97127500Y-63420250D01*
X97127500Y-64269500D01*
X98876750Y-64269500D01*
X99035500Y-64110750D01*
X99035500Y-63770191D01*
X98938827Y-63536802D01*
X98760199Y-63358173D01*
X98526810Y-63261500D01*
X97286250Y-63261500D01*
X97127500Y-63420250D01*
X96873500Y-63420250D01*
X96714750Y-63261500D01*
X95474190Y-63261500D01*
X95240801Y-63358173D01*
X95062173Y-63536802D01*
X94965500Y-63770191D01*
X93874174Y-63770191D01*
X93853662Y-63661183D01*
X93714590Y-63445059D01*
X93502390Y-63300069D01*
X93250500Y-63249060D01*
X92450500Y-63249060D01*
X92215183Y-63293338D01*
X91999059Y-63432410D01*
X91854069Y-63644610D01*
X91803060Y-63896500D01*
X87885500Y-63896500D01*
X87885500Y-63885759D01*
X88107715Y-63793942D01*
X88399119Y-63503046D01*
X88557020Y-63122777D01*
X88557379Y-62711029D01*
X88557200Y-62710596D01*
X88557200Y-62350315D01*
X88509139Y-62108698D01*
X88478415Y-61954237D01*
X88306702Y-61697250D01*
X88254056Y-61618459D01*
X88254053Y-61618457D01*
X85224741Y-58589144D01*
X84888962Y-58364785D01*
X84492885Y-58285999D01*
X84492880Y-58286000D01*
X72642431Y-58286000D01*
X72581000Y-58273560D01*
X71831000Y-58273560D01*
X71764887Y-58286000D01*
X71500173Y-58286000D01*
X71304890Y-58152569D01*
X71053000Y-58101560D01*
X69803000Y-58101560D01*
X69567683Y-58145838D01*
X69461756Y-58214000D01*
X69148876Y-58214000D01*
X69110777Y-58198180D01*
X68904004Y-58198000D01*
X68904000Y-58197999D01*
X68903996Y-58198000D01*
X68699029Y-58197821D01*
X68318485Y-58355058D01*
X68027081Y-58645954D01*
X67869180Y-59026223D01*
X67869000Y-59232996D01*
X67868999Y-59233000D01*
X67869000Y-59233004D01*
X67868821Y-59437971D01*
X58187555Y-59437971D01*
X65177501Y-55710000D01*
X84822499Y-55710000D01*
X99290000Y-63426001D01*
X99290000Y-63426001D01*
G37*
X99290000Y-63426001D02*
X99290000Y-94290000D01*
X50710000Y-94290000D01*
X50710000Y-92343599D01*
X53264699Y-92343599D01*
X53528281Y-92981515D01*
X54015918Y-93470004D01*
X54653373Y-93734699D01*
X55343599Y-93735301D01*
X55981515Y-93471719D01*
X56470004Y-92984082D01*
X56734699Y-92346627D01*
X56735301Y-91656401D01*
X56471719Y-91018485D01*
X55984082Y-90529996D01*
X55346627Y-90265301D01*
X54656401Y-90264699D01*
X54018485Y-90528281D01*
X53529996Y-91015918D01*
X53265301Y-91653373D01*
X53264699Y-92343599D01*
X50710000Y-92343599D01*
X50710000Y-88198532D01*
X59803073Y-88198532D01*
X59901736Y-88465387D01*
X60511461Y-88691908D01*
X61161460Y-88667856D01*
X61650264Y-88465387D01*
X61748927Y-88198532D01*
X60776000Y-87225605D01*
X59803073Y-88198532D01*
X50710000Y-88198532D01*
X50710000Y-86781461D01*
X59130092Y-86781461D01*
X59154144Y-87431460D01*
X59356613Y-87920264D01*
X59623468Y-88018927D01*
X60596395Y-87046000D01*
X60955605Y-87046000D01*
X61928532Y-88018927D01*
X62045821Y-87975562D01*
X68334246Y-87975562D01*
X68605212Y-88566878D01*
X69081838Y-89009489D01*
X69570642Y-89211958D01*
X69829102Y-89093028D01*
X69829102Y-87717102D01*
X68453176Y-87717102D01*
X68334246Y-87975562D01*
X62045821Y-87975562D01*
X62195387Y-87920264D01*
X62421908Y-87310539D01*
X62397856Y-86660540D01*
X62195387Y-86171736D01*
X61928532Y-86073073D01*
X60955605Y-87046000D01*
X60596395Y-87046000D01*
X59623468Y-86073073D01*
X59356613Y-86171736D01*
X59130092Y-86781461D01*
X50710000Y-86781461D01*
X50710000Y-82289795D01*
X59140716Y-82289795D01*
X59389106Y-82890943D01*
X59733759Y-83236199D01*
X59390722Y-83578637D01*
X59141284Y-84179352D01*
X59140716Y-84829795D01*
X59389106Y-85430943D01*
X59815978Y-85858562D01*
X59803073Y-85893468D01*
X60776000Y-86866395D01*
X61748927Y-85893468D01*
X61735836Y-85858062D01*
X62161278Y-85433363D01*
X62410716Y-84832648D01*
X62411284Y-84182205D01*
X62162894Y-83581057D01*
X61818241Y-83235801D01*
X62161278Y-82893363D01*
X62410716Y-82292648D01*
X62411284Y-81642205D01*
X62162894Y-81041057D01*
X61703363Y-80580722D01*
X61102648Y-80331284D01*
X60452205Y-80330716D01*
X59851057Y-80579106D01*
X59390722Y-81038637D01*
X59141284Y-81639352D01*
X59140716Y-82289795D01*
X50710000Y-82289795D01*
X50710000Y-80040057D01*
X65439906Y-80040057D01*
X65529935Y-80130086D01*
X65529935Y-80130085D01*
X65439906Y-80040057D01*
X50710000Y-80040057D01*
X50710000Y-79817191D01*
X65217040Y-79817191D01*
X65262160Y-79862311D01*
X65217041Y-79817191D01*
X65217040Y-79817191D01*
X50710000Y-79817191D01*
X50710000Y-79036272D01*
X64436121Y-79036272D01*
X64469275Y-79069426D01*
X64469275Y-79069425D01*
X64436121Y-79036272D01*
X50710000Y-79036272D01*
X50710000Y-78756531D01*
X64156380Y-78756531D01*
X64303887Y-78904038D01*
X64156381Y-78756531D01*
X64156380Y-78756531D01*
X50710000Y-78756531D01*
X50710000Y-72363171D01*
X58997799Y-72363171D01*
X59025770Y-72913448D01*
X59182540Y-73291923D01*
X59423483Y-73359912D01*
X60215395Y-72568000D01*
X59423483Y-71776088D01*
X59182540Y-71844077D01*
X58997799Y-72363171D01*
X50710000Y-72363171D01*
X50710000Y-70402285D01*
X59009760Y-70402285D01*
X59220169Y-70911515D01*
X59609436Y-71301461D01*
X59705417Y-71341316D01*
X59671077Y-71355540D01*
X59603088Y-71596483D01*
X60395000Y-72388395D01*
X61186912Y-71596483D01*
X61118923Y-71355540D01*
X61082404Y-71342543D01*
X61178515Y-71302831D01*
X61568461Y-70913564D01*
X61579076Y-70888000D01*
X63111431Y-70888000D01*
X64624096Y-72400665D01*
X62242335Y-72400665D01*
X62020335Y-72444824D01*
X61951495Y-72458517D01*
X61781982Y-72571782D01*
X61764230Y-72222552D01*
X61607460Y-71844077D01*
X61366517Y-71776088D01*
X60574605Y-72568000D01*
X60588748Y-72582143D01*
X60409143Y-72761748D01*
X60395000Y-72747605D01*
X59603088Y-73539517D01*
X59671077Y-73780460D01*
X59707596Y-73793457D01*
X59611485Y-73833169D01*
X59221539Y-74222436D01*
X59010241Y-74731298D01*
X59009760Y-75282285D01*
X59220169Y-75791515D01*
X59609436Y-76181461D01*
X60118298Y-76392759D01*
X60669285Y-76393240D01*
X61178515Y-76182831D01*
X61568461Y-75793564D01*
X61779759Y-75284702D01*
X61780240Y-74733715D01*
X61769670Y-74708132D01*
X62557137Y-73920665D01*
X64217592Y-73920665D01*
X64215643Y-73922614D01*
X64141251Y-74031490D01*
X64038867Y-74099391D01*
X63862090Y-74276168D01*
X63727005Y-74473871D01*
X63672521Y-74725033D01*
X63720045Y-74977604D01*
X63862090Y-75191786D01*
X64569197Y-75898893D01*
X64766900Y-76033978D01*
X65018062Y-76088462D01*
X65270633Y-76040938D01*
X65484815Y-75898893D01*
X65661592Y-75722116D01*
X65735984Y-75613240D01*
X65838368Y-75545339D01*
X66015145Y-75368562D01*
X66089535Y-75259689D01*
X66191922Y-75191786D01*
X66368699Y-75015009D01*
X66443090Y-74906135D01*
X66545475Y-74838233D01*
X66722252Y-74661456D01*
X66796644Y-74552580D01*
X66899028Y-74484679D01*
X67075805Y-74307902D01*
X67141822Y-74211284D01*
X70302997Y-77372459D01*
X70302997Y-81698249D01*
X70257786Y-81630078D01*
X70081009Y-81453301D01*
X69972135Y-81378910D01*
X69904233Y-81276525D01*
X69727456Y-81099748D01*
X69618580Y-81025356D01*
X69550679Y-80922972D01*
X69373902Y-80746195D01*
X69265029Y-80671805D01*
X69197126Y-80569418D01*
X69020349Y-80392641D01*
X68911473Y-80318249D01*
X68843572Y-80215865D01*
X68666795Y-80039088D01*
X68557922Y-79964698D01*
X68490019Y-79862311D01*
X68313242Y-79685534D01*
X68204368Y-79611143D01*
X68136466Y-79508758D01*
X67959689Y-79331981D01*
X67850813Y-79257589D01*
X67782912Y-79155205D01*
X67606135Y-78978428D01*
X67497262Y-78904038D01*
X67429359Y-78801651D01*
X67252582Y-78624874D01*
X67163772Y-78564193D01*
X67156323Y-78546209D01*
X67135067Y-78524953D01*
X67106343Y-78524953D01*
X67054879Y-78489789D01*
X67099904Y-78489789D01*
X67135067Y-78524953D01*
X67135068Y-78524953D01*
X67099904Y-78489789D01*
X67054879Y-78489789D01*
X66891706Y-78454392D01*
X66864297Y-78308726D01*
X66822173Y-78245209D01*
X66822173Y-78212059D01*
X66822172Y-78212058D01*
X66822173Y-78212058D01*
X66822173Y-78212059D01*
X66855324Y-78245209D01*
X66822173Y-78212058D01*
X66822172Y-78212058D01*
X66800917Y-78190803D01*
X66780475Y-78182336D01*
X66722252Y-78094544D01*
X66583665Y-77955957D01*
X66638943Y-77933117D01*
X66902192Y-77670327D01*
X67044838Y-77326799D01*
X67045162Y-76954833D01*
X66903117Y-76611057D01*
X66640327Y-76347808D01*
X66296799Y-76205162D01*
X65924833Y-76204838D01*
X65581057Y-76346883D01*
X65547882Y-76380000D01*
X65378699Y-76380000D01*
X65087860Y-76437852D01*
X64841298Y-76602599D01*
X64621432Y-76822465D01*
X64569197Y-76857107D01*
X63862090Y-77564214D01*
X63727005Y-77761917D01*
X63672521Y-78013079D01*
X63720045Y-78265650D01*
X63862090Y-78479832D01*
X64038867Y-78656609D01*
X64127675Y-78717289D01*
X64135125Y-78735275D01*
X64156381Y-78756531D01*
X64185107Y-78756531D01*
X64236570Y-78791694D01*
X64399743Y-78827091D01*
X64427152Y-78972757D01*
X64469275Y-79036272D01*
X64469275Y-79069425D01*
X64490531Y-79090681D01*
X64510975Y-79099149D01*
X64569197Y-79186939D01*
X64745974Y-79363716D01*
X64854848Y-79438107D01*
X64922750Y-79540492D01*
X65099527Y-79717269D01*
X65188335Y-79777949D01*
X65195785Y-79795935D01*
X65217041Y-79817191D01*
X65245767Y-79817191D01*
X65297230Y-79852354D01*
X65460403Y-79887751D01*
X65487812Y-80033417D01*
X65529935Y-80096932D01*
X65529935Y-80130085D01*
X65551191Y-80151341D01*
X65571635Y-80159809D01*
X65629857Y-80247599D01*
X65806634Y-80424376D01*
X65915507Y-80498766D01*
X65983410Y-80601153D01*
X66160187Y-80777930D01*
X66269063Y-80852322D01*
X66336964Y-80954706D01*
X66513741Y-81131483D01*
X66622615Y-81205874D01*
X66690517Y-81308259D01*
X66867294Y-81485036D01*
X66976167Y-81559426D01*
X67044070Y-81661813D01*
X67220847Y-81838590D01*
X67329723Y-81912982D01*
X67397624Y-82015366D01*
X67574401Y-82192143D01*
X67683274Y-82266533D01*
X67751177Y-82368920D01*
X67927954Y-82545697D01*
X68036830Y-82620089D01*
X68104731Y-82722473D01*
X68281508Y-82899250D01*
X68390382Y-82973641D01*
X68458284Y-83076026D01*
X68635061Y-83252803D01*
X68731679Y-83318820D01*
X68622649Y-83427850D01*
X68457902Y-83674412D01*
X68400050Y-83965251D01*
X68400050Y-84159259D01*
X67998861Y-84158909D01*
X67999284Y-83674205D01*
X67750894Y-83073057D01*
X67291363Y-82612722D01*
X66690648Y-82363284D01*
X66040205Y-82362716D01*
X65439057Y-82611106D01*
X64978722Y-83070637D01*
X64729284Y-83671352D01*
X64728716Y-84321795D01*
X64977106Y-84922943D01*
X65436637Y-85383278D01*
X66037352Y-85632716D01*
X66525190Y-85633142D01*
X66524767Y-86117846D01*
X66773157Y-86718994D01*
X67232688Y-87179329D01*
X67833403Y-87428767D01*
X68437620Y-87429295D01*
X68453176Y-87463102D01*
X69649494Y-87463102D01*
X69762353Y-87575961D01*
X69941961Y-87396353D01*
X69829102Y-87283494D01*
X69829102Y-86087176D01*
X70083102Y-86087176D01*
X70083102Y-87463102D01*
X71459028Y-87463102D01*
X71577958Y-87204642D01*
X71306992Y-86613326D01*
X70830366Y-86170715D01*
X70341562Y-85968246D01*
X70083102Y-86087176D01*
X69829102Y-86087176D01*
X69794810Y-86071397D01*
X69795335Y-85470256D01*
X69722495Y-85293971D01*
X69862198Y-85084891D01*
X69920050Y-84794052D01*
X69920050Y-84280053D01*
X70205551Y-83994552D01*
X70257786Y-83959910D01*
X70302997Y-83914699D01*
X70302997Y-84578534D01*
X70270805Y-84610670D01*
X70128159Y-84954198D01*
X70127835Y-85326164D01*
X70269880Y-85669940D01*
X70532670Y-85933189D01*
X70876198Y-86075835D01*
X71248164Y-86076159D01*
X71591940Y-85934114D01*
X71855189Y-85671324D01*
X71997835Y-85327796D01*
X71998159Y-84955830D01*
X71856114Y-84612054D01*
X71822997Y-84578879D01*
X71822997Y-83135100D01*
X71888465Y-83200568D01*
X71923107Y-83252803D01*
X72630214Y-83959910D01*
X72827917Y-84094995D01*
X73079079Y-84149479D01*
X73331650Y-84101955D01*
X73478000Y-84004896D01*
X73478000Y-86585504D01*
X72243626Y-87819878D01*
X72078801Y-87751437D01*
X71474584Y-87750909D01*
X71459028Y-87717102D01*
X70262710Y-87717102D01*
X70149851Y-87604243D01*
X69970243Y-87783851D01*
X70083102Y-87896710D01*
X70083102Y-89093028D01*
X70117394Y-89108807D01*
X70116869Y-89709948D01*
X70365259Y-90311096D01*
X70824790Y-90771431D01*
X71425505Y-91020869D01*
X71913343Y-91021295D01*
X71912920Y-91505999D01*
X72161310Y-92107147D01*
X72620841Y-92567482D01*
X73221556Y-92816920D01*
X73871999Y-92817488D01*
X74473147Y-92569098D01*
X74933482Y-92109567D01*
X75182920Y-91508852D01*
X75183488Y-90858409D01*
X74935098Y-90257261D01*
X74475567Y-89796926D01*
X73874852Y-89547488D01*
X73387014Y-89547062D01*
X73387437Y-89062358D01*
X73318234Y-88894874D01*
X74775401Y-87437707D01*
X74940148Y-87191145D01*
X74998000Y-86900306D01*
X74998000Y-83061087D01*
X74940148Y-82770248D01*
X74846445Y-82630012D01*
X74849286Y-82625855D01*
X76399000Y-84175569D01*
X76399000Y-86483537D01*
X76366808Y-86515673D01*
X76224162Y-86859201D01*
X76223838Y-87231167D01*
X76365883Y-87574943D01*
X76628673Y-87838192D01*
X76972201Y-87980838D01*
X77344167Y-87981162D01*
X77542000Y-87899419D01*
X77542000Y-89986000D01*
X77599852Y-90276839D01*
X77764599Y-90523401D01*
X79076790Y-91835592D01*
X79003907Y-92202000D01*
X79116946Y-92770285D01*
X79438853Y-93252054D01*
X79920622Y-93573961D01*
X80488907Y-93687000D01*
X80547093Y-93687000D01*
X81115378Y-93573961D01*
X81586407Y-93259230D01*
X81702173Y-93375198D01*
X82045701Y-93517844D01*
X82417667Y-93518168D01*
X82761443Y-93376123D01*
X83024692Y-93113333D01*
X83167338Y-92769805D01*
X83167662Y-92397839D01*
X83145251Y-92343599D01*
X93264699Y-92343599D01*
X93528281Y-92981515D01*
X94015918Y-93470004D01*
X94653373Y-93734699D01*
X95343599Y-93735301D01*
X95981515Y-93471719D01*
X96470004Y-92984082D01*
X96734699Y-92346627D01*
X96735301Y-91656401D01*
X96471719Y-91018485D01*
X95984082Y-90529996D01*
X95346627Y-90265301D01*
X94656401Y-90264699D01*
X94018485Y-90528281D01*
X93529996Y-91015918D01*
X93265301Y-91653373D01*
X93264699Y-92343599D01*
X83145251Y-92343599D01*
X83025617Y-92054063D01*
X82762827Y-91790814D01*
X82419299Y-91648168D01*
X82047333Y-91647844D01*
X81931393Y-91695749D01*
X81919054Y-91633715D01*
X81597147Y-91151946D01*
X81267974Y-90932000D01*
X81597147Y-90712054D01*
X81919054Y-90230285D01*
X82032093Y-89662000D01*
X81919054Y-89093715D01*
X81597147Y-88611946D01*
X81256447Y-88384298D01*
X81399358Y-88317183D01*
X81789645Y-87888924D01*
X81959476Y-87478890D01*
X81838155Y-87249000D01*
X80645000Y-87249000D01*
X80645000Y-87269000D01*
X80391000Y-87269000D01*
X80391000Y-87249000D01*
X80371000Y-87249000D01*
X80371000Y-86995000D01*
X80391000Y-86995000D01*
X80391000Y-86975000D01*
X80645000Y-86975000D01*
X80645000Y-86995000D01*
X81838155Y-86995000D01*
X81959476Y-86765110D01*
X81789645Y-86355076D01*
X81513499Y-86052063D01*
X81603317Y-86035162D01*
X81819441Y-85896090D01*
X81964431Y-85683890D01*
X82015440Y-85432000D01*
X82015440Y-83732000D01*
X81971162Y-83496683D01*
X81832090Y-83280559D01*
X81619890Y-83135569D01*
X81368000Y-83084560D01*
X79668000Y-83084560D01*
X79432683Y-83128838D01*
X79216559Y-83267910D01*
X79071569Y-83480110D01*
X79020560Y-83732000D01*
X79020560Y-84088329D01*
X79004148Y-84005821D01*
X78839401Y-83759259D01*
X76276475Y-81196333D01*
X76374259Y-81131483D01*
X76551036Y-80954706D01*
X76625426Y-80845833D01*
X76727813Y-80777930D01*
X76904590Y-80601153D01*
X76978982Y-80492277D01*
X77081366Y-80424376D01*
X77258143Y-80247599D01*
X77324160Y-80150981D01*
X78533580Y-81360401D01*
X78780142Y-81525148D01*
X79070981Y-81583000D01*
X80640431Y-81583000D01*
X82189533Y-83132102D01*
X82189533Y-83504740D01*
X82233811Y-83740057D01*
X82372883Y-83956181D01*
X82585083Y-84101171D01*
X82836973Y-84152180D01*
X83636973Y-84152180D01*
X83872290Y-84107902D01*
X84038450Y-84000981D01*
X84185083Y-84101171D01*
X84436973Y-84152180D01*
X85236973Y-84152180D01*
X85472290Y-84107902D01*
X85685727Y-83970559D01*
X85862201Y-84043838D01*
X86234167Y-84044162D01*
X86577943Y-83902117D01*
X86841192Y-83639327D01*
X86983838Y-83295799D01*
X86984162Y-82923833D01*
X86842117Y-82580057D01*
X86736290Y-82474046D01*
X86841192Y-82369327D01*
X86874216Y-82289795D01*
X87588716Y-82289795D01*
X87837106Y-82890943D01*
X88181759Y-83236199D01*
X87838722Y-83578637D01*
X87589284Y-84179352D01*
X87588716Y-84829795D01*
X87837106Y-85430943D01*
X88181759Y-85776199D01*
X87838722Y-86118637D01*
X87589284Y-86719352D01*
X87588716Y-87369795D01*
X87837106Y-87970943D01*
X88296637Y-88431278D01*
X88897352Y-88680716D01*
X89547795Y-88681284D01*
X90148943Y-88432894D01*
X90609278Y-87973363D01*
X90858716Y-87372648D01*
X90859284Y-86722205D01*
X90610894Y-86121057D01*
X90266241Y-85775801D01*
X90609278Y-85433363D01*
X90858716Y-84832648D01*
X90859284Y-84182205D01*
X90610894Y-83581057D01*
X90266241Y-83235801D01*
X90609278Y-82893363D01*
X90858716Y-82292648D01*
X90859284Y-81642205D01*
X90610894Y-81041057D01*
X90151363Y-80580722D01*
X89550648Y-80331284D01*
X88900205Y-80330716D01*
X88299057Y-80579106D01*
X87838722Y-81038637D01*
X87589284Y-81639352D01*
X87588716Y-82289795D01*
X86874216Y-82289795D01*
X86983838Y-82025799D01*
X86984162Y-81653833D01*
X86842117Y-81310057D01*
X86736290Y-81204046D01*
X86841192Y-81099327D01*
X86983838Y-80755799D01*
X86984162Y-80383833D01*
X86842117Y-80040057D01*
X86736290Y-79934046D01*
X86841192Y-79829327D01*
X86983838Y-79485799D01*
X86984162Y-79113833D01*
X86842117Y-78770057D01*
X86579327Y-78506808D01*
X86235799Y-78364162D01*
X85863833Y-78363838D01*
X85689930Y-78435693D01*
X85488862Y-78298309D01*
X85236972Y-78247300D01*
X84436972Y-78247300D01*
X84201655Y-78291578D01*
X84035495Y-78398499D01*
X83888862Y-78298309D01*
X83636972Y-78247300D01*
X82836972Y-78247300D01*
X82601655Y-78291578D01*
X82385531Y-78430650D01*
X82314409Y-78534740D01*
X79978843Y-78534740D01*
X79626353Y-78182250D01*
X95865500Y-78182250D01*
X95865500Y-78672809D01*
X95962173Y-78906198D01*
X96140801Y-79084827D01*
X96374190Y-79181500D01*
X97164750Y-79181500D01*
X97323500Y-79022750D01*
X97323500Y-78023500D01*
X97577500Y-78023500D01*
X97577500Y-79022750D01*
X97736250Y-79181500D01*
X98526810Y-79181500D01*
X98760199Y-79084827D01*
X98938827Y-78906198D01*
X99035500Y-78672809D01*
X99035500Y-78182250D01*
X98876750Y-78023500D01*
X97577500Y-78023500D01*
X97323500Y-78023500D01*
X96024250Y-78023500D01*
X95865500Y-78182250D01*
X79626353Y-78182250D01*
X79060552Y-77616449D01*
X79025910Y-77564214D01*
X78581887Y-77120191D01*
X95865500Y-77120191D01*
X95865500Y-77610750D01*
X96024250Y-77769500D01*
X97323500Y-77769500D01*
X97323500Y-76770250D01*
X97577500Y-76770250D01*
X97577500Y-77769500D01*
X98876750Y-77769500D01*
X99035500Y-77610750D01*
X99035500Y-77120191D01*
X98938827Y-76886802D01*
X98760199Y-76708173D01*
X98526810Y-76611500D01*
X97736250Y-76611500D01*
X97577500Y-76770250D01*
X97323500Y-76770250D01*
X97164750Y-76611500D01*
X96374190Y-76611500D01*
X96140801Y-76708173D01*
X95962173Y-76886802D01*
X95865500Y-77120191D01*
X78581887Y-77120191D01*
X78318803Y-76857107D01*
X78121100Y-76722022D01*
X77869938Y-76667538D01*
X77653246Y-76708311D01*
X77712838Y-76564799D01*
X77712906Y-76487197D01*
X78266568Y-75933535D01*
X78318803Y-75898893D01*
X78385446Y-75832250D01*
X81115500Y-75832250D01*
X81115500Y-76172809D01*
X81212173Y-76406198D01*
X81390801Y-76584827D01*
X81624190Y-76681500D01*
X82064750Y-76681500D01*
X82223500Y-76522750D01*
X82223500Y-75673500D01*
X82477500Y-75673500D01*
X82477500Y-76522750D01*
X82636250Y-76681500D01*
X83076810Y-76681500D01*
X83310199Y-76584827D01*
X83488827Y-76406198D01*
X83585500Y-76172809D01*
X83585500Y-75832250D01*
X83426750Y-75673500D01*
X82477500Y-75673500D01*
X82223500Y-75673500D01*
X81274250Y-75673500D01*
X81115500Y-75832250D01*
X78385446Y-75832250D01*
X79025910Y-75191786D01*
X79160995Y-74994083D01*
X79165716Y-74972320D01*
X79211315Y-74926721D01*
X79211315Y-75151224D01*
X79452127Y-75392036D01*
X79685516Y-75488709D01*
X79938135Y-75488709D01*
X80171524Y-75392037D01*
X80350152Y-75213408D01*
X80500724Y-75062836D01*
X80500724Y-74838330D01*
X79900214Y-74237819D01*
X79886072Y-74251962D01*
X79706467Y-74072357D01*
X79720609Y-74058214D01*
X79706467Y-74044072D01*
X79886072Y-73864467D01*
X79900214Y-73878609D01*
X80589113Y-73189710D01*
X80589113Y-72965204D01*
X80348301Y-72724392D01*
X80114912Y-72627719D01*
X79915171Y-72627719D01*
X79928873Y-72564556D01*
X79881349Y-72311985D01*
X79739304Y-72097803D01*
X79443501Y-71802000D01*
X80014420Y-71802000D01*
X80640208Y-72427787D01*
X80640210Y-72427790D01*
X80927325Y-72619633D01*
X80967976Y-72627719D01*
X81103060Y-72654589D01*
X81103060Y-73246500D01*
X81142074Y-73453842D01*
X81131242Y-73507333D01*
X80993224Y-73369315D01*
X80768718Y-73369315D01*
X80079819Y-74058214D01*
X80680330Y-74658724D01*
X80904836Y-74658724D01*
X81055408Y-74508152D01*
X81121114Y-74442447D01*
X81147338Y-74581817D01*
X81213829Y-74685146D01*
X81212173Y-74686802D01*
X81115500Y-74920191D01*
X81115500Y-75260750D01*
X81274250Y-75419500D01*
X82223500Y-75419500D01*
X82223500Y-75399500D01*
X82477500Y-75399500D01*
X82477500Y-75419500D01*
X83426750Y-75419500D01*
X83585500Y-75260750D01*
X83585500Y-75231964D01*
X83703201Y-75280838D01*
X84075167Y-75281162D01*
X84418943Y-75139117D01*
X84682192Y-74876327D01*
X84824838Y-74532799D01*
X84825162Y-74160833D01*
X84683117Y-73817057D01*
X84450291Y-73583824D01*
X84682192Y-73352327D01*
X84824838Y-73008799D01*
X84825162Y-72636833D01*
X84683117Y-72293057D01*
X84450291Y-72059824D01*
X84682192Y-71828327D01*
X84824838Y-71484799D01*
X84825162Y-71112833D01*
X84683117Y-70769057D01*
X84450378Y-70535912D01*
X84550854Y-70435436D01*
X84682192Y-70304327D01*
X84824838Y-69960799D01*
X84825162Y-69588833D01*
X84683117Y-69245057D01*
X84420327Y-68981808D01*
X84076799Y-68839162D01*
X83704833Y-68838838D01*
X83585500Y-68888145D01*
X83585500Y-68782250D01*
X83426752Y-68623502D01*
X83574754Y-68623502D01*
X83703201Y-68676838D01*
X84075167Y-68677162D01*
X84418943Y-68535117D01*
X84682192Y-68272327D01*
X84824838Y-67928799D01*
X84825162Y-67556833D01*
X84683117Y-67213057D01*
X84450291Y-66979824D01*
X84682192Y-66748327D01*
X84824838Y-66404799D01*
X84825162Y-66032833D01*
X84683117Y-65689057D01*
X84420327Y-65425808D01*
X84076799Y-65283162D01*
X83704833Y-65282838D01*
X83597940Y-65327005D01*
X83597940Y-64996500D01*
X83553662Y-64761183D01*
X83502871Y-64682250D01*
X85415500Y-64682250D01*
X85415500Y-65022809D01*
X85512173Y-65256198D01*
X85690801Y-65434827D01*
X85924190Y-65531500D01*
X86364750Y-65531500D01*
X86523500Y-65372750D01*
X86523500Y-64523500D01*
X86777500Y-64523500D01*
X86777500Y-65372750D01*
X86936250Y-65531500D01*
X87376810Y-65531500D01*
X87610199Y-65434827D01*
X87788827Y-65256198D01*
X87885500Y-65022809D01*
X87885500Y-64682250D01*
X87726750Y-64523500D01*
X86777500Y-64523500D01*
X86523500Y-64523500D01*
X85574250Y-64523500D01*
X85415500Y-64682250D01*
X83502871Y-64682250D01*
X83414590Y-64545059D01*
X83202390Y-64400069D01*
X82950500Y-64349060D01*
X81750500Y-64349060D01*
X81515183Y-64393338D01*
X81299059Y-64532410D01*
X81154069Y-64744610D01*
X81103060Y-64996500D01*
X81103060Y-65696500D01*
X81127444Y-65826089D01*
X81103060Y-65946500D01*
X81103060Y-66646500D01*
X81142074Y-66853842D01*
X81103060Y-67046500D01*
X81103060Y-67746500D01*
X81142358Y-67955350D01*
X81115500Y-68020191D01*
X81115500Y-68210750D01*
X81269152Y-68364402D01*
X81014675Y-68194367D01*
X80958484Y-68183190D01*
X80676000Y-68126999D01*
X80675995Y-68127000D01*
X76016000Y-68127000D01*
X75677325Y-68194367D01*
X75390210Y-68386210D01*
X75390208Y-68386213D01*
X75115425Y-68660995D01*
X74932799Y-68585162D01*
X74560833Y-68584838D01*
X74217057Y-68726883D01*
X73953808Y-68989673D01*
X73885743Y-69153592D01*
X73880869Y-69165329D01*
X73862459Y-69183739D01*
X73822531Y-69123534D01*
X73822531Y-69090381D01*
X73855685Y-69123534D01*
X73822531Y-69090380D01*
X73822531Y-69090381D01*
X73801275Y-69069125D01*
X73780831Y-69060657D01*
X73722609Y-68972867D01*
X73545832Y-68796090D01*
X73348129Y-68661005D01*
X73096967Y-68606521D01*
X72844396Y-68654045D01*
X72630214Y-68796090D01*
X71923107Y-69503197D01*
X71788022Y-69700900D01*
X71733538Y-69952062D01*
X71781062Y-70204633D01*
X71923107Y-70418815D01*
X72099884Y-70595592D01*
X72188694Y-70656273D01*
X72192544Y-70665567D01*
X71874221Y-70983890D01*
X71804057Y-71012881D01*
X71540808Y-71275671D01*
X71398162Y-71619199D01*
X71397838Y-71991165D01*
X71539883Y-72334941D01*
X71802673Y-72598190D01*
X72146201Y-72740836D01*
X72518167Y-72741160D01*
X72861943Y-72599115D01*
X73125192Y-72336325D01*
X73267838Y-71992797D01*
X73268058Y-71739657D01*
X73272471Y-71735244D01*
X73337321Y-71833028D01*
X73514098Y-72009805D01*
X73622971Y-72084195D01*
X73690874Y-72186582D01*
X73867651Y-72363359D01*
X73976527Y-72437751D01*
X74044428Y-72540135D01*
X74221205Y-72716912D01*
X74330078Y-72791302D01*
X74397981Y-72893689D01*
X74574758Y-73070466D01*
X74683632Y-73144857D01*
X74751534Y-73247242D01*
X74928311Y-73424019D01*
X75037187Y-73498411D01*
X75105088Y-73600795D01*
X75281865Y-73777572D01*
X75390738Y-73851962D01*
X75458641Y-73954349D01*
X75635418Y-74131126D01*
X75744294Y-74205518D01*
X75812195Y-74307902D01*
X75988972Y-74484679D01*
X76097845Y-74559069D01*
X76165748Y-74661456D01*
X76342525Y-74838233D01*
X76451399Y-74912624D01*
X76519301Y-75015009D01*
X76696078Y-75191786D01*
X76784888Y-75252467D01*
X76788738Y-75261761D01*
X76607648Y-75442851D01*
X76592833Y-75442838D01*
X76249057Y-75584883D01*
X75985808Y-75847673D01*
X75843162Y-76191201D01*
X75842838Y-76563167D01*
X75984883Y-76906943D01*
X76247673Y-77170192D01*
X76591201Y-77312838D01*
X76947145Y-77313148D01*
X76872855Y-77387438D01*
X76798465Y-77496311D01*
X76696078Y-77564214D01*
X76519301Y-77740991D01*
X76444910Y-77849865D01*
X76342525Y-77917767D01*
X76165748Y-78094544D01*
X76091356Y-78203420D01*
X75988972Y-78271321D01*
X75812195Y-78448098D01*
X75737805Y-78556971D01*
X75635418Y-78624874D01*
X75458641Y-78801651D01*
X75384249Y-78910527D01*
X75281865Y-78978428D01*
X75105088Y-79155205D01*
X75030698Y-79264078D01*
X74928311Y-79331981D01*
X74751534Y-79508758D01*
X74677143Y-79617632D01*
X74574758Y-79685534D01*
X74397981Y-79862311D01*
X74323589Y-79971187D01*
X74221205Y-80039088D01*
X74044428Y-80215865D01*
X73970038Y-80324738D01*
X73867651Y-80392641D01*
X73690874Y-80569418D01*
X73616482Y-80678294D01*
X73514098Y-80746195D01*
X73337321Y-80922972D01*
X73262931Y-81031845D01*
X73160544Y-81099748D01*
X72983767Y-81276525D01*
X72909376Y-81385399D01*
X72806991Y-81453301D01*
X72752370Y-81507922D01*
X72618139Y-81183057D01*
X72355349Y-80919808D01*
X72011821Y-80777162D01*
X71822997Y-80776998D01*
X71822997Y-77057657D01*
X71765145Y-76766818D01*
X71600398Y-76520256D01*
X68215458Y-73135316D01*
X68313242Y-73070466D01*
X68490019Y-72893689D01*
X68564411Y-72784813D01*
X68666795Y-72716912D01*
X68843572Y-72540135D01*
X68917962Y-72431262D01*
X69020349Y-72363359D01*
X69197126Y-72186582D01*
X69257807Y-72097772D01*
X69267101Y-72093922D01*
X69291294Y-72118115D01*
X69380885Y-72334943D01*
X69643675Y-72598192D01*
X69987203Y-72740838D01*
X70359169Y-72741162D01*
X70702945Y-72599117D01*
X70966194Y-72336327D01*
X71108840Y-71992799D01*
X71109164Y-71620833D01*
X70967119Y-71277057D01*
X70704329Y-71013808D01*
X70468023Y-70915684D01*
X70611339Y-70772368D01*
X70685729Y-70663495D01*
X70788116Y-70595592D01*
X70964893Y-70418815D01*
X71099978Y-70221112D01*
X71154462Y-69969950D01*
X71106938Y-69717379D01*
X70964893Y-69503197D01*
X70257786Y-68796090D01*
X70060083Y-68661005D01*
X69808921Y-68606521D01*
X69556350Y-68654045D01*
X69342168Y-68796090D01*
X69186944Y-68951314D01*
X69148789Y-68894210D01*
X68295415Y-68040835D01*
X68429000Y-67907250D01*
X68429000Y-67183000D01*
X68683000Y-67183000D01*
X68683000Y-67907250D01*
X68841750Y-68066000D01*
X69082309Y-68066000D01*
X69315698Y-67969327D01*
X69494327Y-67790699D01*
X69591000Y-67557310D01*
X69591000Y-67341750D01*
X69432250Y-67183000D01*
X68683000Y-67183000D01*
X68429000Y-67183000D01*
X68409000Y-67183000D01*
X68409000Y-66929000D01*
X68429000Y-66929000D01*
X68429000Y-66204750D01*
X68683000Y-66204750D01*
X68683000Y-66929000D01*
X69432250Y-66929000D01*
X69591000Y-66770250D01*
X69591000Y-66554690D01*
X69494327Y-66321301D01*
X69315698Y-66142673D01*
X69082309Y-66046000D01*
X68841750Y-66046000D01*
X68683000Y-66204750D01*
X68429000Y-66204750D01*
X68270250Y-66046000D01*
X68029691Y-66046000D01*
X67796302Y-66142673D01*
X67794932Y-66144043D01*
X67757000Y-66118124D01*
X67757000Y-66016822D01*
X67806838Y-65896799D01*
X67807162Y-65524833D01*
X67665117Y-65181057D01*
X67402327Y-64917808D01*
X67058799Y-64775162D01*
X66686833Y-64774838D01*
X66343057Y-64916883D01*
X66079808Y-65179673D01*
X65937162Y-65523201D01*
X65936838Y-65895167D01*
X65987000Y-66016569D01*
X65987000Y-66871995D01*
X65986999Y-66872000D01*
X66008560Y-66980392D01*
X66008560Y-67431000D01*
X66052838Y-67666317D01*
X66171000Y-67849946D01*
X66171000Y-68052995D01*
X66170999Y-68053000D01*
X66207600Y-68237000D01*
X66238367Y-68391675D01*
X66381922Y-68606521D01*
X66430210Y-68678790D01*
X67897210Y-70145789D01*
X67964859Y-70190990D01*
X67851522Y-70304327D01*
X67964859Y-70190991D01*
X67987022Y-70205799D01*
X67969646Y-70231230D01*
X67934249Y-70394403D01*
X67788583Y-70421812D01*
X67725068Y-70463935D01*
X67691915Y-70463935D01*
X67670659Y-70485191D01*
X67662191Y-70505635D01*
X67574401Y-70563857D01*
X67397624Y-70740634D01*
X67323234Y-70849507D01*
X67220847Y-70917410D01*
X67044070Y-71094187D01*
X66969678Y-71203063D01*
X66867294Y-71270964D01*
X66690517Y-71447741D01*
X66616126Y-71556615D01*
X66513741Y-71624517D01*
X66336964Y-71801294D01*
X66270947Y-71897912D01*
X64836970Y-70463935D01*
X67691914Y-70463935D01*
X67691915Y-70463935D01*
X67847436Y-70308413D01*
X67691914Y-70463935D01*
X64836970Y-70463935D01*
X63963634Y-69590599D01*
X63717072Y-69425852D01*
X63426233Y-69368000D01*
X61579547Y-69368000D01*
X61569831Y-69344485D01*
X61180564Y-68954539D01*
X60671702Y-68743241D01*
X60120715Y-68742760D01*
X59611485Y-68953169D01*
X59221539Y-69342436D01*
X59010241Y-69851298D01*
X59009760Y-70402285D01*
X50710000Y-70402285D01*
X50710000Y-63426001D01*
X54256095Y-61534750D01*
X69168000Y-61534750D01*
X69168000Y-61875309D01*
X69264673Y-62108698D01*
X69443301Y-62287327D01*
X69676690Y-62384000D01*
X70142250Y-62384000D01*
X70301000Y-62225250D01*
X70301000Y-61376000D01*
X69326750Y-61376000D01*
X69168000Y-61534750D01*
X54256095Y-61534750D01*
X58187555Y-59437971D01*
X67868821Y-59437971D01*
X68026058Y-59818515D01*
X68316954Y-60109919D01*
X68486935Y-60180501D01*
X68523922Y-60205215D01*
X68567171Y-60213818D01*
X68697223Y-60267820D01*
X68839281Y-60267944D01*
X68920000Y-60284000D01*
X69369974Y-60284000D01*
X69264673Y-60389302D01*
X69168000Y-60622691D01*
X69168000Y-60963250D01*
X69326750Y-61122000D01*
X70301000Y-61122000D01*
X70301000Y-61102000D01*
X70555000Y-61102000D01*
X70555000Y-61122000D01*
X70575000Y-61122000D01*
X70575000Y-61376000D01*
X70555000Y-61376000D01*
X70555000Y-62225250D01*
X70713750Y-62384000D01*
X71179310Y-62384000D01*
X71412699Y-62287327D01*
X71591327Y-62108698D01*
X71688000Y-61875309D01*
X71688000Y-61849087D01*
X71704690Y-61856000D01*
X71920250Y-61856000D01*
X72079000Y-61697250D01*
X72079000Y-60948000D01*
X72333000Y-60948000D01*
X72333000Y-61697250D01*
X72491750Y-61856000D01*
X72707310Y-61856000D01*
X72940699Y-61759327D01*
X73119327Y-61580698D01*
X73216000Y-61347309D01*
X73216000Y-61106750D01*
X73057250Y-60948000D01*
X72333000Y-60948000D01*
X72079000Y-60948000D01*
X72059000Y-60948000D01*
X72059000Y-60694000D01*
X72079000Y-60694000D01*
X72079000Y-60674000D01*
X72333000Y-60674000D01*
X72333000Y-60694000D01*
X73057250Y-60694000D01*
X73216000Y-60535250D01*
X73216000Y-60356000D01*
X84064173Y-60356000D01*
X86487200Y-62779026D01*
X86487200Y-62915670D01*
X86487021Y-63120971D01*
X86545086Y-63261500D01*
X86523498Y-63261500D01*
X86523498Y-63420248D01*
X86364750Y-63261500D01*
X85924190Y-63261500D01*
X85690801Y-63358173D01*
X85512173Y-63536802D01*
X85415500Y-63770191D01*
X85415500Y-64110750D01*
X85574250Y-64269500D01*
X86523500Y-64269500D01*
X86523500Y-64249500D01*
X86777500Y-64249500D01*
X86777500Y-64269500D01*
X87726750Y-64269500D01*
X87885500Y-64110750D01*
X87885500Y-63896500D01*
X91803060Y-63896500D01*
X91803060Y-64896500D01*
X91847338Y-65131817D01*
X91986410Y-65347941D01*
X92198610Y-65492931D01*
X92450500Y-65543940D01*
X93250500Y-65543940D01*
X93485817Y-65499662D01*
X93701941Y-65360590D01*
X93846931Y-65148390D01*
X93897940Y-64896500D01*
X93897940Y-64682250D01*
X94965500Y-64682250D01*
X94965500Y-65022809D01*
X95062173Y-65256198D01*
X95240801Y-65434827D01*
X95474190Y-65531500D01*
X96714750Y-65531500D01*
X96873500Y-65372750D01*
X96873500Y-64523500D01*
X97127500Y-64523500D01*
X97127500Y-65372750D01*
X97286250Y-65531500D01*
X98526810Y-65531500D01*
X98760199Y-65434827D01*
X98938827Y-65256198D01*
X99035500Y-65022809D01*
X99035500Y-64682250D01*
X98876750Y-64523500D01*
X97127500Y-64523500D01*
X96873500Y-64523500D01*
X95124250Y-64523500D01*
X94965500Y-64682250D01*
X93897940Y-64682250D01*
X93897940Y-63896500D01*
X93874174Y-63770191D01*
X94965500Y-63770191D01*
X94965500Y-64110750D01*
X95124250Y-64269500D01*
X96873500Y-64269500D01*
X96873500Y-63420250D01*
X97127500Y-63420250D01*
X97127500Y-64269500D01*
X98876750Y-64269500D01*
X99035500Y-64110750D01*
X99035500Y-63770191D01*
X98938827Y-63536802D01*
X98760199Y-63358173D01*
X98526810Y-63261500D01*
X97286250Y-63261500D01*
X97127500Y-63420250D01*
X96873500Y-63420250D01*
X96714750Y-63261500D01*
X95474190Y-63261500D01*
X95240801Y-63358173D01*
X95062173Y-63536802D01*
X94965500Y-63770191D01*
X93874174Y-63770191D01*
X93853662Y-63661183D01*
X93714590Y-63445059D01*
X93502390Y-63300069D01*
X93250500Y-63249060D01*
X92450500Y-63249060D01*
X92215183Y-63293338D01*
X91999059Y-63432410D01*
X91854069Y-63644610D01*
X91803060Y-63896500D01*
X87885500Y-63896500D01*
X87885500Y-63885759D01*
X88107715Y-63793942D01*
X88399119Y-63503046D01*
X88557020Y-63122777D01*
X88557379Y-62711029D01*
X88557200Y-62710596D01*
X88557200Y-62350315D01*
X88509139Y-62108698D01*
X88478415Y-61954237D01*
X88306702Y-61697250D01*
X88254056Y-61618459D01*
X88254053Y-61618457D01*
X85224741Y-58589144D01*
X84888962Y-58364785D01*
X84492885Y-58285999D01*
X84492880Y-58286000D01*
X72642431Y-58286000D01*
X72581000Y-58273560D01*
X71831000Y-58273560D01*
X71764887Y-58286000D01*
X71500173Y-58286000D01*
X71304890Y-58152569D01*
X71053000Y-58101560D01*
X69803000Y-58101560D01*
X69567683Y-58145838D01*
X69461756Y-58214000D01*
X69148876Y-58214000D01*
X69110777Y-58198180D01*
X68904004Y-58198000D01*
X68904000Y-58197999D01*
X68903996Y-58198000D01*
X68699029Y-58197821D01*
X68318485Y-58355058D01*
X68027081Y-58645954D01*
X67869180Y-59026223D01*
X67869000Y-59232996D01*
X67868999Y-59233000D01*
X67869000Y-59233004D01*
X67868821Y-59437971D01*
X58187555Y-59437971D01*
X65177501Y-55710000D01*
X84822499Y-55710000D01*
X99290000Y-63426001D01*
G36*
X82497500Y-68599060D02*
X82203500Y-68599060D01*
X82203500Y-68393940D01*
X82497500Y-68393940D01*
X82497500Y-68599060D01*
X82497500Y-68599060D01*
G37*
X82497500Y-68599060D02*
X82203500Y-68599060D01*
X82203500Y-68393940D01*
X82497500Y-68393940D01*
X82497500Y-68599060D01*
M02*
